%TF.GenerationSoftware,KiCad,Pcbnew,9.0.7*%
%TF.CreationDate,2026-02-22T16:46:49+05:30*%
%TF.ProjectId,Project,50726f6a-6563-4742-9e6b-696361645f70,rev?*%
%TF.SameCoordinates,Original*%
%TF.FileFunction,Copper,L2,Bot*%
%TF.FilePolarity,Positive*%
%FSLAX46Y46*%
G04 Gerber Fmt 4.6, Leading zero omitted, Abs format (unit mm)*
G04 Created by KiCad (PCBNEW 9.0.7) date 2026-02-22 16:46:49*
%MOMM*%
%LPD*%
G01*
G04 APERTURE LIST*
%TA.AperFunction,ComponentPad*%
%ADD10C,2.200000*%
%TD*%
%TA.AperFunction,ComponentPad*%
%ADD11R,1.700000X1.700000*%
%TD*%
%TA.AperFunction,ComponentPad*%
%ADD12O,1.700000X1.700000*%
%TD*%
%TA.AperFunction,ComponentPad*%
%ADD13R,3.500000X1.700000*%
%TD*%
%TA.AperFunction,ComponentPad*%
%ADD14O,3.600000X1.700000*%
%TD*%
%TA.AperFunction,ComponentPad*%
%ADD15O,3.700000X1.700000*%
%TD*%
%TA.AperFunction,ComponentPad*%
%ADD16R,2.000000X2.000000*%
%TD*%
%TA.AperFunction,ComponentPad*%
%ADD17C,2.000000*%
%TD*%
%TA.AperFunction,ComponentPad*%
%ADD18R,2.000000X3.200000*%
%TD*%
%TA.AperFunction,ViaPad*%
%ADD19C,0.600000*%
%TD*%
%TA.AperFunction,Conductor*%
%ADD20C,0.200000*%
%TD*%
G04 APERTURE END LIST*
D10*
%TO.P,SW5,1,1*%
%TO.N,/COL1*%
X135460000Y-78860000D03*
%TO.P,SW5,2,2*%
%TO.N,Net-(D5-A)*%
X129110000Y-81400000D03*
%TD*%
%TO.P,SW2,1,1*%
%TO.N,/COL1*%
X116441412Y-78823638D03*
%TO.P,SW2,2,2*%
%TO.N,Net-(D2-A)*%
X110091412Y-81363638D03*
%TD*%
%TO.P,SW9,1,1*%
%TO.N,/COL2*%
X154498770Y-97921230D03*
%TO.P,SW9,2,2*%
%TO.N,Net-(D9-A)*%
X148148770Y-100461230D03*
%TD*%
%TO.P,SW10,1,1*%
%TO.N,/COL0*%
X173602737Y-59758559D03*
%TO.P,SW10,2,2*%
%TO.N,Net-(D10-A)*%
X167252737Y-62298559D03*
%TD*%
%TO.P,SW3,1,1*%
%TO.N,/COL2*%
X116438861Y-97883487D03*
%TO.P,SW3,2,2*%
%TO.N,Net-(D3-A)*%
X110088861Y-100423487D03*
%TD*%
D11*
%TO.P,J1,1,GND*%
%TO.N,GND*%
X162745000Y-42665000D03*
D12*
%TO.P,J1,2,VCC*%
%TO.N,+3V3*%
X162745000Y-45205000D03*
%TO.P,J1,3,SCL*%
%TO.N,/D5 (SCL)*%
X162745000Y-47745000D03*
%TO.P,J1,4,SDA*%
%TO.N,/D4 (SDA)*%
X162745000Y-50285000D03*
%TD*%
D10*
%TO.P,SW8,1,1*%
%TO.N,/COL1*%
X154554033Y-78832144D03*
%TO.P,SW8,2,2*%
%TO.N,Net-(D8-A)*%
X148204033Y-81372144D03*
%TD*%
%TO.P,SW4,1,1*%
%TO.N,/COL0*%
X135521541Y-59778357D03*
%TO.P,SW4,2,2*%
%TO.N,Net-(D4-A)*%
X129171541Y-62318357D03*
%TD*%
%TO.P,SW12,1,1*%
%TO.N,/COL2*%
X173532616Y-97884537D03*
%TO.P,SW12,2,2*%
%TO.N,Net-(D12-A)*%
X167182616Y-100424537D03*
%TD*%
D13*
%TO.P,U1,1,PA02_A0_D0*%
%TO.N,/D0*%
X106370000Y-39580000D03*
D14*
%TO.P,U1,2,PA4_A1_D1*%
%TO.N,/D1*%
X106370000Y-42120000D03*
%TO.P,U1,3,PA10_A2_D2*%
%TO.N,/D2*%
X106370000Y-44660000D03*
%TO.P,U1,4,PA11_A3_D3*%
%TO.N,/D3*%
X106370000Y-47200000D03*
%TO.P,U1,5,PA8_A4_D4_SDA*%
%TO.N,/D4 (SDA)*%
X106370000Y-49740000D03*
%TO.P,U1,6,PA9_A5_D5_SCL*%
%TO.N,/D5 (SCL)*%
X106370000Y-52280000D03*
%TO.P,U1,7,PB08_A6_D6_TX*%
%TO.N,/COL0*%
X106370000Y-54820000D03*
%TO.P,U1,8,PB09_A7_D7_RX*%
%TO.N,/COL1*%
X123620000Y-54820000D03*
%TO.P,U1,9,PA7_A8_D8_SCK*%
%TO.N,/COL2*%
X123620000Y-52280000D03*
%TO.P,U1,10,PA5_A9_D9_MISO*%
%TO.N,/D9*%
X123620000Y-49740000D03*
D15*
%TO.P,U1,11,PA6_A10_D10_MOSI*%
%TO.N,/D10*%
X123620000Y-47200000D03*
%TO.P,U1,12,3V3*%
%TO.N,+3V3*%
X123620000Y-44660000D03*
%TO.P,U1,13,GND*%
%TO.N,GND*%
X123620000Y-42120000D03*
%TO.P,U1,14,5V*%
%TO.N,+5V*%
X123620000Y-39580000D03*
%TD*%
D16*
%TO.P,SW13,A,A*%
%TO.N,/D10*%
X169000000Y-54250000D03*
D17*
%TO.P,SW13,B,B*%
%TO.N,/D9*%
X174000000Y-54250000D03*
%TO.P,SW13,C,C*%
%TO.N,unconnected-(SW13-PadC)*%
X171500000Y-54250000D03*
D18*
%TO.P,SW13,MP*%
%TO.N,N/C*%
X165900000Y-46750000D03*
X177100000Y-46750000D03*
D17*
%TO.P,SW13,S1*%
X174000000Y-39750000D03*
%TO.P,SW13,S2*%
X169000000Y-39750000D03*
%TD*%
D10*
%TO.P,SW11,1,1*%
%TO.N,/COL1*%
X173617431Y-78794908D03*
%TO.P,SW11,2,2*%
%TO.N,Net-(D11-A)*%
X167267431Y-81334908D03*
%TD*%
%TO.P,SW7,1,1*%
%TO.N,/COL0*%
X154560000Y-59760000D03*
%TO.P,SW7,2,2*%
%TO.N,Net-(D7-A)*%
X148210000Y-62300000D03*
%TD*%
%TO.P,SW6,1,1*%
%TO.N,/COL2*%
X135450000Y-97850000D03*
%TO.P,SW6,2,2*%
%TO.N,Net-(D6-A)*%
X129100000Y-100390000D03*
%TD*%
%TO.P,SW1,1,1*%
%TO.N,/COL0*%
X116460000Y-59780000D03*
%TO.P,SW1,2,2*%
%TO.N,Net-(D1-A)*%
X110110000Y-62320000D03*
%TD*%
D19*
%TO.N,/D3*%
X105361350Y-59020000D03*
X105330000Y-59020000D03*
%TD*%
D20*
%TO.N,/COL0*%
X116481441Y-59758559D02*
X116460000Y-59780000D01*
X173602737Y-59758559D02*
X116481441Y-59758559D01*
X112330000Y-59780000D02*
X107370000Y-54820000D01*
X116460000Y-59780000D02*
X112330000Y-59780000D01*
X116510000Y-59830000D02*
X116460000Y-59780000D01*
%TO.N,/COL1*%
X173617431Y-78794908D02*
X116470142Y-78794908D01*
X110240000Y-78830000D02*
X104000000Y-72590000D01*
X104000000Y-54374240D02*
X104943240Y-53431000D01*
X109040000Y-54820000D02*
X122620000Y-54820000D01*
X104943240Y-53431000D02*
X107651000Y-53431000D01*
X107651000Y-53431000D02*
X109040000Y-54820000D01*
X116470142Y-78794908D02*
X116441412Y-78823638D01*
X116441412Y-78823638D02*
X116435050Y-78830000D01*
X116435050Y-78830000D02*
X110240000Y-78830000D01*
X104000000Y-72590000D02*
X104000000Y-54374240D01*
%TO.N,/COL2*%
X126778000Y-54630000D02*
X124428000Y-52280000D01*
X103000000Y-44966000D02*
X104686000Y-43280000D01*
X175349000Y-55023900D02*
X174122900Y-56250000D01*
X161832000Y-44054000D02*
X163221760Y-44054000D01*
X173532616Y-97884537D02*
X116439911Y-97884537D01*
X124428000Y-52280000D02*
X122620000Y-52280000D01*
X116439911Y-97884537D02*
X116438861Y-97883487D01*
X174122900Y-56250000D02*
X167650000Y-56250000D01*
X163221760Y-44054000D02*
X163896000Y-44728240D01*
X162390000Y-51700000D02*
X163180000Y-51700000D01*
X163221760Y-49134000D02*
X162268240Y-49134000D01*
X161594000Y-50904000D02*
X162390000Y-51700000D01*
X103000000Y-88000000D02*
X103000000Y-87840000D01*
X162268240Y-49134000D02*
X161594000Y-49808240D01*
X173168900Y-50686000D02*
X175349000Y-52866100D01*
X103000000Y-87840000D02*
X103000000Y-44966000D01*
X116412348Y-97910000D02*
X104750000Y-97910000D01*
X103000000Y-96160000D02*
X103000000Y-87840000D01*
X167650000Y-56250000D02*
X167575000Y-56175000D01*
X161594000Y-49808240D02*
X161594000Y-50904000D01*
X163180000Y-51700000D02*
X164194000Y-50686000D01*
X163896000Y-44728240D02*
X163896000Y-48459760D01*
X166030000Y-54630000D02*
X126778000Y-54630000D01*
X164194000Y-50686000D02*
X173168900Y-50686000D01*
X167699000Y-56250000D02*
X167650000Y-56250000D01*
X175349000Y-52866100D02*
X175349000Y-55023900D01*
X116438861Y-97883487D02*
X116412348Y-97910000D01*
X167575000Y-56175000D02*
X166030000Y-54630000D01*
X104686000Y-43280000D02*
X161058000Y-43280000D01*
X163896000Y-48459760D02*
X163221760Y-49134000D01*
X161058000Y-43280000D02*
X161832000Y-44054000D01*
X104750000Y-97910000D02*
X103000000Y-96160000D01*
%TO.N,/D5 (SCL)*%
X104943240Y-46049000D02*
X161049000Y-46049000D01*
X106332240Y-52280000D02*
X104269000Y-50216760D01*
X104269000Y-50216760D02*
X104269000Y-46723240D01*
X104269000Y-46723240D02*
X104943240Y-46049000D01*
X161049000Y-46049000D02*
X162745000Y-47745000D01*
X107370000Y-52280000D02*
X106332240Y-52280000D01*
%TO.N,+3V3*%
X123165000Y-45205000D02*
X122620000Y-44660000D01*
X162745000Y-45205000D02*
X123165000Y-45205000D01*
%TO.N,/D9*%
X128068760Y-52949000D02*
X124859760Y-49740000D01*
X172699000Y-52949000D02*
X128068760Y-52949000D01*
X124859760Y-49740000D02*
X122620000Y-49740000D01*
X174000000Y-54250000D02*
X172699000Y-52949000D01*
%TO.N,/D4 (SDA)*%
X125150900Y-53570000D02*
X126611900Y-55031000D01*
X167483900Y-56651000D02*
X174289000Y-56651000D01*
X174289000Y-56651000D02*
X175750000Y-55190000D01*
X107370000Y-49740000D02*
X111200000Y-53570000D01*
X175750000Y-55190000D02*
X175750000Y-52700000D01*
X111200000Y-53570000D02*
X125150900Y-53570000D01*
X165863900Y-55031000D02*
X167483900Y-56651000D01*
X126611900Y-55031000D02*
X165863900Y-55031000D01*
X175750000Y-52700000D02*
X173335000Y-50285000D01*
X173335000Y-50285000D02*
X162745000Y-50285000D01*
%TO.N,/D10*%
X169000000Y-54250000D02*
X168010000Y-54250000D01*
X122010000Y-51030000D02*
X121420000Y-50440000D01*
X127902660Y-53350000D02*
X125582660Y-51030000D01*
X168010000Y-54250000D02*
X167110000Y-53350000D01*
X121420000Y-50440000D02*
X121420000Y-48400000D01*
X167110000Y-53350000D02*
X127902660Y-53350000D01*
X125582660Y-51030000D02*
X122010000Y-51030000D01*
X121420000Y-48400000D02*
X122620000Y-47200000D01*
%TD*%
%TA.AperFunction,Conductor*%
%TO.N,GND*%
G36*
X180942539Y-37060185D02*
G01*
X180988294Y-37112989D01*
X180999500Y-37164500D01*
X180999500Y-112365500D01*
X180979815Y-112432539D01*
X180927011Y-112478294D01*
X180875500Y-112489500D01*
X102377756Y-112489500D01*
X102310717Y-112469815D01*
X102264962Y-112417011D01*
X102253763Y-112366782D01*
X102180201Y-105251729D01*
X102155647Y-102876876D01*
X107718361Y-102876876D01*
X107718361Y-103050097D01*
X107740154Y-103187697D01*
X107745459Y-103221188D01*
X107798988Y-103385932D01*
X107877629Y-103540275D01*
X107979447Y-103680415D01*
X108101933Y-103802901D01*
X108242073Y-103904719D01*
X108396416Y-103983360D01*
X108561160Y-104036889D01*
X108732250Y-104063987D01*
X108732251Y-104063987D01*
X108905471Y-104063987D01*
X108905472Y-104063987D01*
X109076562Y-104036889D01*
X109241306Y-103983360D01*
X109395649Y-103904719D01*
X109535789Y-103802901D01*
X109658275Y-103680415D01*
X109760093Y-103540275D01*
X109838734Y-103385932D01*
X109892263Y-103221188D01*
X109919361Y-103050098D01*
X109919361Y-102876876D01*
X109909715Y-102815973D01*
X111648361Y-102815973D01*
X111648361Y-103111000D01*
X111680149Y-103352445D01*
X111686868Y-103403480D01*
X111761354Y-103681466D01*
X111763222Y-103688438D01*
X111763225Y-103688448D01*
X111876115Y-103960987D01*
X111876119Y-103960997D01*
X112023622Y-104216480D01*
X112203213Y-104450527D01*
X112203219Y-104450534D01*
X112411813Y-104659128D01*
X112411820Y-104659134D01*
X112645867Y-104838725D01*
X112901350Y-104986228D01*
X112901351Y-104986228D01*
X112901354Y-104986230D01*
X113173909Y-105099126D01*
X113458868Y-105175480D01*
X113737276Y-105212133D01*
X113745536Y-105213221D01*
X113751355Y-105213987D01*
X113751362Y-105213987D01*
X114046360Y-105213987D01*
X114046367Y-105213987D01*
X114338854Y-105175480D01*
X114623813Y-105099126D01*
X114896368Y-104986230D01*
X115151855Y-104838725D01*
X115385903Y-104659133D01*
X115594507Y-104450529D01*
X115774099Y-104216481D01*
X115921604Y-103960994D01*
X116034500Y-103688439D01*
X116110854Y-103403480D01*
X116149361Y-103110993D01*
X116149361Y-102876876D01*
X117878361Y-102876876D01*
X117878361Y-103050097D01*
X117900154Y-103187697D01*
X117905459Y-103221188D01*
X117958988Y-103385932D01*
X118037629Y-103540275D01*
X118139447Y-103680415D01*
X118261933Y-103802901D01*
X118402073Y-103904719D01*
X118556416Y-103983360D01*
X118721160Y-104036889D01*
X118892250Y-104063987D01*
X118892251Y-104063987D01*
X119065471Y-104063987D01*
X119065472Y-104063987D01*
X119236562Y-104036889D01*
X119401306Y-103983360D01*
X119555649Y-103904719D01*
X119695789Y-103802901D01*
X119818275Y-103680415D01*
X119920093Y-103540275D01*
X119998734Y-103385932D01*
X120052263Y-103221188D01*
X120079361Y-103050098D01*
X120079361Y-102876876D01*
X120074057Y-102843389D01*
X126729500Y-102843389D01*
X126729500Y-103016610D01*
X126750427Y-103148743D01*
X126756598Y-103187701D01*
X126810127Y-103352445D01*
X126888768Y-103506788D01*
X126990586Y-103646928D01*
X127113072Y-103769414D01*
X127253212Y-103871232D01*
X127407555Y-103949873D01*
X127572299Y-104003402D01*
X127743389Y-104030500D01*
X127743390Y-104030500D01*
X127916610Y-104030500D01*
X127916611Y-104030500D01*
X128087701Y-104003402D01*
X128252445Y-103949873D01*
X128406788Y-103871232D01*
X128546928Y-103769414D01*
X128669414Y-103646928D01*
X128771232Y-103506788D01*
X128849873Y-103352445D01*
X128903402Y-103187701D01*
X128930500Y-103016611D01*
X128930500Y-102843389D01*
X128920854Y-102782486D01*
X130659500Y-102782486D01*
X130659500Y-103077513D01*
X130683385Y-103258927D01*
X130698007Y-103369993D01*
X130772212Y-103646930D01*
X130774361Y-103654951D01*
X130774364Y-103654961D01*
X130887254Y-103927500D01*
X130887258Y-103927510D01*
X131034761Y-104182993D01*
X131214352Y-104417040D01*
X131214358Y-104417047D01*
X131422952Y-104625641D01*
X131422959Y-104625647D01*
X131657006Y-104805238D01*
X131912489Y-104952741D01*
X131912490Y-104952741D01*
X131912493Y-104952743D01*
X132185048Y-105065639D01*
X132470007Y-105141993D01*
X132762494Y-105180500D01*
X132762501Y-105180500D01*
X133057499Y-105180500D01*
X133057506Y-105180500D01*
X133349993Y-105141993D01*
X133634952Y-105065639D01*
X133907507Y-104952743D01*
X134162994Y-104805238D01*
X134397042Y-104625646D01*
X134605646Y-104417042D01*
X134785238Y-104182994D01*
X134932743Y-103927507D01*
X135045639Y-103654952D01*
X135121993Y-103369993D01*
X135160500Y-103077506D01*
X135160500Y-102843389D01*
X136889500Y-102843389D01*
X136889500Y-103016610D01*
X136910427Y-103148743D01*
X136916598Y-103187701D01*
X136970127Y-103352445D01*
X137048768Y-103506788D01*
X137150586Y-103646928D01*
X137273072Y-103769414D01*
X137413212Y-103871232D01*
X137567555Y-103949873D01*
X137732299Y-104003402D01*
X137903389Y-104030500D01*
X137903390Y-104030500D01*
X138076610Y-104030500D01*
X138076611Y-104030500D01*
X138247701Y-104003402D01*
X138412445Y-103949873D01*
X138566788Y-103871232D01*
X138706928Y-103769414D01*
X138829414Y-103646928D01*
X138931232Y-103506788D01*
X139009873Y-103352445D01*
X139063402Y-103187701D01*
X139090500Y-103016611D01*
X139090500Y-102914619D01*
X145778270Y-102914619D01*
X145778270Y-103087840D01*
X145794085Y-103187697D01*
X145805368Y-103258931D01*
X145858897Y-103423675D01*
X145937538Y-103578018D01*
X146039356Y-103718158D01*
X146161842Y-103840644D01*
X146301982Y-103942462D01*
X146456325Y-104021103D01*
X146621069Y-104074632D01*
X146792159Y-104101730D01*
X146792160Y-104101730D01*
X146965380Y-104101730D01*
X146965381Y-104101730D01*
X147136471Y-104074632D01*
X147301215Y-104021103D01*
X147455558Y-103942462D01*
X147595698Y-103840644D01*
X147718184Y-103718158D01*
X147820002Y-103578018D01*
X147898643Y-103423675D01*
X147952172Y-103258931D01*
X147979270Y-103087841D01*
X147979270Y-102914619D01*
X147969624Y-102853716D01*
X149708270Y-102853716D01*
X149708270Y-103148743D01*
X149739498Y-103385932D01*
X149746777Y-103441223D01*
X149820982Y-103718160D01*
X149823131Y-103726181D01*
X149823134Y-103726191D01*
X149936024Y-103998730D01*
X149936028Y-103998740D01*
X150083531Y-104254223D01*
X150263122Y-104488270D01*
X150263128Y-104488277D01*
X150471722Y-104696871D01*
X150471729Y-104696877D01*
X150705776Y-104876468D01*
X150961259Y-105023971D01*
X150961260Y-105023971D01*
X150961263Y-105023973D01*
X151233818Y-105136869D01*
X151518777Y-105213223D01*
X151811264Y-105251730D01*
X151811271Y-105251730D01*
X152106269Y-105251730D01*
X152106276Y-105251730D01*
X152398763Y-105213223D01*
X152683722Y-105136869D01*
X152956277Y-105023973D01*
X153211764Y-104876468D01*
X153445812Y-104696876D01*
X153654416Y-104488272D01*
X153834008Y-104254224D01*
X153981513Y-103998737D01*
X154094409Y-103726182D01*
X154170763Y-103441223D01*
X154209270Y-103148736D01*
X154209270Y-102914619D01*
X155938270Y-102914619D01*
X155938270Y-103087840D01*
X155954085Y-103187697D01*
X155965368Y-103258931D01*
X156018897Y-103423675D01*
X156097538Y-103578018D01*
X156199356Y-103718158D01*
X156321842Y-103840644D01*
X156461982Y-103942462D01*
X156616325Y-104021103D01*
X156781069Y-104074632D01*
X156952159Y-104101730D01*
X156952160Y-104101730D01*
X157125380Y-104101730D01*
X157125381Y-104101730D01*
X157296471Y-104074632D01*
X157461215Y-104021103D01*
X157615558Y-103942462D01*
X157755698Y-103840644D01*
X157878184Y-103718158D01*
X157980002Y-103578018D01*
X158058643Y-103423675D01*
X158112172Y-103258931D01*
X158139270Y-103087841D01*
X158139270Y-102914619D01*
X158133458Y-102877926D01*
X164812116Y-102877926D01*
X164812116Y-103051147D01*
X164839047Y-103221188D01*
X164839214Y-103222238D01*
X164892743Y-103386982D01*
X164971384Y-103541325D01*
X165073202Y-103681465D01*
X165195688Y-103803951D01*
X165335828Y-103905769D01*
X165490171Y-103984410D01*
X165654915Y-104037939D01*
X165826005Y-104065037D01*
X165826006Y-104065037D01*
X165999226Y-104065037D01*
X165999227Y-104065037D01*
X166170317Y-104037939D01*
X166335061Y-103984410D01*
X166489404Y-103905769D01*
X166629544Y-103803951D01*
X166752030Y-103681465D01*
X166853848Y-103541325D01*
X166932489Y-103386982D01*
X166986018Y-103222238D01*
X167013116Y-103051148D01*
X167013116Y-102877926D01*
X167003470Y-102817023D01*
X168742116Y-102817023D01*
X168742116Y-103112050D01*
X168761454Y-103258931D01*
X168780623Y-103404530D01*
X168856696Y-103688439D01*
X168856977Y-103689488D01*
X168856980Y-103689498D01*
X168969870Y-103962037D01*
X168969874Y-103962047D01*
X169117377Y-104217530D01*
X169296968Y-104451577D01*
X169296974Y-104451584D01*
X169505568Y-104660178D01*
X169505575Y-104660184D01*
X169739622Y-104839775D01*
X169995105Y-104987278D01*
X169995106Y-104987278D01*
X169995109Y-104987280D01*
X170083694Y-105023973D01*
X170265126Y-105099125D01*
X170267664Y-105100176D01*
X170552623Y-105176530D01*
X170831031Y-105213183D01*
X170837134Y-105213987D01*
X170845110Y-105215037D01*
X170845117Y-105215037D01*
X171140115Y-105215037D01*
X171140122Y-105215037D01*
X171432609Y-105176530D01*
X171717568Y-105100176D01*
X171990123Y-104987280D01*
X172245610Y-104839775D01*
X172479658Y-104660183D01*
X172688262Y-104451579D01*
X172867854Y-104217531D01*
X173015359Y-103962044D01*
X173128255Y-103689489D01*
X173204609Y-103404530D01*
X173243116Y-103112043D01*
X173243116Y-102877926D01*
X174972116Y-102877926D01*
X174972116Y-103051147D01*
X174999047Y-103221188D01*
X174999214Y-103222238D01*
X175052743Y-103386982D01*
X175131384Y-103541325D01*
X175233202Y-103681465D01*
X175355688Y-103803951D01*
X175495828Y-103905769D01*
X175650171Y-103984410D01*
X175814915Y-104037939D01*
X175986005Y-104065037D01*
X175986006Y-104065037D01*
X176159226Y-104065037D01*
X176159227Y-104065037D01*
X176330317Y-104037939D01*
X176495061Y-103984410D01*
X176649404Y-103905769D01*
X176789544Y-103803951D01*
X176912030Y-103681465D01*
X177013848Y-103541325D01*
X177092489Y-103386982D01*
X177146018Y-103222238D01*
X177173116Y-103051148D01*
X177173116Y-102877926D01*
X177146018Y-102706836D01*
X177092489Y-102542092D01*
X177013848Y-102387749D01*
X176912030Y-102247609D01*
X176789544Y-102125123D01*
X176649404Y-102023305D01*
X176495061Y-101944664D01*
X176330317Y-101891135D01*
X176330315Y-101891134D01*
X176330314Y-101891134D01*
X176196661Y-101869966D01*
X176159227Y-101864037D01*
X175986005Y-101864037D01*
X175948571Y-101869966D01*
X175814918Y-101891134D01*
X175758689Y-101909404D01*
X175653400Y-101943615D01*
X175650168Y-101944665D01*
X175495827Y-102023305D01*
X175440350Y-102063612D01*
X175355688Y-102125123D01*
X175355686Y-102125125D01*
X175355685Y-102125125D01*
X175233204Y-102247606D01*
X175233204Y-102247607D01*
X175233202Y-102247609D01*
X175206543Y-102284302D01*
X175131384Y-102387748D01*
X175052744Y-102542089D01*
X174999213Y-102706839D01*
X174972116Y-102877926D01*
X173243116Y-102877926D01*
X173243116Y-102817031D01*
X173204609Y-102524544D01*
X173128255Y-102239585D01*
X173125266Y-102232370D01*
X173066538Y-102090588D01*
X173015359Y-101967030D01*
X173014756Y-101965986D01*
X172867854Y-101711543D01*
X172688263Y-101477496D01*
X172688257Y-101477489D01*
X172479663Y-101268895D01*
X172479656Y-101268889D01*
X172245609Y-101089298D01*
X171990126Y-100941795D01*
X171990116Y-100941791D01*
X171717577Y-100828901D01*
X171717570Y-100828899D01*
X171717568Y-100828898D01*
X171432609Y-100752544D01*
X171383729Y-100746108D01*
X171140129Y-100714037D01*
X171140122Y-100714037D01*
X170845110Y-100714037D01*
X170845102Y-100714037D01*
X170566701Y-100750690D01*
X170552623Y-100752544D01*
X170396559Y-100794361D01*
X170267664Y-100828898D01*
X170267654Y-100828901D01*
X169995115Y-100941791D01*
X169995105Y-100941795D01*
X169739622Y-101089298D01*
X169505575Y-101268889D01*
X169505568Y-101268895D01*
X169296974Y-101477489D01*
X169296968Y-101477496D01*
X169117377Y-101711543D01*
X168969874Y-101967026D01*
X168969870Y-101967036D01*
X168856980Y-102239575D01*
X168856977Y-102239585D01*
X168780905Y-102523494D01*
X168780624Y-102524541D01*
X168780622Y-102524552D01*
X168742116Y-102817023D01*
X167003470Y-102817023D01*
X166986018Y-102706836D01*
X166932489Y-102542092D01*
X166853848Y-102387749D01*
X166752030Y-102247609D01*
X166700098Y-102195677D01*
X166666613Y-102134354D01*
X166671597Y-102064662D01*
X166713469Y-102008729D01*
X166778933Y-101984312D01*
X166807177Y-101985523D01*
X166807828Y-101985626D01*
X166807831Y-101985627D01*
X167056654Y-102025037D01*
X167056655Y-102025037D01*
X167308577Y-102025037D01*
X167308578Y-102025037D01*
X167557401Y-101985627D01*
X167796995Y-101907778D01*
X168021461Y-101793407D01*
X168225272Y-101645330D01*
X168403409Y-101467193D01*
X168551486Y-101263382D01*
X168665857Y-101038916D01*
X168743706Y-100799322D01*
X168783116Y-100550499D01*
X168783116Y-100298575D01*
X168743706Y-100049752D01*
X168665857Y-99810158D01*
X168665855Y-99810155D01*
X168665855Y-99810153D01*
X168624363Y-99728721D01*
X168551486Y-99585692D01*
X168476382Y-99482320D01*
X168403414Y-99381887D01*
X168403410Y-99381882D01*
X168225270Y-99203742D01*
X168225265Y-99203738D01*
X168021464Y-99055669D01*
X168021463Y-99055668D01*
X168021461Y-99055667D01*
X167951363Y-99019950D01*
X167796999Y-98941297D01*
X167557401Y-98863447D01*
X167540247Y-98860730D01*
X167308578Y-98824037D01*
X167056654Y-98824037D01*
X166932242Y-98843742D01*
X166807830Y-98863447D01*
X166568232Y-98941297D01*
X166343767Y-99055669D01*
X166139966Y-99203738D01*
X166139961Y-99203742D01*
X165961821Y-99381882D01*
X165961817Y-99381887D01*
X165813748Y-99585688D01*
X165699376Y-99810153D01*
X165621526Y-100049751D01*
X165615714Y-100086445D01*
X165582116Y-100298575D01*
X165582116Y-100550499D01*
X165587928Y-100587192D01*
X165621526Y-100799322D01*
X165699376Y-101038920D01*
X165743742Y-101125992D01*
X165798954Y-101234352D01*
X165813748Y-101263385D01*
X165961817Y-101467186D01*
X165961821Y-101467191D01*
X165961823Y-101467193D01*
X166139960Y-101645330D01*
X166139961Y-101645331D01*
X166139960Y-101645331D01*
X166146277Y-101649920D01*
X166188943Y-101705251D01*
X166194921Y-101774864D01*
X166162315Y-101836659D01*
X166101476Y-101871016D01*
X166053994Y-101872711D01*
X165999227Y-101864037D01*
X165826005Y-101864037D01*
X165788571Y-101869966D01*
X165654918Y-101891134D01*
X165598689Y-101909404D01*
X165493400Y-101943615D01*
X165490168Y-101944665D01*
X165335827Y-102023305D01*
X165280350Y-102063612D01*
X165195688Y-102125123D01*
X165195686Y-102125125D01*
X165195685Y-102125125D01*
X165073204Y-102247606D01*
X165073204Y-102247607D01*
X165073202Y-102247609D01*
X165046543Y-102284302D01*
X164971384Y-102387748D01*
X164892744Y-102542089D01*
X164839213Y-102706839D01*
X164812116Y-102877926D01*
X158133458Y-102877926D01*
X158112172Y-102743529D01*
X158058643Y-102578785D01*
X157980002Y-102424442D01*
X157878184Y-102284302D01*
X157755698Y-102161816D01*
X157615558Y-102059998D01*
X157461215Y-101981357D01*
X157296471Y-101927828D01*
X157296469Y-101927827D01*
X157296468Y-101927827D01*
X157163238Y-101906726D01*
X157125381Y-101900730D01*
X156952159Y-101900730D01*
X156914302Y-101906726D01*
X156781072Y-101927827D01*
X156698697Y-101954592D01*
X156663663Y-101965976D01*
X156616322Y-101981358D01*
X156461981Y-102059998D01*
X156407176Y-102099817D01*
X156321842Y-102161816D01*
X156321840Y-102161818D01*
X156321839Y-102161818D01*
X156199358Y-102284299D01*
X156199358Y-102284300D01*
X156199356Y-102284302D01*
X156155629Y-102344486D01*
X156097538Y-102424441D01*
X156018898Y-102578782D01*
X155965367Y-102743532D01*
X155938270Y-102914619D01*
X154209270Y-102914619D01*
X154209270Y-102853724D01*
X154170763Y-102561237D01*
X154094409Y-102276278D01*
X153981513Y-102003723D01*
X153971065Y-101985627D01*
X153834008Y-101748236D01*
X153654417Y-101514189D01*
X153654411Y-101514182D01*
X153445817Y-101305588D01*
X153445810Y-101305582D01*
X153211763Y-101125991D01*
X152956280Y-100978488D01*
X152956270Y-100978484D01*
X152683731Y-100865594D01*
X152683724Y-100865592D01*
X152683722Y-100865591D01*
X152398763Y-100789237D01*
X152349883Y-100782801D01*
X152106283Y-100750730D01*
X152106276Y-100750730D01*
X151811264Y-100750730D01*
X151811256Y-100750730D01*
X151532855Y-100787383D01*
X151518777Y-100789237D01*
X151374678Y-100827848D01*
X151233818Y-100865591D01*
X151233808Y-100865594D01*
X150961269Y-100978484D01*
X150961259Y-100978488D01*
X150705776Y-101125991D01*
X150471729Y-101305582D01*
X150471722Y-101305588D01*
X150263128Y-101514182D01*
X150263122Y-101514189D01*
X150083531Y-101748236D01*
X149936028Y-102003719D01*
X149936024Y-102003729D01*
X149823134Y-102276268D01*
X149823131Y-102276278D01*
X149746778Y-102561234D01*
X149746776Y-102561245D01*
X149708270Y-102853716D01*
X147969624Y-102853716D01*
X147952172Y-102743529D01*
X147898643Y-102578785D01*
X147820002Y-102424442D01*
X147718184Y-102284302D01*
X147666252Y-102232370D01*
X147632767Y-102171047D01*
X147637751Y-102101355D01*
X147679623Y-102045422D01*
X147745087Y-102021005D01*
X147773331Y-102022216D01*
X147773982Y-102022319D01*
X147773985Y-102022320D01*
X148022808Y-102061730D01*
X148022809Y-102061730D01*
X148274731Y-102061730D01*
X148274732Y-102061730D01*
X148523555Y-102022320D01*
X148763149Y-101944471D01*
X148987615Y-101830100D01*
X149191426Y-101682023D01*
X149369563Y-101503886D01*
X149517640Y-101300075D01*
X149632011Y-101075609D01*
X149709860Y-100836015D01*
X149749270Y-100587192D01*
X149749270Y-100335268D01*
X149709860Y-100086445D01*
X149632011Y-99846851D01*
X149632009Y-99846848D01*
X149632009Y-99846846D01*
X149590517Y-99765414D01*
X149517640Y-99622385D01*
X149417851Y-99485037D01*
X149369568Y-99418580D01*
X149369564Y-99418575D01*
X149191424Y-99240435D01*
X149191419Y-99240431D01*
X148987618Y-99092362D01*
X148987617Y-99092361D01*
X148987615Y-99092360D01*
X148913540Y-99054617D01*
X148763153Y-98977990D01*
X148523555Y-98900140D01*
X148476303Y-98892656D01*
X148274732Y-98860730D01*
X148022808Y-98860730D01*
X147898396Y-98880435D01*
X147773984Y-98900140D01*
X147534386Y-98977990D01*
X147309921Y-99092362D01*
X147106120Y-99240431D01*
X147106115Y-99240435D01*
X146927975Y-99418575D01*
X146927971Y-99418580D01*
X146779902Y-99622381D01*
X146665530Y-99846846D01*
X146599602Y-100049752D01*
X146587680Y-100086445D01*
X146548270Y-100335268D01*
X146548270Y-100587192D01*
X146568989Y-100718006D01*
X146587680Y-100836015D01*
X146665530Y-101075613D01*
X146691200Y-101125992D01*
X146746412Y-101234352D01*
X146779902Y-101300078D01*
X146927971Y-101503879D01*
X146927975Y-101503884D01*
X146927977Y-101503886D01*
X147106114Y-101682023D01*
X147106115Y-101682024D01*
X147106114Y-101682024D01*
X147112431Y-101686613D01*
X147155097Y-101741944D01*
X147161075Y-101811557D01*
X147128469Y-101873352D01*
X147067630Y-101907709D01*
X147020148Y-101909404D01*
X146965381Y-101900730D01*
X146792159Y-101900730D01*
X146754302Y-101906726D01*
X146621072Y-101927827D01*
X146538697Y-101954592D01*
X146503663Y-101965976D01*
X146456322Y-101981358D01*
X146301981Y-102059998D01*
X146247176Y-102099817D01*
X146161842Y-102161816D01*
X146161840Y-102161818D01*
X146161839Y-102161818D01*
X146039358Y-102284299D01*
X146039358Y-102284300D01*
X146039356Y-102284302D01*
X145995629Y-102344486D01*
X145937538Y-102424441D01*
X145858898Y-102578782D01*
X145805367Y-102743532D01*
X145778270Y-102914619D01*
X139090500Y-102914619D01*
X139090500Y-102843389D01*
X139063402Y-102672299D01*
X139009873Y-102507555D01*
X138931232Y-102353212D01*
X138829414Y-102213072D01*
X138706928Y-102090586D01*
X138566788Y-101988768D01*
X138480228Y-101944664D01*
X138412447Y-101910128D01*
X138412446Y-101910127D01*
X138412445Y-101910127D01*
X138247701Y-101856598D01*
X138247699Y-101856597D01*
X138247698Y-101856597D01*
X138115182Y-101835609D01*
X138076611Y-101829500D01*
X137903389Y-101829500D01*
X137864818Y-101835609D01*
X137732302Y-101856597D01*
X137567552Y-101910128D01*
X137413211Y-101988768D01*
X137365676Y-102023305D01*
X137273072Y-102090586D01*
X137273070Y-102090588D01*
X137273069Y-102090588D01*
X137150588Y-102213069D01*
X137150588Y-102213070D01*
X137150586Y-102213072D01*
X137106859Y-102273256D01*
X137048768Y-102353211D01*
X136970128Y-102507552D01*
X136970127Y-102507554D01*
X136970127Y-102507555D01*
X136952685Y-102561237D01*
X136916597Y-102672302D01*
X136889500Y-102843389D01*
X135160500Y-102843389D01*
X135160500Y-102782494D01*
X135121993Y-102490007D01*
X135045639Y-102205048D01*
X135041757Y-102195677D01*
X134979520Y-102045422D01*
X134932743Y-101932493D01*
X134917866Y-101906726D01*
X134785238Y-101677006D01*
X134605647Y-101442959D01*
X134605641Y-101442952D01*
X134397047Y-101234358D01*
X134397040Y-101234352D01*
X134162993Y-101054761D01*
X133907510Y-100907258D01*
X133907500Y-100907254D01*
X133634961Y-100794364D01*
X133634954Y-100794362D01*
X133634952Y-100794361D01*
X133349993Y-100718007D01*
X133301113Y-100711571D01*
X133057513Y-100679500D01*
X133057506Y-100679500D01*
X132762494Y-100679500D01*
X132762486Y-100679500D01*
X132484085Y-100716153D01*
X132470007Y-100718007D01*
X132341109Y-100752545D01*
X132185048Y-100794361D01*
X132185038Y-100794364D01*
X131912499Y-100907254D01*
X131912489Y-100907258D01*
X131657006Y-101054761D01*
X131422959Y-101234352D01*
X131422952Y-101234358D01*
X131214358Y-101442952D01*
X131214352Y-101442959D01*
X131034761Y-101677006D01*
X130887258Y-101932489D01*
X130887254Y-101932499D01*
X130774364Y-102205038D01*
X130774361Y-102205048D01*
X130698008Y-102490004D01*
X130698006Y-102490015D01*
X130659500Y-102782486D01*
X128920854Y-102782486D01*
X128903402Y-102672299D01*
X128849873Y-102507555D01*
X128771232Y-102353212D01*
X128669414Y-102213072D01*
X128617482Y-102161140D01*
X128583997Y-102099817D01*
X128588981Y-102030125D01*
X128630853Y-101974192D01*
X128696317Y-101949775D01*
X128724561Y-101950986D01*
X128725212Y-101951089D01*
X128725215Y-101951090D01*
X128974038Y-101990500D01*
X128974039Y-101990500D01*
X129225961Y-101990500D01*
X129225962Y-101990500D01*
X129474785Y-101951090D01*
X129714379Y-101873241D01*
X129938845Y-101758870D01*
X130142656Y-101610793D01*
X130320793Y-101432656D01*
X130468870Y-101228845D01*
X130583241Y-101004379D01*
X130661090Y-100764785D01*
X130700500Y-100515962D01*
X130700500Y-100264038D01*
X130661090Y-100015215D01*
X130583241Y-99775621D01*
X130583239Y-99775618D01*
X130583239Y-99775616D01*
X130485930Y-99584638D01*
X130468870Y-99551155D01*
X130372549Y-99418580D01*
X130320798Y-99347350D01*
X130320794Y-99347345D01*
X130142654Y-99169205D01*
X130142649Y-99169201D01*
X129938848Y-99021132D01*
X129938847Y-99021131D01*
X129938845Y-99021130D01*
X129854176Y-98977989D01*
X129714383Y-98906760D01*
X129474785Y-98828910D01*
X129437389Y-98822987D01*
X129225962Y-98789500D01*
X128974038Y-98789500D01*
X128849626Y-98809205D01*
X128725214Y-98828910D01*
X128485616Y-98906760D01*
X128261151Y-99021132D01*
X128057350Y-99169201D01*
X128057345Y-99169205D01*
X127879205Y-99347345D01*
X127879201Y-99347350D01*
X127731132Y-99551151D01*
X127616760Y-99775616D01*
X127538910Y-100015214D01*
X127499500Y-100264038D01*
X127499500Y-100515961D01*
X127538910Y-100764785D01*
X127616760Y-101004383D01*
X127731132Y-101228848D01*
X127879201Y-101432649D01*
X127879205Y-101432654D01*
X127879207Y-101432656D01*
X128057344Y-101610793D01*
X128057345Y-101610794D01*
X128057344Y-101610794D01*
X128063661Y-101615383D01*
X128106327Y-101670714D01*
X128112305Y-101740327D01*
X128079699Y-101802122D01*
X128018860Y-101836479D01*
X127971378Y-101838174D01*
X127916611Y-101829500D01*
X127743389Y-101829500D01*
X127704818Y-101835609D01*
X127572302Y-101856597D01*
X127407552Y-101910128D01*
X127253211Y-101988768D01*
X127205676Y-102023305D01*
X127113072Y-102090586D01*
X127113070Y-102090588D01*
X127113069Y-102090588D01*
X126990588Y-102213069D01*
X126990588Y-102213070D01*
X126990586Y-102213072D01*
X126946859Y-102273256D01*
X126888768Y-102353211D01*
X126810128Y-102507552D01*
X126810127Y-102507554D01*
X126810127Y-102507555D01*
X126792685Y-102561237D01*
X126756597Y-102672302D01*
X126729500Y-102843389D01*
X120074057Y-102843389D01*
X120052263Y-102705786D01*
X119998734Y-102541042D01*
X119920093Y-102386699D01*
X119818275Y-102246559D01*
X119695789Y-102124073D01*
X119555649Y-102022255D01*
X119553196Y-102021005D01*
X119401308Y-101943615D01*
X119401307Y-101943614D01*
X119401306Y-101943614D01*
X119236562Y-101890085D01*
X119236560Y-101890084D01*
X119236559Y-101890084D01*
X119072101Y-101864037D01*
X119065472Y-101862987D01*
X118892250Y-101862987D01*
X118885621Y-101864037D01*
X118721163Y-101890084D01*
X118556413Y-101943615D01*
X118402072Y-102022255D01*
X118370186Y-102045422D01*
X118261933Y-102124073D01*
X118261931Y-102124075D01*
X118261930Y-102124075D01*
X118139449Y-102246556D01*
X118139449Y-102246557D01*
X118139447Y-102246559D01*
X118112025Y-102284302D01*
X118037629Y-102386698D01*
X117958989Y-102541039D01*
X117905458Y-102705789D01*
X117878361Y-102876876D01*
X116149361Y-102876876D01*
X116149361Y-102815981D01*
X116110854Y-102523494D01*
X116034500Y-102238535D01*
X116031946Y-102232370D01*
X115973218Y-102090588D01*
X115921604Y-101965980D01*
X115913007Y-101951090D01*
X115774099Y-101710493D01*
X115594508Y-101476446D01*
X115594502Y-101476439D01*
X115385908Y-101267845D01*
X115385901Y-101267839D01*
X115151854Y-101088248D01*
X114896371Y-100940745D01*
X114896361Y-100940741D01*
X114623822Y-100827851D01*
X114623815Y-100827849D01*
X114623813Y-100827848D01*
X114338854Y-100751494D01*
X114289974Y-100745058D01*
X114046374Y-100712987D01*
X114046367Y-100712987D01*
X113751355Y-100712987D01*
X113751347Y-100712987D01*
X113472946Y-100749640D01*
X113458868Y-100751494D01*
X113298885Y-100794361D01*
X113173909Y-100827848D01*
X113173899Y-100827851D01*
X112901360Y-100940741D01*
X112901350Y-100940745D01*
X112645867Y-101088248D01*
X112411820Y-101267839D01*
X112411813Y-101267845D01*
X112203219Y-101476439D01*
X112203213Y-101476446D01*
X112023622Y-101710493D01*
X111876119Y-101965976D01*
X111876115Y-101965986D01*
X111763225Y-102238525D01*
X111763222Y-102238535D01*
X111686869Y-102523491D01*
X111686867Y-102523502D01*
X111648361Y-102815973D01*
X109909715Y-102815973D01*
X109892263Y-102705786D01*
X109838734Y-102541042D01*
X109760093Y-102386699D01*
X109658275Y-102246559D01*
X109606343Y-102194627D01*
X109572858Y-102133304D01*
X109577842Y-102063612D01*
X109619714Y-102007679D01*
X109685178Y-101983262D01*
X109713422Y-101984473D01*
X109714073Y-101984576D01*
X109714076Y-101984577D01*
X109962899Y-102023987D01*
X109962900Y-102023987D01*
X110214822Y-102023987D01*
X110214823Y-102023987D01*
X110463646Y-101984577D01*
X110703240Y-101906728D01*
X110927706Y-101792357D01*
X111131517Y-101644280D01*
X111309654Y-101466143D01*
X111457731Y-101262332D01*
X111572102Y-101037866D01*
X111649951Y-100798272D01*
X111689361Y-100549449D01*
X111689361Y-100297525D01*
X111649951Y-100048702D01*
X111572102Y-99809108D01*
X111572100Y-99809105D01*
X111572100Y-99809103D01*
X111530608Y-99727671D01*
X111457731Y-99584642D01*
X111383389Y-99482319D01*
X111309659Y-99380837D01*
X111309655Y-99380832D01*
X111131515Y-99202692D01*
X111131510Y-99202688D01*
X110927709Y-99054619D01*
X110927708Y-99054618D01*
X110927706Y-99054617D01*
X110857608Y-99018900D01*
X110703244Y-98940247D01*
X110463646Y-98862397D01*
X110453121Y-98860730D01*
X110214823Y-98822987D01*
X109962899Y-98822987D01*
X109838487Y-98842692D01*
X109714075Y-98862397D01*
X109474477Y-98940247D01*
X109250012Y-99054619D01*
X109046211Y-99202688D01*
X109046206Y-99202692D01*
X108868066Y-99380832D01*
X108868062Y-99380837D01*
X108719993Y-99584638D01*
X108605621Y-99809103D01*
X108527771Y-100048701D01*
X108527771Y-100048702D01*
X108488361Y-100297525D01*
X108488361Y-100549449D01*
X108522467Y-100764785D01*
X108527771Y-100798272D01*
X108605621Y-101037870D01*
X108650522Y-101125992D01*
X108705734Y-101234352D01*
X108719993Y-101262335D01*
X108868062Y-101466136D01*
X108868066Y-101466141D01*
X108868068Y-101466143D01*
X109046205Y-101644280D01*
X109046206Y-101644281D01*
X109046205Y-101644281D01*
X109052522Y-101648870D01*
X109095188Y-101704201D01*
X109101166Y-101773814D01*
X109068560Y-101835609D01*
X109007721Y-101869966D01*
X108960239Y-101871661D01*
X108905472Y-101862987D01*
X108732250Y-101862987D01*
X108725621Y-101864037D01*
X108561163Y-101890084D01*
X108396413Y-101943615D01*
X108242072Y-102022255D01*
X108210186Y-102045422D01*
X108101933Y-102124073D01*
X108101931Y-102124075D01*
X108101930Y-102124075D01*
X107979449Y-102246556D01*
X107979449Y-102246557D01*
X107979447Y-102246559D01*
X107952025Y-102284302D01*
X107877629Y-102386698D01*
X107798989Y-102541039D01*
X107745458Y-102705789D01*
X107718361Y-102876876D01*
X102155647Y-102876876D01*
X102087019Y-96239054D01*
X102399498Y-96239054D01*
X102399499Y-96239057D01*
X102440423Y-96391785D01*
X102467099Y-96437989D01*
X102467099Y-96437990D01*
X102519475Y-96528709D01*
X102519481Y-96528717D01*
X102638349Y-96647585D01*
X102638354Y-96647589D01*
X104381284Y-98390520D01*
X104381286Y-98390521D01*
X104381290Y-98390524D01*
X104518209Y-98469573D01*
X104518216Y-98469577D01*
X104670943Y-98510501D01*
X104670945Y-98510501D01*
X104836654Y-98510501D01*
X104836670Y-98510500D01*
X114886070Y-98510500D01*
X114953109Y-98530185D01*
X114996553Y-98578203D01*
X115052930Y-98688848D01*
X115069993Y-98722335D01*
X115218062Y-98926136D01*
X115218066Y-98926141D01*
X115396206Y-99104281D01*
X115396211Y-99104285D01*
X115533103Y-99203742D01*
X115600016Y-99252357D01*
X115743045Y-99325234D01*
X115824477Y-99366726D01*
X115824479Y-99366726D01*
X115824482Y-99366728D01*
X116064076Y-99444577D01*
X116312899Y-99483987D01*
X116312900Y-99483987D01*
X116564822Y-99483987D01*
X116564823Y-99483987D01*
X116813646Y-99444577D01*
X117053240Y-99366728D01*
X117277706Y-99252357D01*
X117481517Y-99104280D01*
X117659654Y-98926143D01*
X117807731Y-98722332D01*
X117894141Y-98552741D01*
X117942115Y-98501946D01*
X118004626Y-98485037D01*
X133901297Y-98485037D01*
X133968336Y-98504722D01*
X134011782Y-98552742D01*
X134081132Y-98688848D01*
X134229201Y-98892649D01*
X134229205Y-98892654D01*
X134407345Y-99070794D01*
X134407350Y-99070798D01*
X134585117Y-99199952D01*
X134611155Y-99218870D01*
X134750946Y-99290097D01*
X134835616Y-99333239D01*
X134835618Y-99333239D01*
X134835621Y-99333241D01*
X135075215Y-99411090D01*
X135324038Y-99450500D01*
X135324039Y-99450500D01*
X135575961Y-99450500D01*
X135575962Y-99450500D01*
X135824785Y-99411090D01*
X136064379Y-99333241D01*
X136288845Y-99218870D01*
X136492656Y-99070793D01*
X136670793Y-98892656D01*
X136818870Y-98688845D01*
X136888218Y-98552742D01*
X136936193Y-98501946D01*
X136998703Y-98485037D01*
X152913774Y-98485037D01*
X152980813Y-98504722D01*
X153024259Y-98552742D01*
X153129902Y-98760078D01*
X153277971Y-98963879D01*
X153277975Y-98963884D01*
X153456115Y-99142024D01*
X153456120Y-99142028D01*
X153607972Y-99252354D01*
X153659925Y-99290100D01*
X153772273Y-99347344D01*
X153884386Y-99404469D01*
X153884388Y-99404469D01*
X153884391Y-99404471D01*
X154123985Y-99482320D01*
X154372808Y-99521730D01*
X154372809Y-99521730D01*
X154624731Y-99521730D01*
X154624732Y-99521730D01*
X154873555Y-99482320D01*
X155113149Y-99404471D01*
X155337615Y-99290100D01*
X155541426Y-99142023D01*
X155719563Y-98963886D01*
X155867640Y-98760075D01*
X155973281Y-98552741D01*
X156021255Y-98501946D01*
X156083766Y-98485037D01*
X171966316Y-98485037D01*
X172033355Y-98504722D01*
X172076800Y-98552741D01*
X172146150Y-98688848D01*
X172163748Y-98723385D01*
X172311817Y-98927186D01*
X172311821Y-98927191D01*
X172489961Y-99105331D01*
X172489966Y-99105335D01*
X172646231Y-99218867D01*
X172693771Y-99253407D01*
X172836800Y-99326284D01*
X172918232Y-99367776D01*
X172918234Y-99367776D01*
X172918237Y-99367778D01*
X173157831Y-99445627D01*
X173406654Y-99485037D01*
X173406655Y-99485037D01*
X173658577Y-99485037D01*
X173658578Y-99485037D01*
X173907401Y-99445627D01*
X174146995Y-99367778D01*
X174371461Y-99253407D01*
X174575272Y-99105330D01*
X174753409Y-98927193D01*
X174901486Y-98723382D01*
X175015857Y-98498916D01*
X175093706Y-98259322D01*
X175133116Y-98010499D01*
X175133116Y-97758575D01*
X175093706Y-97509752D01*
X175015857Y-97270158D01*
X175015855Y-97270155D01*
X175015855Y-97270153D01*
X174974363Y-97188721D01*
X174901486Y-97045692D01*
X174876391Y-97011151D01*
X174753414Y-96841887D01*
X174753410Y-96841882D01*
X174575270Y-96663742D01*
X174575265Y-96663738D01*
X174371464Y-96515669D01*
X174371463Y-96515668D01*
X174371461Y-96515667D01*
X174301363Y-96479950D01*
X174146999Y-96401297D01*
X173907401Y-96323447D01*
X173890247Y-96320730D01*
X173658578Y-96284037D01*
X173406654Y-96284037D01*
X173282242Y-96303742D01*
X173157830Y-96323447D01*
X172918232Y-96401297D01*
X172693767Y-96515669D01*
X172489966Y-96663738D01*
X172489961Y-96663742D01*
X172311821Y-96841882D01*
X172311817Y-96841887D01*
X172163748Y-97045688D01*
X172076801Y-97216332D01*
X172028827Y-97267128D01*
X171966316Y-97284037D01*
X156046374Y-97284037D01*
X155979335Y-97264352D01*
X155935890Y-97216333D01*
X155867640Y-97082385D01*
X155815886Y-97011151D01*
X155719568Y-96878580D01*
X155719564Y-96878575D01*
X155541424Y-96700435D01*
X155541419Y-96700431D01*
X155337618Y-96552362D01*
X155337617Y-96552361D01*
X155337615Y-96552360D01*
X155263540Y-96514617D01*
X155113153Y-96437990D01*
X154873555Y-96360140D01*
X154624732Y-96320730D01*
X154372808Y-96320730D01*
X154248396Y-96340435D01*
X154123984Y-96360140D01*
X153884386Y-96437990D01*
X153659921Y-96552362D01*
X153456120Y-96700431D01*
X153456115Y-96700435D01*
X153277975Y-96878575D01*
X153277971Y-96878580D01*
X153129902Y-97082381D01*
X153129900Y-97082385D01*
X153061649Y-97216333D01*
X153013677Y-97267128D01*
X152951166Y-97284037D01*
X137033898Y-97284037D01*
X136966859Y-97264352D01*
X136923413Y-97216332D01*
X136835930Y-97044638D01*
X136818870Y-97011155D01*
X136722549Y-96878580D01*
X136670798Y-96807350D01*
X136670794Y-96807345D01*
X136492654Y-96629205D01*
X136492649Y-96629201D01*
X136288848Y-96481132D01*
X136288847Y-96481131D01*
X136288845Y-96481130D01*
X136204174Y-96437988D01*
X136064383Y-96366760D01*
X135824785Y-96288910D01*
X135787389Y-96282987D01*
X135575962Y-96249500D01*
X135324038Y-96249500D01*
X135199626Y-96269205D01*
X135075214Y-96288910D01*
X134835616Y-96366760D01*
X134611151Y-96481132D01*
X134407350Y-96629201D01*
X134407345Y-96629205D01*
X134229205Y-96807345D01*
X134229201Y-96807350D01*
X134081132Y-97011151D01*
X133976587Y-97216332D01*
X133928612Y-97267128D01*
X133866102Y-97284037D01*
X118005696Y-97284037D01*
X117938657Y-97264352D01*
X117895211Y-97216332D01*
X117807731Y-97044642D01*
X117783398Y-97011151D01*
X117659659Y-96840837D01*
X117659655Y-96840832D01*
X117481515Y-96662692D01*
X117481510Y-96662688D01*
X117277709Y-96514619D01*
X117277708Y-96514618D01*
X117277706Y-96514617D01*
X117207608Y-96478900D01*
X117053244Y-96400247D01*
X116813646Y-96322397D01*
X116803121Y-96320730D01*
X116564823Y-96282987D01*
X116312899Y-96282987D01*
X116188487Y-96302692D01*
X116064075Y-96322397D01*
X115824477Y-96400247D01*
X115600012Y-96514619D01*
X115396211Y-96662688D01*
X115396206Y-96662692D01*
X115218066Y-96840832D01*
X115218062Y-96840837D01*
X115069993Y-97044638D01*
X115069991Y-97044642D01*
X114972683Y-97235621D01*
X114969537Y-97241795D01*
X114921563Y-97292591D01*
X114859052Y-97309500D01*
X105050098Y-97309500D01*
X104983059Y-97289815D01*
X104962417Y-97273181D01*
X103636819Y-95947583D01*
X103603334Y-95886260D01*
X103600500Y-95859902D01*
X103600500Y-83817027D01*
X107720912Y-83817027D01*
X107720912Y-83990248D01*
X107743459Y-84132609D01*
X107748010Y-84161339D01*
X107801539Y-84326083D01*
X107880180Y-84480426D01*
X107981998Y-84620566D01*
X108104484Y-84743052D01*
X108244624Y-84844870D01*
X108398967Y-84923511D01*
X108563711Y-84977040D01*
X108734801Y-85004138D01*
X108734802Y-85004138D01*
X108908022Y-85004138D01*
X108908023Y-85004138D01*
X109079113Y-84977040D01*
X109243857Y-84923511D01*
X109398200Y-84844870D01*
X109538340Y-84743052D01*
X109660826Y-84620566D01*
X109762644Y-84480426D01*
X109841285Y-84326083D01*
X109894814Y-84161339D01*
X109921912Y-83990249D01*
X109921912Y-83817027D01*
X109912266Y-83756124D01*
X111650912Y-83756124D01*
X111650912Y-84051151D01*
X111682983Y-84294751D01*
X111689419Y-84343631D01*
X111763624Y-84620568D01*
X111765773Y-84628589D01*
X111765776Y-84628599D01*
X111878666Y-84901138D01*
X111878670Y-84901148D01*
X112026173Y-85156631D01*
X112205764Y-85390678D01*
X112205770Y-85390685D01*
X112414364Y-85599279D01*
X112414371Y-85599285D01*
X112648418Y-85778876D01*
X112903901Y-85926379D01*
X112903902Y-85926379D01*
X112903905Y-85926381D01*
X113176460Y-86039277D01*
X113461419Y-86115631D01*
X113753906Y-86154138D01*
X113753913Y-86154138D01*
X114048911Y-86154138D01*
X114048918Y-86154138D01*
X114341405Y-86115631D01*
X114626364Y-86039277D01*
X114898919Y-85926381D01*
X115154406Y-85778876D01*
X115388454Y-85599284D01*
X115597058Y-85390680D01*
X115776650Y-85156632D01*
X115924155Y-84901145D01*
X116037051Y-84628590D01*
X116113405Y-84343631D01*
X116151912Y-84051144D01*
X116151912Y-83817027D01*
X117880912Y-83817027D01*
X117880912Y-83990248D01*
X117903459Y-84132609D01*
X117908010Y-84161339D01*
X117961539Y-84326083D01*
X118040180Y-84480426D01*
X118141998Y-84620566D01*
X118264484Y-84743052D01*
X118404624Y-84844870D01*
X118558967Y-84923511D01*
X118723711Y-84977040D01*
X118894801Y-85004138D01*
X118894802Y-85004138D01*
X119068022Y-85004138D01*
X119068023Y-85004138D01*
X119239113Y-84977040D01*
X119403857Y-84923511D01*
X119558200Y-84844870D01*
X119698340Y-84743052D01*
X119820826Y-84620566D01*
X119922644Y-84480426D01*
X120001285Y-84326083D01*
X120054814Y-84161339D01*
X120081912Y-83990249D01*
X120081912Y-83853389D01*
X126739500Y-83853389D01*
X126739500Y-84026611D01*
X126766598Y-84197701D01*
X126820127Y-84362445D01*
X126898768Y-84516788D01*
X127000586Y-84656928D01*
X127123072Y-84779414D01*
X127263212Y-84881232D01*
X127417555Y-84959873D01*
X127582299Y-85013402D01*
X127753389Y-85040500D01*
X127753390Y-85040500D01*
X127926610Y-85040500D01*
X127926611Y-85040500D01*
X128097701Y-85013402D01*
X128262445Y-84959873D01*
X128416788Y-84881232D01*
X128556928Y-84779414D01*
X128679414Y-84656928D01*
X128781232Y-84516788D01*
X128859873Y-84362445D01*
X128913402Y-84197701D01*
X128940500Y-84026611D01*
X128940500Y-83853389D01*
X128930854Y-83792486D01*
X130669500Y-83792486D01*
X130669500Y-84087513D01*
X130697127Y-84297353D01*
X130708007Y-84379993D01*
X130782212Y-84656930D01*
X130784361Y-84664951D01*
X130784364Y-84664961D01*
X130897254Y-84937500D01*
X130897258Y-84937510D01*
X131044761Y-85192993D01*
X131224352Y-85427040D01*
X131224358Y-85427047D01*
X131432952Y-85635641D01*
X131432959Y-85635647D01*
X131667006Y-85815238D01*
X131922489Y-85962741D01*
X131922490Y-85962741D01*
X131922493Y-85962743D01*
X132195048Y-86075639D01*
X132480007Y-86151993D01*
X132772494Y-86190500D01*
X132772501Y-86190500D01*
X133067499Y-86190500D01*
X133067506Y-86190500D01*
X133359993Y-86151993D01*
X133644952Y-86075639D01*
X133917507Y-85962743D01*
X134172994Y-85815238D01*
X134407042Y-85635646D01*
X134615646Y-85427042D01*
X134795238Y-85192994D01*
X134942743Y-84937507D01*
X135055639Y-84664952D01*
X135131993Y-84379993D01*
X135170500Y-84087506D01*
X135170500Y-83853389D01*
X136899500Y-83853389D01*
X136899500Y-84026611D01*
X136926598Y-84197701D01*
X136980127Y-84362445D01*
X137058768Y-84516788D01*
X137160586Y-84656928D01*
X137283072Y-84779414D01*
X137423212Y-84881232D01*
X137577555Y-84959873D01*
X137742299Y-85013402D01*
X137913389Y-85040500D01*
X137913390Y-85040500D01*
X138086610Y-85040500D01*
X138086611Y-85040500D01*
X138257701Y-85013402D01*
X138422445Y-84959873D01*
X138576788Y-84881232D01*
X138716928Y-84779414D01*
X138839414Y-84656928D01*
X138941232Y-84516788D01*
X139019873Y-84362445D01*
X139073402Y-84197701D01*
X139100500Y-84026611D01*
X139100500Y-83853389D01*
X139096088Y-83825533D01*
X145833533Y-83825533D01*
X145833533Y-83998754D01*
X145859283Y-84161339D01*
X145860631Y-84169845D01*
X145911396Y-84326083D01*
X145914161Y-84334591D01*
X145918767Y-84343631D01*
X145992801Y-84488932D01*
X146094619Y-84629072D01*
X146217105Y-84751558D01*
X146357245Y-84853376D01*
X146511588Y-84932017D01*
X146676332Y-84985546D01*
X146847422Y-85012644D01*
X146847423Y-85012644D01*
X147020643Y-85012644D01*
X147020644Y-85012644D01*
X147191734Y-84985546D01*
X147356478Y-84932017D01*
X147510821Y-84853376D01*
X147650961Y-84751558D01*
X147773447Y-84629072D01*
X147875265Y-84488932D01*
X147953906Y-84334589D01*
X148007435Y-84169845D01*
X148034533Y-83998755D01*
X148034533Y-83825533D01*
X148024887Y-83764630D01*
X149763533Y-83764630D01*
X149763533Y-84059657D01*
X149781707Y-84197697D01*
X149802040Y-84352137D01*
X149876245Y-84629074D01*
X149878394Y-84637095D01*
X149878397Y-84637105D01*
X149991287Y-84909644D01*
X149991291Y-84909654D01*
X150138794Y-85165137D01*
X150318385Y-85399184D01*
X150318391Y-85399191D01*
X150526985Y-85607785D01*
X150526992Y-85607791D01*
X150761039Y-85787382D01*
X151016522Y-85934885D01*
X151016523Y-85934885D01*
X151016526Y-85934887D01*
X151227329Y-86022204D01*
X151268545Y-86039277D01*
X151289081Y-86047783D01*
X151574040Y-86124137D01*
X151866527Y-86162644D01*
X151866534Y-86162644D01*
X152161532Y-86162644D01*
X152161539Y-86162644D01*
X152454026Y-86124137D01*
X152738985Y-86047783D01*
X153011540Y-85934887D01*
X153267027Y-85787382D01*
X153501075Y-85607790D01*
X153709679Y-85399186D01*
X153889271Y-85165138D01*
X154036776Y-84909651D01*
X154149672Y-84637096D01*
X154226026Y-84352137D01*
X154264533Y-84059650D01*
X154264533Y-83825533D01*
X155993533Y-83825533D01*
X155993533Y-83998754D01*
X156019283Y-84161339D01*
X156020631Y-84169845D01*
X156071396Y-84326083D01*
X156074161Y-84334591D01*
X156078767Y-84343631D01*
X156152801Y-84488932D01*
X156254619Y-84629072D01*
X156377105Y-84751558D01*
X156517245Y-84853376D01*
X156671588Y-84932017D01*
X156836332Y-84985546D01*
X157007422Y-85012644D01*
X157007423Y-85012644D01*
X157180643Y-85012644D01*
X157180644Y-85012644D01*
X157351734Y-84985546D01*
X157516478Y-84932017D01*
X157670821Y-84853376D01*
X157810961Y-84751558D01*
X157933447Y-84629072D01*
X158035265Y-84488932D01*
X158113906Y-84334589D01*
X158167435Y-84169845D01*
X158194533Y-83998755D01*
X158194533Y-83825533D01*
X158188635Y-83788297D01*
X164896931Y-83788297D01*
X164896931Y-83961518D01*
X164912474Y-84059657D01*
X164924029Y-84132609D01*
X164977558Y-84297353D01*
X165056199Y-84451696D01*
X165158017Y-84591836D01*
X165280503Y-84714322D01*
X165420643Y-84816140D01*
X165574986Y-84894781D01*
X165739730Y-84948310D01*
X165910820Y-84975408D01*
X165910821Y-84975408D01*
X166084041Y-84975408D01*
X166084042Y-84975408D01*
X166255132Y-84948310D01*
X166419876Y-84894781D01*
X166574219Y-84816140D01*
X166714359Y-84714322D01*
X166836845Y-84591836D01*
X166938663Y-84451696D01*
X167017304Y-84297353D01*
X167070833Y-84132609D01*
X167097931Y-83961519D01*
X167097931Y-83788297D01*
X167088285Y-83727394D01*
X168826931Y-83727394D01*
X168826931Y-84022421D01*
X168850008Y-84197701D01*
X168865438Y-84314901D01*
X168939643Y-84591838D01*
X168941792Y-84599859D01*
X168941795Y-84599869D01*
X169054685Y-84872408D01*
X169054689Y-84872418D01*
X169202192Y-85127901D01*
X169381783Y-85361948D01*
X169381789Y-85361955D01*
X169590383Y-85570549D01*
X169590390Y-85570555D01*
X169824437Y-85750146D01*
X170079920Y-85897649D01*
X170079921Y-85897649D01*
X170079924Y-85897651D01*
X170352479Y-86010547D01*
X170637438Y-86086901D01*
X170929925Y-86125408D01*
X170929932Y-86125408D01*
X171224930Y-86125408D01*
X171224937Y-86125408D01*
X171517424Y-86086901D01*
X171802383Y-86010547D01*
X172074938Y-85897651D01*
X172330425Y-85750146D01*
X172564473Y-85570554D01*
X172773077Y-85361950D01*
X172952669Y-85127902D01*
X173100174Y-84872415D01*
X173213070Y-84599860D01*
X173289424Y-84314901D01*
X173327931Y-84022414D01*
X173327931Y-83788297D01*
X175056931Y-83788297D01*
X175056931Y-83961518D01*
X175072474Y-84059657D01*
X175084029Y-84132609D01*
X175137558Y-84297353D01*
X175216199Y-84451696D01*
X175318017Y-84591836D01*
X175440503Y-84714322D01*
X175580643Y-84816140D01*
X175734986Y-84894781D01*
X175899730Y-84948310D01*
X176070820Y-84975408D01*
X176070821Y-84975408D01*
X176244041Y-84975408D01*
X176244042Y-84975408D01*
X176415132Y-84948310D01*
X176579876Y-84894781D01*
X176734219Y-84816140D01*
X176874359Y-84714322D01*
X176996845Y-84591836D01*
X177098663Y-84451696D01*
X177177304Y-84297353D01*
X177230833Y-84132609D01*
X177257931Y-83961519D01*
X177257931Y-83788297D01*
X177230833Y-83617207D01*
X177177304Y-83452463D01*
X177098663Y-83298120D01*
X176996845Y-83157980D01*
X176874359Y-83035494D01*
X176734219Y-82933676D01*
X176579876Y-82855035D01*
X176415132Y-82801506D01*
X176415130Y-82801505D01*
X176415129Y-82801505D01*
X176283702Y-82780689D01*
X176244042Y-82774408D01*
X176070820Y-82774408D01*
X176031159Y-82780689D01*
X175899733Y-82801505D01*
X175847050Y-82818623D01*
X175761319Y-82846479D01*
X175734983Y-82855036D01*
X175580642Y-82933676D01*
X175529392Y-82970912D01*
X175440503Y-83035494D01*
X175440501Y-83035496D01*
X175440500Y-83035496D01*
X175318019Y-83157977D01*
X175318019Y-83157978D01*
X175318017Y-83157980D01*
X175276562Y-83215038D01*
X175216199Y-83298119D01*
X175137559Y-83452460D01*
X175084028Y-83617210D01*
X175056931Y-83788297D01*
X173327931Y-83788297D01*
X173327931Y-83727402D01*
X173289424Y-83434915D01*
X173213070Y-83149956D01*
X173100174Y-82877401D01*
X173093936Y-82866597D01*
X172952669Y-82621914D01*
X172773078Y-82387867D01*
X172773072Y-82387860D01*
X172564478Y-82179266D01*
X172564471Y-82179260D01*
X172330424Y-81999669D01*
X172074941Y-81852166D01*
X172074931Y-81852162D01*
X171802392Y-81739272D01*
X171802385Y-81739270D01*
X171802383Y-81739269D01*
X171517424Y-81662915D01*
X171468544Y-81656479D01*
X171224944Y-81624408D01*
X171224937Y-81624408D01*
X170929925Y-81624408D01*
X170929917Y-81624408D01*
X170651516Y-81661061D01*
X170637438Y-81662915D01*
X170498467Y-81700152D01*
X170352479Y-81739269D01*
X170352469Y-81739272D01*
X170079930Y-81852162D01*
X170079920Y-81852166D01*
X169824437Y-81999669D01*
X169590390Y-82179260D01*
X169590383Y-82179266D01*
X169381789Y-82387860D01*
X169381783Y-82387867D01*
X169202192Y-82621914D01*
X169054689Y-82877397D01*
X169054685Y-82877407D01*
X168941795Y-83149946D01*
X168941792Y-83149956D01*
X168865439Y-83434912D01*
X168865437Y-83434923D01*
X168826931Y-83727394D01*
X167088285Y-83727394D01*
X167070833Y-83617207D01*
X167017304Y-83452463D01*
X166938663Y-83298120D01*
X166836845Y-83157980D01*
X166784913Y-83106048D01*
X166751428Y-83044725D01*
X166756412Y-82975033D01*
X166798284Y-82919100D01*
X166863748Y-82894683D01*
X166891992Y-82895894D01*
X166892643Y-82895997D01*
X166892646Y-82895998D01*
X167141469Y-82935408D01*
X167141470Y-82935408D01*
X167393392Y-82935408D01*
X167393393Y-82935408D01*
X167642216Y-82895998D01*
X167881810Y-82818149D01*
X168106276Y-82703778D01*
X168310087Y-82555701D01*
X168488224Y-82377564D01*
X168636301Y-82173753D01*
X168750672Y-81949287D01*
X168828521Y-81709693D01*
X168867931Y-81460870D01*
X168867931Y-81208946D01*
X168828521Y-80960123D01*
X168750672Y-80720529D01*
X168750670Y-80720526D01*
X168750670Y-80720524D01*
X168709178Y-80639092D01*
X168636301Y-80496063D01*
X168581830Y-80421090D01*
X168488229Y-80292258D01*
X168488225Y-80292253D01*
X168310085Y-80114113D01*
X168310080Y-80114109D01*
X168106279Y-79966040D01*
X168106278Y-79966039D01*
X168106276Y-79966038D01*
X168036178Y-79930321D01*
X167881814Y-79851668D01*
X167642216Y-79773818D01*
X167628490Y-79771644D01*
X167393393Y-79734408D01*
X167141469Y-79734408D01*
X167017057Y-79754113D01*
X166892645Y-79773818D01*
X166653047Y-79851668D01*
X166428582Y-79966040D01*
X166224781Y-80114109D01*
X166224776Y-80114113D01*
X166046636Y-80292253D01*
X166046632Y-80292258D01*
X165898563Y-80496059D01*
X165784191Y-80720524D01*
X165706341Y-80960122D01*
X165696031Y-81025215D01*
X165666931Y-81208946D01*
X165666931Y-81460870D01*
X165698731Y-81661644D01*
X165706341Y-81709693D01*
X165784191Y-81949291D01*
X165898563Y-82173756D01*
X166046632Y-82377557D01*
X166046636Y-82377562D01*
X166046638Y-82377564D01*
X166224775Y-82555701D01*
X166224776Y-82555702D01*
X166224775Y-82555702D01*
X166231092Y-82560291D01*
X166273758Y-82615622D01*
X166279736Y-82685235D01*
X166247130Y-82747030D01*
X166186291Y-82781387D01*
X166138809Y-82783082D01*
X166084042Y-82774408D01*
X165910820Y-82774408D01*
X165871159Y-82780689D01*
X165739733Y-82801505D01*
X165687050Y-82818623D01*
X165601319Y-82846479D01*
X165574983Y-82855036D01*
X165420642Y-82933676D01*
X165369392Y-82970912D01*
X165280503Y-83035494D01*
X165280501Y-83035496D01*
X165280500Y-83035496D01*
X165158019Y-83157977D01*
X165158019Y-83157978D01*
X165158017Y-83157980D01*
X165116562Y-83215038D01*
X165056199Y-83298119D01*
X164977559Y-83452460D01*
X164924028Y-83617210D01*
X164896931Y-83788297D01*
X158188635Y-83788297D01*
X158167435Y-83654443D01*
X158113906Y-83489699D01*
X158035265Y-83335356D01*
X157933447Y-83195216D01*
X157810961Y-83072730D01*
X157670821Y-82970912D01*
X157516478Y-82892271D01*
X157351734Y-82838742D01*
X157351732Y-82838741D01*
X157351731Y-82838741D01*
X157220304Y-82817925D01*
X157180644Y-82811644D01*
X157007422Y-82811644D01*
X156967761Y-82817925D01*
X156836335Y-82838741D01*
X156753960Y-82865506D01*
X156697764Y-82883766D01*
X156671585Y-82892272D01*
X156517244Y-82970912D01*
X156460322Y-83012269D01*
X156377105Y-83072730D01*
X156377103Y-83072732D01*
X156377102Y-83072732D01*
X156254621Y-83195213D01*
X156254621Y-83195214D01*
X156254619Y-83195216D01*
X156210892Y-83255400D01*
X156152801Y-83335355D01*
X156074161Y-83489696D01*
X156020630Y-83654446D01*
X155993533Y-83825533D01*
X154264533Y-83825533D01*
X154264533Y-83764638D01*
X154226026Y-83472151D01*
X154149672Y-83187192D01*
X154036776Y-82914637D01*
X154026014Y-82895997D01*
X153889271Y-82659150D01*
X153709680Y-82425103D01*
X153709674Y-82425096D01*
X153501080Y-82216502D01*
X153501073Y-82216496D01*
X153267026Y-82036905D01*
X153011543Y-81889402D01*
X153011533Y-81889398D01*
X152738994Y-81776508D01*
X152738987Y-81776506D01*
X152738985Y-81776505D01*
X152454026Y-81700151D01*
X152389425Y-81691646D01*
X152161546Y-81661644D01*
X152161539Y-81661644D01*
X151866527Y-81661644D01*
X151866519Y-81661644D01*
X151588118Y-81698297D01*
X151574040Y-81700151D01*
X151399461Y-81746929D01*
X151289081Y-81776505D01*
X151289071Y-81776508D01*
X151016532Y-81889398D01*
X151016522Y-81889402D01*
X150761039Y-82036905D01*
X150526992Y-82216496D01*
X150526985Y-82216502D01*
X150318391Y-82425096D01*
X150318385Y-82425103D01*
X150138794Y-82659150D01*
X149991291Y-82914633D01*
X149991287Y-82914643D01*
X149878397Y-83187182D01*
X149878394Y-83187192D01*
X149807316Y-83452463D01*
X149802041Y-83472148D01*
X149802039Y-83472159D01*
X149763533Y-83764630D01*
X148024887Y-83764630D01*
X148007435Y-83654443D01*
X147953906Y-83489699D01*
X147875265Y-83335356D01*
X147773447Y-83195216D01*
X147721515Y-83143284D01*
X147688030Y-83081961D01*
X147693014Y-83012269D01*
X147734886Y-82956336D01*
X147800350Y-82931919D01*
X147828594Y-82933130D01*
X147829245Y-82933233D01*
X147829248Y-82933234D01*
X148078071Y-82972644D01*
X148078072Y-82972644D01*
X148329994Y-82972644D01*
X148329995Y-82972644D01*
X148578818Y-82933234D01*
X148818412Y-82855385D01*
X149042878Y-82741014D01*
X149246689Y-82592937D01*
X149424826Y-82414800D01*
X149572903Y-82210989D01*
X149687274Y-81986523D01*
X149765123Y-81746929D01*
X149804533Y-81498106D01*
X149804533Y-81246182D01*
X149765123Y-80997359D01*
X149687274Y-80757765D01*
X149687272Y-80757762D01*
X149687272Y-80757760D01*
X149587094Y-80561151D01*
X149572903Y-80533299D01*
X149471140Y-80393234D01*
X149424831Y-80329494D01*
X149424827Y-80329489D01*
X149246687Y-80151349D01*
X149246682Y-80151345D01*
X149042881Y-80003276D01*
X149042880Y-80003275D01*
X149042878Y-80003274D01*
X148969798Y-79966038D01*
X148818416Y-79888904D01*
X148578818Y-79811054D01*
X148329995Y-79771644D01*
X148078071Y-79771644D01*
X147953659Y-79791349D01*
X147829247Y-79811054D01*
X147589649Y-79888904D01*
X147365184Y-80003276D01*
X147161383Y-80151345D01*
X147161378Y-80151349D01*
X146983238Y-80329489D01*
X146983234Y-80329494D01*
X146835165Y-80533295D01*
X146720793Y-80757760D01*
X146642943Y-80997358D01*
X146642943Y-80997359D01*
X146603533Y-81246182D01*
X146603533Y-81498106D01*
X146628088Y-81653138D01*
X146642943Y-81746929D01*
X146720793Y-81986527D01*
X146761730Y-82066869D01*
X146818999Y-82179266D01*
X146835165Y-82210992D01*
X146983234Y-82414793D01*
X146983238Y-82414798D01*
X146983240Y-82414800D01*
X147161377Y-82592937D01*
X147161378Y-82592938D01*
X147161377Y-82592938D01*
X147167694Y-82597527D01*
X147210360Y-82652858D01*
X147216338Y-82722471D01*
X147183732Y-82784266D01*
X147122893Y-82818623D01*
X147075411Y-82820318D01*
X147020644Y-82811644D01*
X146847422Y-82811644D01*
X146807761Y-82817925D01*
X146676335Y-82838741D01*
X146593960Y-82865506D01*
X146537764Y-82883766D01*
X146511585Y-82892272D01*
X146357244Y-82970912D01*
X146300322Y-83012269D01*
X146217105Y-83072730D01*
X146217103Y-83072732D01*
X146217102Y-83072732D01*
X146094621Y-83195213D01*
X146094621Y-83195214D01*
X146094619Y-83195216D01*
X146050892Y-83255400D01*
X145992801Y-83335355D01*
X145914161Y-83489696D01*
X145860630Y-83654446D01*
X145833533Y-83825533D01*
X139096088Y-83825533D01*
X139073402Y-83682299D01*
X139019873Y-83517555D01*
X138941232Y-83363212D01*
X138839414Y-83223072D01*
X138716928Y-83100586D01*
X138576788Y-82998768D01*
X138422445Y-82920127D01*
X138257701Y-82866598D01*
X138257699Y-82866597D01*
X138257698Y-82866597D01*
X138126271Y-82845781D01*
X138086611Y-82839500D01*
X137913389Y-82839500D01*
X137873728Y-82845781D01*
X137742302Y-82866597D01*
X137577552Y-82920128D01*
X137423211Y-82998768D01*
X137372663Y-83035494D01*
X137283072Y-83100586D01*
X137283070Y-83100588D01*
X137283069Y-83100588D01*
X137160588Y-83223069D01*
X137160588Y-83223070D01*
X137160586Y-83223072D01*
X137116859Y-83283256D01*
X137058768Y-83363211D01*
X136980128Y-83517552D01*
X136926597Y-83682302D01*
X136905259Y-83817027D01*
X136899500Y-83853389D01*
X135170500Y-83853389D01*
X135170500Y-83792494D01*
X135131993Y-83500007D01*
X135055639Y-83215048D01*
X135047423Y-83195214D01*
X135008227Y-83100586D01*
X134942743Y-82942493D01*
X134938652Y-82935408D01*
X134795238Y-82687006D01*
X134615647Y-82452959D01*
X134615641Y-82452952D01*
X134407047Y-82244358D01*
X134407040Y-82244352D01*
X134172993Y-82064761D01*
X133917510Y-81917258D01*
X133917500Y-81917254D01*
X133644961Y-81804364D01*
X133644954Y-81804362D01*
X133644952Y-81804361D01*
X133359993Y-81728007D01*
X133311113Y-81721571D01*
X133067513Y-81689500D01*
X133067506Y-81689500D01*
X132772494Y-81689500D01*
X132772486Y-81689500D01*
X132494085Y-81726153D01*
X132480007Y-81728007D01*
X132409389Y-81746929D01*
X132195048Y-81804361D01*
X132195038Y-81804364D01*
X131922499Y-81917254D01*
X131922489Y-81917258D01*
X131667006Y-82064761D01*
X131432959Y-82244352D01*
X131432952Y-82244358D01*
X131224358Y-82452952D01*
X131224352Y-82452959D01*
X131044761Y-82687006D01*
X130897258Y-82942489D01*
X130897254Y-82942499D01*
X130784364Y-83215038D01*
X130784361Y-83215048D01*
X130708008Y-83500004D01*
X130708006Y-83500015D01*
X130669500Y-83792486D01*
X128930854Y-83792486D01*
X128913402Y-83682299D01*
X128859873Y-83517555D01*
X128781232Y-83363212D01*
X128679414Y-83223072D01*
X128627482Y-83171140D01*
X128593997Y-83109817D01*
X128598981Y-83040125D01*
X128640853Y-82984192D01*
X128706317Y-82959775D01*
X128734561Y-82960986D01*
X128735212Y-82961089D01*
X128735215Y-82961090D01*
X128984038Y-83000500D01*
X128984039Y-83000500D01*
X129235961Y-83000500D01*
X129235962Y-83000500D01*
X129484785Y-82961090D01*
X129724379Y-82883241D01*
X129948845Y-82768870D01*
X130152656Y-82620793D01*
X130330793Y-82442656D01*
X130478870Y-82238845D01*
X130593241Y-82014379D01*
X130671090Y-81774785D01*
X130710500Y-81525962D01*
X130710500Y-81274038D01*
X130671090Y-81025215D01*
X130593241Y-80785621D01*
X130593239Y-80785618D01*
X130593239Y-80785616D01*
X130551747Y-80704184D01*
X130478870Y-80561155D01*
X130377107Y-80421090D01*
X130330798Y-80357350D01*
X130330794Y-80357345D01*
X130152654Y-80179205D01*
X130152649Y-80179201D01*
X129948848Y-80031132D01*
X129948847Y-80031131D01*
X129948845Y-80031130D01*
X129821095Y-79966038D01*
X129724383Y-79916760D01*
X129484785Y-79838910D01*
X129476243Y-79837557D01*
X129235962Y-79799500D01*
X128984038Y-79799500D01*
X128859626Y-79819205D01*
X128735214Y-79838910D01*
X128495616Y-79916760D01*
X128271151Y-80031132D01*
X128067350Y-80179201D01*
X128067345Y-80179205D01*
X127889205Y-80357345D01*
X127889201Y-80357350D01*
X127741132Y-80561151D01*
X127626760Y-80785616D01*
X127557961Y-80997358D01*
X127548910Y-81025215D01*
X127509500Y-81274038D01*
X127509500Y-81525962D01*
X127529643Y-81653138D01*
X127548910Y-81774785D01*
X127626760Y-82014383D01*
X127741132Y-82238848D01*
X127889201Y-82442649D01*
X127889205Y-82442654D01*
X127889207Y-82442656D01*
X128067344Y-82620793D01*
X128067345Y-82620794D01*
X128067344Y-82620794D01*
X128073661Y-82625383D01*
X128116327Y-82680714D01*
X128122305Y-82750327D01*
X128089699Y-82812122D01*
X128028860Y-82846479D01*
X127981378Y-82848174D01*
X127926611Y-82839500D01*
X127753389Y-82839500D01*
X127713728Y-82845781D01*
X127582302Y-82866597D01*
X127417552Y-82920128D01*
X127263211Y-82998768D01*
X127212663Y-83035494D01*
X127123072Y-83100586D01*
X127123070Y-83100588D01*
X127123069Y-83100588D01*
X127000588Y-83223069D01*
X127000588Y-83223070D01*
X127000586Y-83223072D01*
X126956859Y-83283256D01*
X126898768Y-83363211D01*
X126820128Y-83517552D01*
X126766597Y-83682302D01*
X126745259Y-83817027D01*
X126739500Y-83853389D01*
X120081912Y-83853389D01*
X120081912Y-83817027D01*
X120054814Y-83645937D01*
X120001285Y-83481193D01*
X119922644Y-83326850D01*
X119820826Y-83186710D01*
X119698340Y-83064224D01*
X119558200Y-82962406D01*
X119403857Y-82883765D01*
X119239113Y-82830236D01*
X119239111Y-82830235D01*
X119239110Y-82830235D01*
X119107683Y-82809419D01*
X119068023Y-82803138D01*
X118894801Y-82803138D01*
X118855140Y-82809419D01*
X118723714Y-82830235D01*
X118558964Y-82883766D01*
X118404623Y-82962406D01*
X118387244Y-82975033D01*
X118264484Y-83064224D01*
X118264482Y-83064226D01*
X118264481Y-83064226D01*
X118142000Y-83186707D01*
X118142000Y-83186708D01*
X118141998Y-83186710D01*
X118098271Y-83246894D01*
X118040180Y-83326849D01*
X117961540Y-83481190D01*
X117908009Y-83645940D01*
X117880912Y-83817027D01*
X116151912Y-83817027D01*
X116151912Y-83756132D01*
X116150148Y-83742737D01*
X116148130Y-83727402D01*
X116113405Y-83463645D01*
X116037051Y-83178686D01*
X116028473Y-83157978D01*
X115993163Y-83072732D01*
X115924155Y-82906131D01*
X115910939Y-82883241D01*
X115776650Y-82650644D01*
X115597059Y-82416597D01*
X115597053Y-82416590D01*
X115388459Y-82207996D01*
X115388452Y-82207990D01*
X115154405Y-82028399D01*
X114898922Y-81880896D01*
X114898912Y-81880892D01*
X114626373Y-81768002D01*
X114626366Y-81768000D01*
X114626364Y-81767999D01*
X114341405Y-81691645D01*
X114292525Y-81685209D01*
X114048925Y-81653138D01*
X114048918Y-81653138D01*
X113753906Y-81653138D01*
X113753898Y-81653138D01*
X113477712Y-81689500D01*
X113461419Y-81691645D01*
X113255095Y-81746929D01*
X113176460Y-81767999D01*
X113176450Y-81768002D01*
X112903911Y-81880892D01*
X112903901Y-81880896D01*
X112648418Y-82028399D01*
X112414371Y-82207990D01*
X112414364Y-82207996D01*
X112205770Y-82416590D01*
X112205764Y-82416597D01*
X112026173Y-82650644D01*
X111878670Y-82906127D01*
X111878666Y-82906137D01*
X111765776Y-83178676D01*
X111765773Y-83178686D01*
X111689420Y-83463642D01*
X111689418Y-83463653D01*
X111650912Y-83756124D01*
X109912266Y-83756124D01*
X109894814Y-83645937D01*
X109841285Y-83481193D01*
X109762644Y-83326850D01*
X109660826Y-83186710D01*
X109608894Y-83134778D01*
X109575409Y-83073455D01*
X109580393Y-83003763D01*
X109622265Y-82947830D01*
X109687729Y-82923413D01*
X109715973Y-82924624D01*
X109716624Y-82924727D01*
X109716627Y-82924728D01*
X109965450Y-82964138D01*
X109965451Y-82964138D01*
X110217373Y-82964138D01*
X110217374Y-82964138D01*
X110466197Y-82924728D01*
X110705791Y-82846879D01*
X110930257Y-82732508D01*
X111134068Y-82584431D01*
X111312205Y-82406294D01*
X111460282Y-82202483D01*
X111574653Y-81978017D01*
X111652502Y-81738423D01*
X111691912Y-81489600D01*
X111691912Y-81237676D01*
X111652502Y-80988853D01*
X111574653Y-80749259D01*
X111574651Y-80749256D01*
X111574651Y-80749254D01*
X111478807Y-80561151D01*
X111460282Y-80524793D01*
X111364699Y-80393234D01*
X111312210Y-80320988D01*
X111312206Y-80320983D01*
X111134066Y-80142843D01*
X111134061Y-80142839D01*
X110930260Y-79994770D01*
X110930259Y-79994769D01*
X110930257Y-79994768D01*
X110860159Y-79959051D01*
X110705795Y-79880398D01*
X110466197Y-79802548D01*
X110271078Y-79771644D01*
X110217374Y-79763138D01*
X109965450Y-79763138D01*
X109911746Y-79771644D01*
X109716626Y-79802548D01*
X109477028Y-79880398D01*
X109252563Y-79994770D01*
X109048762Y-80142839D01*
X109048757Y-80142843D01*
X108870617Y-80320983D01*
X108870613Y-80320988D01*
X108722544Y-80524789D01*
X108608172Y-80749254D01*
X108596356Y-80785621D01*
X108530322Y-80988853D01*
X108490912Y-81237676D01*
X108490912Y-81489600D01*
X108518363Y-81662915D01*
X108530322Y-81738423D01*
X108608172Y-81978021D01*
X108686825Y-82132385D01*
X108710712Y-82179266D01*
X108722544Y-82202486D01*
X108870613Y-82406287D01*
X108870617Y-82406292D01*
X108870619Y-82406294D01*
X109048756Y-82584431D01*
X109048757Y-82584432D01*
X109048756Y-82584432D01*
X109055073Y-82589021D01*
X109097739Y-82644352D01*
X109103717Y-82713965D01*
X109071111Y-82775760D01*
X109010272Y-82810117D01*
X108962790Y-82811812D01*
X108908023Y-82803138D01*
X108734801Y-82803138D01*
X108695140Y-82809419D01*
X108563714Y-82830235D01*
X108398964Y-82883766D01*
X108244623Y-82962406D01*
X108227244Y-82975033D01*
X108104484Y-83064224D01*
X108104482Y-83064226D01*
X108104481Y-83064226D01*
X107982000Y-83186707D01*
X107982000Y-83186708D01*
X107981998Y-83186710D01*
X107938271Y-83246894D01*
X107880180Y-83326849D01*
X107801540Y-83481190D01*
X107748009Y-83645940D01*
X107720912Y-83817027D01*
X103600500Y-83817027D01*
X103600500Y-73339097D01*
X103620185Y-73272058D01*
X103672989Y-73226303D01*
X103742147Y-73216359D01*
X103805703Y-73245384D01*
X103812180Y-73251415D01*
X109871284Y-79310520D01*
X109871286Y-79310521D01*
X109871290Y-79310524D01*
X110008209Y-79389573D01*
X110008216Y-79389577D01*
X110160943Y-79430501D01*
X110160945Y-79430501D01*
X110326654Y-79430501D01*
X110326670Y-79430500D01*
X114878354Y-79430500D01*
X114945393Y-79450185D01*
X114988839Y-79498206D01*
X115072542Y-79662484D01*
X115220613Y-79866287D01*
X115220617Y-79866292D01*
X115398757Y-80044432D01*
X115398762Y-80044436D01*
X115545911Y-80151345D01*
X115602567Y-80192508D01*
X115673932Y-80228870D01*
X115827028Y-80306877D01*
X115827030Y-80306877D01*
X115827033Y-80306879D01*
X116066627Y-80384728D01*
X116315450Y-80424138D01*
X116315451Y-80424138D01*
X116567373Y-80424138D01*
X116567374Y-80424138D01*
X116816197Y-80384728D01*
X117055791Y-80306879D01*
X117280257Y-80192508D01*
X117484068Y-80044431D01*
X117662205Y-79866294D01*
X117810282Y-79662483D01*
X117911866Y-79463113D01*
X117959841Y-79412317D01*
X118022351Y-79395408D01*
X133861194Y-79395408D01*
X133928233Y-79415093D01*
X133973988Y-79467897D01*
X133975758Y-79471961D01*
X133976761Y-79474384D01*
X133988899Y-79498206D01*
X134076938Y-79670992D01*
X134091132Y-79698848D01*
X134239201Y-79902649D01*
X134239205Y-79902654D01*
X134417345Y-80080794D01*
X134417350Y-80080798D01*
X134571103Y-80192505D01*
X134621155Y-80228870D01*
X134745561Y-80292258D01*
X134845616Y-80343239D01*
X134845618Y-80343239D01*
X134845621Y-80343241D01*
X135085215Y-80421090D01*
X135334038Y-80460500D01*
X135334039Y-80460500D01*
X135585961Y-80460500D01*
X135585962Y-80460500D01*
X135834785Y-80421090D01*
X136074379Y-80343241D01*
X136298845Y-80228870D01*
X136502656Y-80080793D01*
X136680793Y-79902656D01*
X136828870Y-79698845D01*
X136943241Y-79474379D01*
X136943244Y-79474368D01*
X136944242Y-79471961D01*
X136944870Y-79471180D01*
X136945453Y-79470038D01*
X136945692Y-79470160D01*
X136988081Y-79417556D01*
X137054374Y-79395487D01*
X137058806Y-79395408D01*
X152968760Y-79395408D01*
X153035799Y-79415093D01*
X153079245Y-79463113D01*
X153180829Y-79662484D01*
X153185165Y-79670992D01*
X153333234Y-79874793D01*
X153333238Y-79874798D01*
X153511378Y-80052938D01*
X153511383Y-80052942D01*
X153663933Y-80163775D01*
X153715188Y-80201014D01*
X153858217Y-80273891D01*
X153939649Y-80315383D01*
X153939651Y-80315383D01*
X153939654Y-80315385D01*
X154179248Y-80393234D01*
X154428071Y-80432644D01*
X154428072Y-80432644D01*
X154679994Y-80432644D01*
X154679995Y-80432644D01*
X154928818Y-80393234D01*
X155168412Y-80315385D01*
X155392878Y-80201014D01*
X155596689Y-80052937D01*
X155774826Y-79874800D01*
X155922903Y-79670989D01*
X156028821Y-79463113D01*
X156076796Y-79412317D01*
X156139306Y-79395408D01*
X172051131Y-79395408D01*
X172118170Y-79415093D01*
X172161615Y-79463112D01*
X172179496Y-79498206D01*
X172248563Y-79633756D01*
X172396632Y-79837557D01*
X172396636Y-79837562D01*
X172574776Y-80015702D01*
X172574781Y-80015706D01*
X172749766Y-80142839D01*
X172778586Y-80163778D01*
X172921615Y-80236655D01*
X173003047Y-80278147D01*
X173003049Y-80278147D01*
X173003052Y-80278149D01*
X173242646Y-80355998D01*
X173491469Y-80395408D01*
X173491470Y-80395408D01*
X173743392Y-80395408D01*
X173743393Y-80395408D01*
X173992216Y-80355998D01*
X174231810Y-80278149D01*
X174456276Y-80163778D01*
X174660087Y-80015701D01*
X174838224Y-79837564D01*
X174986301Y-79633753D01*
X175100672Y-79409287D01*
X175178521Y-79169693D01*
X175217931Y-78920870D01*
X175217931Y-78668946D01*
X175178521Y-78420123D01*
X175100672Y-78180529D01*
X175100670Y-78180526D01*
X175100670Y-78180524D01*
X175059178Y-78099092D01*
X174986301Y-77956063D01*
X174967383Y-77930025D01*
X174838229Y-77752258D01*
X174838225Y-77752253D01*
X174660085Y-77574113D01*
X174660080Y-77574109D01*
X174456279Y-77426040D01*
X174456278Y-77426039D01*
X174456276Y-77426038D01*
X174386178Y-77390321D01*
X174231814Y-77311668D01*
X173992216Y-77233818D01*
X173978490Y-77231644D01*
X173743393Y-77194408D01*
X173491469Y-77194408D01*
X173367057Y-77214113D01*
X173242645Y-77233818D01*
X173003047Y-77311668D01*
X172778582Y-77426040D01*
X172574781Y-77574109D01*
X172574776Y-77574113D01*
X172396636Y-77752253D01*
X172396632Y-77752258D01*
X172248563Y-77956059D01*
X172161616Y-78126703D01*
X172113642Y-78177499D01*
X172051131Y-78194408D01*
X156101361Y-78194408D01*
X156034322Y-78174723D01*
X155990876Y-78126703D01*
X155937096Y-78021155D01*
X155922903Y-77993299D01*
X155795069Y-77817350D01*
X155774831Y-77789494D01*
X155774827Y-77789489D01*
X155596687Y-77611349D01*
X155596682Y-77611345D01*
X155392881Y-77463276D01*
X155392880Y-77463275D01*
X155392878Y-77463274D01*
X155319798Y-77426038D01*
X155168416Y-77348904D01*
X154928818Y-77271054D01*
X154679995Y-77231644D01*
X154428071Y-77231644D01*
X154303659Y-77251349D01*
X154179247Y-77271054D01*
X153939649Y-77348904D01*
X153715184Y-77463276D01*
X153511383Y-77611345D01*
X153511378Y-77611349D01*
X153333238Y-77789489D01*
X153333234Y-77789494D01*
X153185165Y-77993295D01*
X153117190Y-78126703D01*
X153069215Y-78177499D01*
X153006705Y-78194408D01*
X136993134Y-78194408D01*
X136926095Y-78174723D01*
X136882650Y-78126704D01*
X136828870Y-78021155D01*
X136828868Y-78021152D01*
X136828867Y-78021150D01*
X136680798Y-77817350D01*
X136680794Y-77817345D01*
X136502654Y-77639205D01*
X136502649Y-77639201D01*
X136298848Y-77491132D01*
X136298847Y-77491131D01*
X136298845Y-77491130D01*
X136171095Y-77426038D01*
X136074383Y-77376760D01*
X135834785Y-77298910D01*
X135585962Y-77259500D01*
X135334038Y-77259500D01*
X135209626Y-77279205D01*
X135085214Y-77298910D01*
X134845616Y-77376760D01*
X134621151Y-77491132D01*
X134417350Y-77639201D01*
X134417345Y-77639205D01*
X134239205Y-77817345D01*
X134239201Y-77817350D01*
X134091132Y-78021150D01*
X134063185Y-78075998D01*
X134037349Y-78126704D01*
X133989377Y-78177499D01*
X133926866Y-78194408D01*
X117993074Y-78194408D01*
X117926035Y-78174723D01*
X117882589Y-78126703D01*
X117828809Y-78021155D01*
X117810282Y-77984793D01*
X117688628Y-77817350D01*
X117662210Y-77780988D01*
X117662206Y-77780983D01*
X117484066Y-77602843D01*
X117484061Y-77602839D01*
X117280260Y-77454770D01*
X117280259Y-77454769D01*
X117280257Y-77454768D01*
X117210159Y-77419051D01*
X117055795Y-77340398D01*
X116816197Y-77262548D01*
X116621078Y-77231644D01*
X116567374Y-77223138D01*
X116315450Y-77223138D01*
X116261746Y-77231644D01*
X116066626Y-77262548D01*
X115827028Y-77340398D01*
X115602563Y-77454770D01*
X115398762Y-77602839D01*
X115398757Y-77602843D01*
X115220617Y-77780983D01*
X115220613Y-77780988D01*
X115072542Y-77984791D01*
X114982356Y-78161794D01*
X114934382Y-78212591D01*
X114871871Y-78229500D01*
X110540098Y-78229500D01*
X110473059Y-78209815D01*
X110452417Y-78193181D01*
X104636819Y-72377583D01*
X104603334Y-72316260D01*
X104600500Y-72289902D01*
X104600500Y-64773389D01*
X107739500Y-64773389D01*
X107739500Y-64946610D01*
X107766337Y-65116058D01*
X107766598Y-65117701D01*
X107820127Y-65282445D01*
X107898768Y-65436788D01*
X108000586Y-65576928D01*
X108123072Y-65699414D01*
X108263212Y-65801232D01*
X108417555Y-65879873D01*
X108582299Y-65933402D01*
X108753389Y-65960500D01*
X108753390Y-65960500D01*
X108926610Y-65960500D01*
X108926611Y-65960500D01*
X109097701Y-65933402D01*
X109262445Y-65879873D01*
X109416788Y-65801232D01*
X109556928Y-65699414D01*
X109679414Y-65576928D01*
X109781232Y-65436788D01*
X109859873Y-65282445D01*
X109913402Y-65117701D01*
X109940500Y-64946611D01*
X109940500Y-64773389D01*
X109930854Y-64712486D01*
X111669500Y-64712486D01*
X111669500Y-65007513D01*
X111701571Y-65251113D01*
X111708007Y-65299993D01*
X111783921Y-65583309D01*
X111784361Y-65584951D01*
X111784364Y-65584961D01*
X111897254Y-65857500D01*
X111897258Y-65857510D01*
X112044761Y-66112993D01*
X112224352Y-66347040D01*
X112224358Y-66347047D01*
X112432952Y-66555641D01*
X112432959Y-66555647D01*
X112667006Y-66735238D01*
X112922489Y-66882741D01*
X112922490Y-66882741D01*
X112922493Y-66882743D01*
X113133296Y-66970060D01*
X113191071Y-66993992D01*
X113195048Y-66995639D01*
X113480007Y-67071993D01*
X113772494Y-67110500D01*
X113772501Y-67110500D01*
X114067499Y-67110500D01*
X114067506Y-67110500D01*
X114359993Y-67071993D01*
X114644952Y-66995639D01*
X114917507Y-66882743D01*
X115172994Y-66735238D01*
X115407042Y-66555646D01*
X115615646Y-66347042D01*
X115795238Y-66112994D01*
X115942743Y-65857507D01*
X116055639Y-65584952D01*
X116131993Y-65299993D01*
X116170500Y-65007506D01*
X116170500Y-64773389D01*
X117899500Y-64773389D01*
X117899500Y-64946610D01*
X117926337Y-65116058D01*
X117926598Y-65117701D01*
X117980127Y-65282445D01*
X118058768Y-65436788D01*
X118160586Y-65576928D01*
X118283072Y-65699414D01*
X118423212Y-65801232D01*
X118577555Y-65879873D01*
X118742299Y-65933402D01*
X118913389Y-65960500D01*
X118913390Y-65960500D01*
X119086610Y-65960500D01*
X119086611Y-65960500D01*
X119257701Y-65933402D01*
X119422445Y-65879873D01*
X119576788Y-65801232D01*
X119716928Y-65699414D01*
X119839414Y-65576928D01*
X119941232Y-65436788D01*
X120019873Y-65282445D01*
X120073402Y-65117701D01*
X120100500Y-64946611D01*
X120100500Y-64773389D01*
X120100240Y-64771746D01*
X126801041Y-64771746D01*
X126801041Y-64944967D01*
X126825231Y-65097701D01*
X126828139Y-65116058D01*
X126881668Y-65280802D01*
X126960309Y-65435145D01*
X127062127Y-65575285D01*
X127184613Y-65697771D01*
X127324753Y-65799589D01*
X127479096Y-65878230D01*
X127643840Y-65931759D01*
X127814930Y-65958857D01*
X127814931Y-65958857D01*
X127988151Y-65958857D01*
X127988152Y-65958857D01*
X128159242Y-65931759D01*
X128323986Y-65878230D01*
X128478329Y-65799589D01*
X128618469Y-65697771D01*
X128740955Y-65575285D01*
X128842773Y-65435145D01*
X128921414Y-65280802D01*
X128974943Y-65116058D01*
X129002041Y-64944968D01*
X129002041Y-64771746D01*
X128992395Y-64710843D01*
X130731041Y-64710843D01*
X130731041Y-65005870D01*
X130763112Y-65249470D01*
X130769548Y-65298350D01*
X130844193Y-65576930D01*
X130845902Y-65583308D01*
X130845905Y-65583318D01*
X130958795Y-65855857D01*
X130958799Y-65855867D01*
X131106302Y-66111350D01*
X131285893Y-66345397D01*
X131285899Y-66345404D01*
X131494493Y-66553998D01*
X131494500Y-66554004D01*
X131728547Y-66733595D01*
X131984030Y-66881098D01*
X131984031Y-66881098D01*
X131984034Y-66881100D01*
X132256589Y-66993996D01*
X132541548Y-67070350D01*
X132834035Y-67108857D01*
X132834042Y-67108857D01*
X133129040Y-67108857D01*
X133129047Y-67108857D01*
X133421534Y-67070350D01*
X133706493Y-66993996D01*
X133979048Y-66881100D01*
X134234535Y-66733595D01*
X134468583Y-66554003D01*
X134677187Y-66345399D01*
X134856779Y-66111351D01*
X135004284Y-65855864D01*
X135117180Y-65583309D01*
X135193534Y-65298350D01*
X135232041Y-65005863D01*
X135232041Y-64771746D01*
X136961041Y-64771746D01*
X136961041Y-64944967D01*
X136985231Y-65097701D01*
X136988139Y-65116058D01*
X137041668Y-65280802D01*
X137120309Y-65435145D01*
X137222127Y-65575285D01*
X137344613Y-65697771D01*
X137484753Y-65799589D01*
X137639096Y-65878230D01*
X137803840Y-65931759D01*
X137974930Y-65958857D01*
X137974931Y-65958857D01*
X138148151Y-65958857D01*
X138148152Y-65958857D01*
X138319242Y-65931759D01*
X138483986Y-65878230D01*
X138638329Y-65799589D01*
X138778469Y-65697771D01*
X138900955Y-65575285D01*
X139002773Y-65435145D01*
X139081414Y-65280802D01*
X139134943Y-65116058D01*
X139162041Y-64944968D01*
X139162041Y-64771746D01*
X139159134Y-64753389D01*
X145839500Y-64753389D01*
X145839500Y-64926611D01*
X145842668Y-64946610D01*
X145866369Y-65096260D01*
X145866598Y-65097701D01*
X145919659Y-65261006D01*
X145920128Y-65262447D01*
X145998034Y-65415347D01*
X145998768Y-65416788D01*
X146100586Y-65556928D01*
X146223072Y-65679414D01*
X146363212Y-65781232D01*
X146517555Y-65859873D01*
X146682299Y-65913402D01*
X146853389Y-65940500D01*
X146853390Y-65940500D01*
X147026610Y-65940500D01*
X147026611Y-65940500D01*
X147197701Y-65913402D01*
X147362445Y-65859873D01*
X147516788Y-65781232D01*
X147656928Y-65679414D01*
X147779414Y-65556928D01*
X147881232Y-65416788D01*
X147959873Y-65262445D01*
X148013402Y-65097701D01*
X148040500Y-64926611D01*
X148040500Y-64753389D01*
X148030854Y-64692486D01*
X149769500Y-64692486D01*
X149769500Y-64987513D01*
X149801571Y-65231113D01*
X149808007Y-65279993D01*
X149884361Y-65564951D01*
X149884364Y-65564961D01*
X149997254Y-65837500D01*
X149997258Y-65837510D01*
X150144761Y-66092993D01*
X150324352Y-66327040D01*
X150324358Y-66327047D01*
X150532952Y-66535641D01*
X150532959Y-66535647D01*
X150767006Y-66715238D01*
X151022489Y-66862741D01*
X151022490Y-66862741D01*
X151022493Y-66862743D01*
X151233296Y-66950060D01*
X151291566Y-66974197D01*
X151295048Y-66975639D01*
X151580007Y-67051993D01*
X151872494Y-67090500D01*
X151872501Y-67090500D01*
X152167499Y-67090500D01*
X152167506Y-67090500D01*
X152459993Y-67051993D01*
X152744952Y-66975639D01*
X153017507Y-66862743D01*
X153272994Y-66715238D01*
X153507042Y-66535646D01*
X153715646Y-66327042D01*
X153895238Y-66092994D01*
X154042743Y-65837507D01*
X154155639Y-65564952D01*
X154231993Y-65279993D01*
X154270500Y-64987506D01*
X154270500Y-64753389D01*
X155999500Y-64753389D01*
X155999500Y-64926611D01*
X156002668Y-64946610D01*
X156026369Y-65096260D01*
X156026598Y-65097701D01*
X156079659Y-65261006D01*
X156080128Y-65262447D01*
X156158034Y-65415347D01*
X156158768Y-65416788D01*
X156260586Y-65556928D01*
X156383072Y-65679414D01*
X156523212Y-65781232D01*
X156677555Y-65859873D01*
X156842299Y-65913402D01*
X157013389Y-65940500D01*
X157013390Y-65940500D01*
X157186610Y-65940500D01*
X157186611Y-65940500D01*
X157357701Y-65913402D01*
X157522445Y-65859873D01*
X157676788Y-65781232D01*
X157816928Y-65679414D01*
X157939414Y-65556928D01*
X158041232Y-65416788D01*
X158119873Y-65262445D01*
X158173402Y-65097701D01*
X158200500Y-64926611D01*
X158200500Y-64753389D01*
X158200272Y-64751948D01*
X164882237Y-64751948D01*
X164882237Y-64925169D01*
X164895017Y-65005863D01*
X164909335Y-65096260D01*
X164916300Y-65117697D01*
X164962865Y-65261006D01*
X164973789Y-65282445D01*
X165041505Y-65415347D01*
X165143323Y-65555487D01*
X165265809Y-65677973D01*
X165405949Y-65779791D01*
X165560292Y-65858432D01*
X165725036Y-65911961D01*
X165896126Y-65939059D01*
X165896127Y-65939059D01*
X166069347Y-65939059D01*
X166069348Y-65939059D01*
X166240438Y-65911961D01*
X166405182Y-65858432D01*
X166559525Y-65779791D01*
X166699665Y-65677973D01*
X166822151Y-65555487D01*
X166923969Y-65415347D01*
X167002610Y-65261004D01*
X167056139Y-65096260D01*
X167083237Y-64925170D01*
X167083237Y-64751948D01*
X167073591Y-64691045D01*
X168812237Y-64691045D01*
X168812237Y-64986072D01*
X168829567Y-65117701D01*
X168850744Y-65278552D01*
X168925335Y-65556930D01*
X168927098Y-65563510D01*
X168927101Y-65563520D01*
X169039991Y-65836059D01*
X169039995Y-65836069D01*
X169187498Y-66091552D01*
X169367089Y-66325599D01*
X169367095Y-66325606D01*
X169575689Y-66534200D01*
X169575696Y-66534206D01*
X169809743Y-66713797D01*
X170065226Y-66861300D01*
X170065227Y-66861300D01*
X170065230Y-66861302D01*
X170337785Y-66974198D01*
X170622744Y-67050552D01*
X170915231Y-67089059D01*
X170915238Y-67089059D01*
X171210236Y-67089059D01*
X171210243Y-67089059D01*
X171502730Y-67050552D01*
X171787689Y-66974198D01*
X172060244Y-66861302D01*
X172315731Y-66713797D01*
X172549779Y-66534205D01*
X172758383Y-66325601D01*
X172937975Y-66091553D01*
X173085480Y-65836066D01*
X173198376Y-65563511D01*
X173274730Y-65278552D01*
X173313237Y-64986065D01*
X173313237Y-64751948D01*
X175042237Y-64751948D01*
X175042237Y-64925169D01*
X175055017Y-65005863D01*
X175069335Y-65096260D01*
X175076300Y-65117697D01*
X175122865Y-65261006D01*
X175133789Y-65282445D01*
X175201505Y-65415347D01*
X175303323Y-65555487D01*
X175425809Y-65677973D01*
X175565949Y-65779791D01*
X175720292Y-65858432D01*
X175885036Y-65911961D01*
X176056126Y-65939059D01*
X176056127Y-65939059D01*
X176229347Y-65939059D01*
X176229348Y-65939059D01*
X176400438Y-65911961D01*
X176565182Y-65858432D01*
X176719525Y-65779791D01*
X176859665Y-65677973D01*
X176982151Y-65555487D01*
X177083969Y-65415347D01*
X177162610Y-65261004D01*
X177216139Y-65096260D01*
X177243237Y-64925170D01*
X177243237Y-64751948D01*
X177216139Y-64580858D01*
X177162610Y-64416114D01*
X177083969Y-64261771D01*
X176982151Y-64121631D01*
X176859665Y-63999145D01*
X176719525Y-63897327D01*
X176565182Y-63818686D01*
X176400438Y-63765157D01*
X176400436Y-63765156D01*
X176400435Y-63765156D01*
X176269008Y-63744340D01*
X176229348Y-63738059D01*
X176056126Y-63738059D01*
X176016465Y-63744340D01*
X175885039Y-63765156D01*
X175720289Y-63818687D01*
X175565948Y-63897327D01*
X175534054Y-63920500D01*
X175425809Y-63999145D01*
X175425807Y-63999147D01*
X175425806Y-63999147D01*
X175303325Y-64121628D01*
X175303325Y-64121629D01*
X175303323Y-64121631D01*
X175259596Y-64181815D01*
X175201505Y-64261770D01*
X175122865Y-64416111D01*
X175122864Y-64416113D01*
X175122864Y-64416114D01*
X175116432Y-64435909D01*
X175069334Y-64580861D01*
X175042237Y-64751948D01*
X173313237Y-64751948D01*
X173313237Y-64691053D01*
X173274730Y-64398566D01*
X173198376Y-64113607D01*
X173085480Y-63841052D01*
X173083997Y-63838484D01*
X172937975Y-63585565D01*
X172758384Y-63351518D01*
X172758378Y-63351511D01*
X172549784Y-63142917D01*
X172549777Y-63142911D01*
X172315730Y-62963320D01*
X172060247Y-62815817D01*
X172060237Y-62815813D01*
X171787698Y-62702923D01*
X171787691Y-62702921D01*
X171787689Y-62702920D01*
X171502730Y-62626566D01*
X171453850Y-62620130D01*
X171210250Y-62588059D01*
X171210243Y-62588059D01*
X170915231Y-62588059D01*
X170915223Y-62588059D01*
X170636822Y-62624712D01*
X170622744Y-62626566D01*
X170337785Y-62702920D01*
X170337775Y-62702923D01*
X170065236Y-62815813D01*
X170065226Y-62815817D01*
X169809743Y-62963320D01*
X169575696Y-63142911D01*
X169575689Y-63142917D01*
X169367095Y-63351511D01*
X169367089Y-63351518D01*
X169187498Y-63585565D01*
X169039995Y-63841048D01*
X169039991Y-63841058D01*
X168927101Y-64113597D01*
X168927098Y-64113607D01*
X168850745Y-64398563D01*
X168850743Y-64398574D01*
X168812237Y-64691045D01*
X167073591Y-64691045D01*
X167056139Y-64580858D01*
X167002610Y-64416114D01*
X166923969Y-64261771D01*
X166822151Y-64121631D01*
X166770219Y-64069699D01*
X166736734Y-64008376D01*
X166741718Y-63938684D01*
X166783590Y-63882751D01*
X166849054Y-63858334D01*
X166877298Y-63859545D01*
X166877949Y-63859648D01*
X166877952Y-63859649D01*
X167126775Y-63899059D01*
X167126776Y-63899059D01*
X167378698Y-63899059D01*
X167378699Y-63899059D01*
X167627522Y-63859649D01*
X167867116Y-63781800D01*
X168091582Y-63667429D01*
X168295393Y-63519352D01*
X168473530Y-63341215D01*
X168621607Y-63137404D01*
X168735978Y-62912938D01*
X168813827Y-62673344D01*
X168853237Y-62424521D01*
X168853237Y-62172597D01*
X168813827Y-61923774D01*
X168735978Y-61684180D01*
X168735976Y-61684177D01*
X168735976Y-61684175D01*
X168694484Y-61602743D01*
X168621607Y-61459714D01*
X168534228Y-61339447D01*
X168473535Y-61255909D01*
X168473531Y-61255904D01*
X168295391Y-61077764D01*
X168295386Y-61077760D01*
X168091585Y-60929691D01*
X168091584Y-60929690D01*
X168091582Y-60929689D01*
X168021484Y-60893972D01*
X167867120Y-60815319D01*
X167627522Y-60737469D01*
X167514071Y-60719500D01*
X167378699Y-60698059D01*
X167126775Y-60698059D01*
X167002363Y-60717764D01*
X166877951Y-60737469D01*
X166638353Y-60815319D01*
X166413888Y-60929691D01*
X166210087Y-61077760D01*
X166210082Y-61077764D01*
X166031942Y-61255904D01*
X166031938Y-61255909D01*
X165883869Y-61459710D01*
X165769497Y-61684175D01*
X165691647Y-61923773D01*
X165652237Y-62172597D01*
X165652237Y-62424520D01*
X165691647Y-62673344D01*
X165769497Y-62912942D01*
X165883869Y-63137407D01*
X166031938Y-63341208D01*
X166031942Y-63341213D01*
X166031944Y-63341215D01*
X166210081Y-63519352D01*
X166210082Y-63519353D01*
X166210081Y-63519353D01*
X166216398Y-63523942D01*
X166259064Y-63579273D01*
X166265042Y-63648886D01*
X166232436Y-63710681D01*
X166171597Y-63745038D01*
X166124115Y-63746733D01*
X166069348Y-63738059D01*
X165896126Y-63738059D01*
X165856465Y-63744340D01*
X165725039Y-63765156D01*
X165560289Y-63818687D01*
X165405948Y-63897327D01*
X165374054Y-63920500D01*
X165265809Y-63999145D01*
X165265807Y-63999147D01*
X165265806Y-63999147D01*
X165143325Y-64121628D01*
X165143325Y-64121629D01*
X165143323Y-64121631D01*
X165099596Y-64181815D01*
X165041505Y-64261770D01*
X164962865Y-64416111D01*
X164962864Y-64416113D01*
X164962864Y-64416114D01*
X164956432Y-64435909D01*
X164909334Y-64580861D01*
X164882237Y-64751948D01*
X158200272Y-64751948D01*
X158173402Y-64582299D01*
X158119873Y-64417555D01*
X158041232Y-64263212D01*
X157939414Y-64123072D01*
X157816928Y-64000586D01*
X157676788Y-63898768D01*
X157522445Y-63820127D01*
X157357701Y-63766598D01*
X157357699Y-63766597D01*
X157357698Y-63766597D01*
X157226271Y-63745781D01*
X157186611Y-63739500D01*
X157013389Y-63739500D01*
X156973728Y-63745781D01*
X156842302Y-63766597D01*
X156677552Y-63820128D01*
X156523211Y-63898768D01*
X156466289Y-63940125D01*
X156383072Y-64000586D01*
X156383070Y-64000588D01*
X156383069Y-64000588D01*
X156260588Y-64123069D01*
X156260588Y-64123070D01*
X156260586Y-64123072D01*
X156246057Y-64143070D01*
X156158768Y-64263211D01*
X156080128Y-64417552D01*
X156026597Y-64582302D01*
X156003808Y-64726189D01*
X155999500Y-64753389D01*
X154270500Y-64753389D01*
X154270500Y-64692494D01*
X154231993Y-64400007D01*
X154155639Y-64115048D01*
X154145055Y-64089497D01*
X154116512Y-64020588D01*
X154042743Y-63842493D01*
X154040428Y-63838484D01*
X153895238Y-63587006D01*
X153715647Y-63352959D01*
X153715641Y-63352952D01*
X153507047Y-63144358D01*
X153507040Y-63144352D01*
X153272993Y-62964761D01*
X153017510Y-62817258D01*
X153017500Y-62817254D01*
X152744961Y-62704364D01*
X152744954Y-62704362D01*
X152744952Y-62704361D01*
X152459993Y-62628007D01*
X152411113Y-62621571D01*
X152167513Y-62589500D01*
X152167506Y-62589500D01*
X151872494Y-62589500D01*
X151872486Y-62589500D01*
X151594085Y-62626153D01*
X151580007Y-62628007D01*
X151505362Y-62648008D01*
X151295048Y-62704361D01*
X151295038Y-62704364D01*
X151022499Y-62817254D01*
X151022489Y-62817258D01*
X150767006Y-62964761D01*
X150532959Y-63144352D01*
X150532952Y-63144358D01*
X150324358Y-63352952D01*
X150324352Y-63352959D01*
X150144761Y-63587006D01*
X149997258Y-63842489D01*
X149997254Y-63842499D01*
X149884364Y-64115038D01*
X149884361Y-64115048D01*
X149839743Y-64281568D01*
X149808008Y-64400004D01*
X149808006Y-64400015D01*
X149769500Y-64692486D01*
X148030854Y-64692486D01*
X148013402Y-64582299D01*
X147959873Y-64417555D01*
X147881232Y-64263212D01*
X147779414Y-64123072D01*
X147727482Y-64071140D01*
X147693997Y-64009817D01*
X147698981Y-63940125D01*
X147740853Y-63884192D01*
X147806317Y-63859775D01*
X147834561Y-63860986D01*
X147835212Y-63861089D01*
X147835215Y-63861090D01*
X148084038Y-63900500D01*
X148084039Y-63900500D01*
X148335961Y-63900500D01*
X148335962Y-63900500D01*
X148584785Y-63861090D01*
X148824379Y-63783241D01*
X149048845Y-63668870D01*
X149252656Y-63520793D01*
X149430793Y-63342656D01*
X149578870Y-63138845D01*
X149693241Y-62914379D01*
X149771090Y-62674785D01*
X149810500Y-62425962D01*
X149810500Y-62174038D01*
X149771090Y-61925215D01*
X149693241Y-61685621D01*
X149693239Y-61685618D01*
X149693239Y-61685616D01*
X149588223Y-61479512D01*
X149578870Y-61461155D01*
X149491637Y-61341089D01*
X149430798Y-61257350D01*
X149430794Y-61257345D01*
X149252654Y-61079205D01*
X149252649Y-61079201D01*
X149048848Y-60931132D01*
X149048847Y-60931131D01*
X149048845Y-60931130D01*
X148978747Y-60895413D01*
X148824383Y-60816760D01*
X148584785Y-60738910D01*
X148462236Y-60719500D01*
X148335962Y-60699500D01*
X148084038Y-60699500D01*
X147968137Y-60717857D01*
X147835214Y-60738910D01*
X147595616Y-60816760D01*
X147371151Y-60931132D01*
X147167350Y-61079201D01*
X147167345Y-61079205D01*
X146989205Y-61257345D01*
X146989201Y-61257350D01*
X146841132Y-61461151D01*
X146726760Y-61685616D01*
X146648910Y-61925214D01*
X146645742Y-61945214D01*
X146609500Y-62174038D01*
X146609500Y-62425962D01*
X146612668Y-62445961D01*
X146648910Y-62674785D01*
X146726760Y-62914383D01*
X146805413Y-63068747D01*
X146840397Y-63137407D01*
X146841132Y-63138848D01*
X146989201Y-63342649D01*
X146989205Y-63342654D01*
X146989207Y-63342656D01*
X147167344Y-63520793D01*
X147167345Y-63520794D01*
X147167344Y-63520794D01*
X147173661Y-63525383D01*
X147216327Y-63580714D01*
X147222305Y-63650327D01*
X147189699Y-63712122D01*
X147128860Y-63746479D01*
X147081378Y-63748174D01*
X147026611Y-63739500D01*
X146853389Y-63739500D01*
X146813728Y-63745781D01*
X146682302Y-63766597D01*
X146517552Y-63820128D01*
X146363211Y-63898768D01*
X146306289Y-63940125D01*
X146223072Y-64000586D01*
X146223070Y-64000588D01*
X146223069Y-64000588D01*
X146100588Y-64123069D01*
X146100588Y-64123070D01*
X146100586Y-64123072D01*
X146086057Y-64143070D01*
X145998768Y-64263211D01*
X145920128Y-64417552D01*
X145866597Y-64582302D01*
X145843808Y-64726189D01*
X145839500Y-64753389D01*
X139159134Y-64753389D01*
X139134943Y-64600656D01*
X139081414Y-64435912D01*
X139002773Y-64281569D01*
X138900955Y-64141429D01*
X138778469Y-64018943D01*
X138638329Y-63917125D01*
X138483986Y-63838484D01*
X138319242Y-63784955D01*
X138319240Y-63784954D01*
X138319239Y-63784954D01*
X138158525Y-63759500D01*
X138148152Y-63757857D01*
X137974930Y-63757857D01*
X137964557Y-63759500D01*
X137803843Y-63784954D01*
X137747568Y-63803239D01*
X137700028Y-63818686D01*
X137639093Y-63838485D01*
X137484752Y-63917125D01*
X137453096Y-63940125D01*
X137344613Y-64018943D01*
X137344611Y-64018945D01*
X137344610Y-64018945D01*
X137222129Y-64141426D01*
X137222129Y-64141427D01*
X137222127Y-64141429D01*
X137178400Y-64201613D01*
X137120309Y-64281568D01*
X137041669Y-64435909D01*
X136988138Y-64600659D01*
X136961041Y-64771746D01*
X135232041Y-64771746D01*
X135232041Y-64710851D01*
X135193534Y-64418364D01*
X135117180Y-64133405D01*
X135004284Y-63860850D01*
X135003663Y-63859775D01*
X134856779Y-63605363D01*
X134677188Y-63371316D01*
X134677182Y-63371309D01*
X134468588Y-63162715D01*
X134468581Y-63162709D01*
X134234534Y-62983118D01*
X133979051Y-62835615D01*
X133979041Y-62835611D01*
X133706502Y-62722721D01*
X133706495Y-62722719D01*
X133706493Y-62722718D01*
X133421534Y-62646364D01*
X133372654Y-62639928D01*
X133129054Y-62607857D01*
X133129047Y-62607857D01*
X132834035Y-62607857D01*
X132834027Y-62607857D01*
X132555626Y-62644510D01*
X132541548Y-62646364D01*
X132325099Y-62704361D01*
X132256589Y-62722718D01*
X132256579Y-62722721D01*
X131984040Y-62835611D01*
X131984030Y-62835615D01*
X131728547Y-62983118D01*
X131494500Y-63162709D01*
X131494493Y-63162715D01*
X131285899Y-63371309D01*
X131285893Y-63371316D01*
X131106302Y-63605363D01*
X130958799Y-63860846D01*
X130958795Y-63860856D01*
X130845905Y-64133395D01*
X130845902Y-64133405D01*
X130769549Y-64418361D01*
X130769547Y-64418372D01*
X130731041Y-64710843D01*
X128992395Y-64710843D01*
X128974943Y-64600656D01*
X128921414Y-64435912D01*
X128842773Y-64281569D01*
X128740955Y-64141429D01*
X128689023Y-64089497D01*
X128655538Y-64028174D01*
X128660522Y-63958482D01*
X128702394Y-63902549D01*
X128767858Y-63878132D01*
X128796102Y-63879343D01*
X128796753Y-63879446D01*
X128796756Y-63879447D01*
X129045579Y-63918857D01*
X129045580Y-63918857D01*
X129297502Y-63918857D01*
X129297503Y-63918857D01*
X129546326Y-63879447D01*
X129785920Y-63801598D01*
X130010386Y-63687227D01*
X130214197Y-63539150D01*
X130392334Y-63361013D01*
X130540411Y-63157202D01*
X130654782Y-62932736D01*
X130732631Y-62693142D01*
X130772041Y-62444319D01*
X130772041Y-62192395D01*
X130732631Y-61943572D01*
X130654782Y-61703978D01*
X130654780Y-61703975D01*
X130654780Y-61703973D01*
X130613288Y-61622541D01*
X130540411Y-61479512D01*
X130438648Y-61339447D01*
X130392339Y-61275707D01*
X130392335Y-61275702D01*
X130214195Y-61097562D01*
X130214190Y-61097558D01*
X130010389Y-60949489D01*
X130010388Y-60949488D01*
X130010386Y-60949487D01*
X129940288Y-60913770D01*
X129785924Y-60835117D01*
X129546326Y-60757267D01*
X129421327Y-60737469D01*
X129297503Y-60717857D01*
X129045579Y-60717857D01*
X128921755Y-60737469D01*
X128796755Y-60757267D01*
X128557157Y-60835117D01*
X128332692Y-60949489D01*
X128128891Y-61097558D01*
X128128886Y-61097562D01*
X127950746Y-61275702D01*
X127950742Y-61275707D01*
X127802673Y-61479508D01*
X127688301Y-61703973D01*
X127610451Y-61943571D01*
X127610451Y-61943572D01*
X127571041Y-62192395D01*
X127571041Y-62444319D01*
X127600134Y-62628006D01*
X127610451Y-62693142D01*
X127688301Y-62932740D01*
X127766954Y-63087104D01*
X127795392Y-63142917D01*
X127802673Y-63157205D01*
X127950742Y-63361006D01*
X127950746Y-63361011D01*
X127950748Y-63361013D01*
X128128885Y-63539150D01*
X128128886Y-63539151D01*
X128128885Y-63539151D01*
X128135202Y-63543740D01*
X128177868Y-63599071D01*
X128183846Y-63668684D01*
X128151240Y-63730479D01*
X128090401Y-63764836D01*
X128042919Y-63766531D01*
X127988152Y-63757857D01*
X127814930Y-63757857D01*
X127804557Y-63759500D01*
X127643843Y-63784954D01*
X127587568Y-63803239D01*
X127540028Y-63818686D01*
X127479093Y-63838485D01*
X127324752Y-63917125D01*
X127293096Y-63940125D01*
X127184613Y-64018943D01*
X127184611Y-64018945D01*
X127184610Y-64018945D01*
X127062129Y-64141426D01*
X127062129Y-64141427D01*
X127062127Y-64141429D01*
X127018400Y-64201613D01*
X126960309Y-64281568D01*
X126881669Y-64435909D01*
X126828138Y-64600659D01*
X126801041Y-64771746D01*
X120100240Y-64771746D01*
X120073402Y-64602299D01*
X120019873Y-64437555D01*
X119941232Y-64283212D01*
X119839414Y-64143072D01*
X119716928Y-64020586D01*
X119576788Y-63918768D01*
X119422445Y-63840127D01*
X119257701Y-63786598D01*
X119257699Y-63786597D01*
X119257698Y-63786597D01*
X119122328Y-63765157D01*
X119086611Y-63759500D01*
X118913389Y-63759500D01*
X118877672Y-63765157D01*
X118742302Y-63786597D01*
X118577552Y-63840128D01*
X118423211Y-63918768D01*
X118366289Y-63960125D01*
X118283072Y-64020586D01*
X118283070Y-64020588D01*
X118283069Y-64020588D01*
X118160588Y-64143069D01*
X118160588Y-64143070D01*
X118160586Y-64143072D01*
X118116859Y-64203256D01*
X118058768Y-64283211D01*
X117980128Y-64437552D01*
X117926597Y-64602302D01*
X117899500Y-64773389D01*
X116170500Y-64773389D01*
X116170500Y-64712494D01*
X116170284Y-64710857D01*
X116167676Y-64691045D01*
X116131993Y-64420007D01*
X116055639Y-64135048D01*
X116054958Y-64133405D01*
X116008227Y-64020586D01*
X115942743Y-63862493D01*
X115941932Y-63861089D01*
X115795238Y-63607006D01*
X115615647Y-63372959D01*
X115615641Y-63372952D01*
X115407047Y-63164358D01*
X115407040Y-63164352D01*
X115172993Y-62984761D01*
X114917510Y-62837258D01*
X114917500Y-62837254D01*
X114644961Y-62724364D01*
X114644954Y-62724362D01*
X114644952Y-62724361D01*
X114359993Y-62648007D01*
X114311113Y-62641571D01*
X114067513Y-62609500D01*
X114067506Y-62609500D01*
X113772494Y-62609500D01*
X113772486Y-62609500D01*
X113494085Y-62646153D01*
X113480007Y-62648007D01*
X113201180Y-62722718D01*
X113195048Y-62724361D01*
X113195038Y-62724364D01*
X112922499Y-62837254D01*
X112922489Y-62837258D01*
X112667006Y-62984761D01*
X112432959Y-63164352D01*
X112432952Y-63164358D01*
X112224358Y-63372952D01*
X112224352Y-63372959D01*
X112044761Y-63607006D01*
X111897258Y-63862489D01*
X111897254Y-63862499D01*
X111784364Y-64135038D01*
X111784361Y-64135048D01*
X111708008Y-64420004D01*
X111708006Y-64420015D01*
X111669500Y-64712486D01*
X109930854Y-64712486D01*
X109913402Y-64602299D01*
X109859873Y-64437555D01*
X109781232Y-64283212D01*
X109679414Y-64143072D01*
X109627482Y-64091140D01*
X109593997Y-64029817D01*
X109598981Y-63960125D01*
X109640853Y-63904192D01*
X109706317Y-63879775D01*
X109734561Y-63880986D01*
X109735212Y-63881089D01*
X109735215Y-63881090D01*
X109984038Y-63920500D01*
X109984039Y-63920500D01*
X110235961Y-63920500D01*
X110235962Y-63920500D01*
X110484785Y-63881090D01*
X110724379Y-63803241D01*
X110727608Y-63801596D01*
X110730048Y-63800352D01*
X110948845Y-63688870D01*
X111152656Y-63540793D01*
X111330793Y-63362656D01*
X111478870Y-63158845D01*
X111593241Y-62934379D01*
X111671090Y-62694785D01*
X111710500Y-62445962D01*
X111710500Y-62194038D01*
X111671090Y-61945215D01*
X111593241Y-61705621D01*
X111593239Y-61705618D01*
X111593239Y-61705616D01*
X111551747Y-61624184D01*
X111478870Y-61481155D01*
X111405740Y-61380500D01*
X111330798Y-61277350D01*
X111330794Y-61277345D01*
X111152654Y-61099205D01*
X111152649Y-61099201D01*
X110948848Y-60951132D01*
X110948847Y-60951131D01*
X110948845Y-60951130D01*
X110878747Y-60915413D01*
X110724383Y-60836760D01*
X110484785Y-60758910D01*
X110474412Y-60757267D01*
X110235962Y-60719500D01*
X109984038Y-60719500D01*
X109870587Y-60737469D01*
X109735214Y-60758910D01*
X109495616Y-60836760D01*
X109271151Y-60951132D01*
X109067350Y-61099201D01*
X109067345Y-61099205D01*
X108889205Y-61277345D01*
X108889201Y-61277350D01*
X108741132Y-61481151D01*
X108626760Y-61705616D01*
X108555408Y-61925215D01*
X108548910Y-61945215D01*
X108509500Y-62194038D01*
X108509500Y-62445962D01*
X108541241Y-62646363D01*
X108548910Y-62694785D01*
X108626760Y-62934383D01*
X108652430Y-62984762D01*
X108740294Y-63157205D01*
X108741132Y-63158848D01*
X108889201Y-63362649D01*
X108889205Y-63362654D01*
X108889207Y-63362656D01*
X109067344Y-63540793D01*
X109067345Y-63540794D01*
X109067344Y-63540794D01*
X109073661Y-63545383D01*
X109116327Y-63600714D01*
X109122305Y-63670327D01*
X109089699Y-63732122D01*
X109028860Y-63766479D01*
X108981378Y-63768174D01*
X108926611Y-63759500D01*
X108753389Y-63759500D01*
X108717672Y-63765157D01*
X108582302Y-63786597D01*
X108417552Y-63840128D01*
X108263211Y-63918768D01*
X108206289Y-63960125D01*
X108123072Y-64020586D01*
X108123070Y-64020588D01*
X108123069Y-64020588D01*
X108000588Y-64143069D01*
X108000588Y-64143070D01*
X108000586Y-64143072D01*
X107956859Y-64203256D01*
X107898768Y-64283211D01*
X107820128Y-64437552D01*
X107766597Y-64602302D01*
X107739500Y-64773389D01*
X104600500Y-64773389D01*
X104600500Y-59721941D01*
X104620185Y-59654902D01*
X104672989Y-59609147D01*
X104742147Y-59599203D01*
X104805703Y-59628228D01*
X104812181Y-59634260D01*
X104819707Y-59641786D01*
X104819711Y-59641789D01*
X104950814Y-59729390D01*
X104950827Y-59729397D01*
X105096498Y-59789735D01*
X105096503Y-59789737D01*
X105251153Y-59820499D01*
X105251156Y-59820500D01*
X105251158Y-59820500D01*
X105440194Y-59820500D01*
X105440195Y-59820499D01*
X105594847Y-59789737D01*
X105740529Y-59729394D01*
X105871639Y-59641789D01*
X105983139Y-59530289D01*
X106070744Y-59399179D01*
X106131087Y-59253497D01*
X106161850Y-59098842D01*
X106161850Y-58941158D01*
X106161850Y-58941155D01*
X106161849Y-58941153D01*
X106131088Y-58786510D01*
X106131087Y-58786503D01*
X106131085Y-58786498D01*
X106070747Y-58640827D01*
X106070740Y-58640814D01*
X105983139Y-58509711D01*
X105983136Y-58509707D01*
X105871642Y-58398213D01*
X105871638Y-58398210D01*
X105740535Y-58310609D01*
X105740522Y-58310602D01*
X105594851Y-58250264D01*
X105594839Y-58250261D01*
X105440195Y-58219500D01*
X105440192Y-58219500D01*
X105408842Y-58219500D01*
X105251158Y-58219500D01*
X105251155Y-58219500D01*
X105096510Y-58250261D01*
X105096498Y-58250264D01*
X104950827Y-58310602D01*
X104950814Y-58310609D01*
X104819711Y-58398210D01*
X104819707Y-58398213D01*
X104812181Y-58405740D01*
X104750858Y-58439225D01*
X104681166Y-58434241D01*
X104625233Y-58392369D01*
X104600816Y-58326905D01*
X104600500Y-58318059D01*
X104600500Y-56120494D01*
X104620185Y-56053455D01*
X104672989Y-56007700D01*
X104742147Y-55997756D01*
X104780793Y-56010009D01*
X104838613Y-56039469D01*
X104901583Y-56071555D01*
X104901585Y-56071555D01*
X104901588Y-56071557D01*
X105103757Y-56137246D01*
X105313713Y-56170500D01*
X105313714Y-56170500D01*
X107426286Y-56170500D01*
X107426287Y-56170500D01*
X107636243Y-56137246D01*
X107716264Y-56111244D01*
X107786101Y-56109249D01*
X107842260Y-56141495D01*
X111845139Y-60144374D01*
X111845149Y-60144385D01*
X111849479Y-60148715D01*
X111849480Y-60148716D01*
X111961284Y-60260520D01*
X111961286Y-60260521D01*
X111961290Y-60260524D01*
X112047886Y-60310520D01*
X112047887Y-60310520D01*
X112098215Y-60339577D01*
X112250942Y-60380500D01*
X112250943Y-60380500D01*
X114893700Y-60380500D01*
X114960739Y-60400185D01*
X115004184Y-60448204D01*
X115090294Y-60617205D01*
X115091132Y-60618848D01*
X115239201Y-60822649D01*
X115239205Y-60822654D01*
X115417345Y-61000794D01*
X115417350Y-61000798D01*
X115591640Y-61127426D01*
X115621155Y-61148870D01*
X115764184Y-61221747D01*
X115845616Y-61263239D01*
X115845618Y-61263239D01*
X115845621Y-61263241D01*
X116085215Y-61341090D01*
X116334038Y-61380500D01*
X116334039Y-61380500D01*
X116585961Y-61380500D01*
X116585962Y-61380500D01*
X116834785Y-61341090D01*
X117074379Y-61263241D01*
X117077608Y-61261596D01*
X117085941Y-61257350D01*
X117298845Y-61148870D01*
X117502656Y-61000793D01*
X117680793Y-60822656D01*
X117828870Y-60618845D01*
X117926740Y-60426763D01*
X117974715Y-60375968D01*
X118037225Y-60359059D01*
X133945153Y-60359059D01*
X134012192Y-60378744D01*
X134055638Y-60426764D01*
X134142583Y-60597404D01*
X134152673Y-60617205D01*
X134300742Y-60821006D01*
X134300746Y-60821011D01*
X134478886Y-60999151D01*
X134478891Y-60999155D01*
X134616594Y-61099201D01*
X134682696Y-61147227D01*
X134825725Y-61220104D01*
X134907157Y-61261596D01*
X134907159Y-61261596D01*
X134907162Y-61261598D01*
X135146756Y-61339447D01*
X135395579Y-61378857D01*
X135395580Y-61378857D01*
X135647502Y-61378857D01*
X135647503Y-61378857D01*
X135896326Y-61339447D01*
X136135920Y-61261598D01*
X136360386Y-61147227D01*
X136564197Y-60999150D01*
X136742334Y-60821013D01*
X136890411Y-60617202D01*
X136987444Y-60426764D01*
X137035419Y-60375968D01*
X137097929Y-60359059D01*
X152992966Y-60359059D01*
X153060005Y-60378744D01*
X153103449Y-60426762D01*
X153185372Y-60587544D01*
X153191132Y-60598849D01*
X153339201Y-60802649D01*
X153339205Y-60802654D01*
X153517345Y-60980794D01*
X153517350Y-60980798D01*
X153680327Y-61099207D01*
X153721155Y-61128870D01*
X153864184Y-61201747D01*
X153945616Y-61243239D01*
X153945618Y-61243239D01*
X153945621Y-61243241D01*
X154185215Y-61321090D01*
X154434038Y-61360500D01*
X154434039Y-61360500D01*
X154685961Y-61360500D01*
X154685962Y-61360500D01*
X154934785Y-61321090D01*
X155174379Y-61243241D01*
X155398845Y-61128870D01*
X155602656Y-60980793D01*
X155780793Y-60802656D01*
X155928870Y-60598845D01*
X156016550Y-60426762D01*
X156064523Y-60375968D01*
X156127034Y-60359059D01*
X172036437Y-60359059D01*
X172103476Y-60378744D01*
X172146921Y-60426763D01*
X172157846Y-60448205D01*
X172233869Y-60597407D01*
X172381938Y-60801208D01*
X172381942Y-60801213D01*
X172560082Y-60979353D01*
X172560087Y-60979357D01*
X172722786Y-61097564D01*
X172763892Y-61127429D01*
X172906921Y-61200306D01*
X172988353Y-61241798D01*
X172988355Y-61241798D01*
X172988358Y-61241800D01*
X173227952Y-61319649D01*
X173476775Y-61359059D01*
X173476776Y-61359059D01*
X173728698Y-61359059D01*
X173728699Y-61359059D01*
X173977522Y-61319649D01*
X174217116Y-61241800D01*
X174441582Y-61127429D01*
X174645393Y-60979352D01*
X174823530Y-60801215D01*
X174971607Y-60597404D01*
X175085978Y-60372938D01*
X175163827Y-60133344D01*
X175203237Y-59884521D01*
X175203237Y-59632597D01*
X175163827Y-59383774D01*
X175085978Y-59144180D01*
X175085976Y-59144177D01*
X175085976Y-59144175D01*
X175044484Y-59062743D01*
X174971607Y-58919714D01*
X174874824Y-58786503D01*
X174823535Y-58715909D01*
X174823531Y-58715904D01*
X174645391Y-58537764D01*
X174645386Y-58537760D01*
X174441585Y-58389691D01*
X174441584Y-58389690D01*
X174441582Y-58389689D01*
X174371484Y-58353972D01*
X174217120Y-58275319D01*
X173977522Y-58197469D01*
X173864071Y-58179500D01*
X173728699Y-58158059D01*
X173476775Y-58158059D01*
X173352363Y-58177764D01*
X173227951Y-58197469D01*
X172988353Y-58275319D01*
X172763888Y-58389691D01*
X172560087Y-58537760D01*
X172560082Y-58537764D01*
X172381942Y-58715904D01*
X172381938Y-58715909D01*
X172233869Y-58919710D01*
X172146922Y-59090354D01*
X172098948Y-59141150D01*
X172036437Y-59158059D01*
X156125566Y-59158059D01*
X156058527Y-59138374D01*
X156015081Y-59090354D01*
X155928870Y-58921155D01*
X155831040Y-58786503D01*
X155780798Y-58717350D01*
X155780794Y-58717345D01*
X155602654Y-58539205D01*
X155602649Y-58539201D01*
X155398848Y-58391132D01*
X155398847Y-58391131D01*
X155398845Y-58391130D01*
X155328747Y-58355413D01*
X155174383Y-58276760D01*
X154934785Y-58198910D01*
X154812236Y-58179500D01*
X154685962Y-58159500D01*
X154434038Y-58159500D01*
X154318137Y-58177857D01*
X154185214Y-58198910D01*
X153945616Y-58276760D01*
X153721151Y-58391132D01*
X153517350Y-58539201D01*
X153517345Y-58539205D01*
X153339205Y-58717345D01*
X153339201Y-58717350D01*
X153191132Y-58921151D01*
X153104919Y-59090354D01*
X153056944Y-59141150D01*
X152994434Y-59158059D01*
X137077754Y-59158059D01*
X137010715Y-59138374D01*
X136967269Y-59090354D01*
X136947174Y-59050916D01*
X136890411Y-58939512D01*
X136779244Y-58786503D01*
X136742339Y-58735707D01*
X136742335Y-58735702D01*
X136564195Y-58557562D01*
X136564190Y-58557558D01*
X136360389Y-58409489D01*
X136360388Y-58409488D01*
X136360386Y-58409487D01*
X136290288Y-58373770D01*
X136135924Y-58295117D01*
X135896326Y-58217267D01*
X135771327Y-58197469D01*
X135647503Y-58177857D01*
X135395579Y-58177857D01*
X135271755Y-58197469D01*
X135146755Y-58217267D01*
X134907157Y-58295117D01*
X134682692Y-58409489D01*
X134478891Y-58557558D01*
X134478886Y-58557562D01*
X134300746Y-58735702D01*
X134300742Y-58735707D01*
X134152673Y-58939508D01*
X134075813Y-59090354D01*
X134027838Y-59141150D01*
X133965328Y-59158059D01*
X118015376Y-59158059D01*
X117948337Y-59138374D01*
X117904891Y-59090354D01*
X117883087Y-59047562D01*
X117828870Y-58941155D01*
X117809952Y-58915117D01*
X117680798Y-58737350D01*
X117680794Y-58737345D01*
X117502654Y-58559205D01*
X117502649Y-58559201D01*
X117298848Y-58411132D01*
X117298847Y-58411131D01*
X117298845Y-58411130D01*
X117228747Y-58375413D01*
X117074383Y-58296760D01*
X116834785Y-58218910D01*
X116824412Y-58217267D01*
X116585962Y-58179500D01*
X116334038Y-58179500D01*
X116220587Y-58197469D01*
X116085214Y-58218910D01*
X115845616Y-58296760D01*
X115621151Y-58411132D01*
X115417350Y-58559201D01*
X115417345Y-58559205D01*
X115239205Y-58737345D01*
X115239201Y-58737350D01*
X115091132Y-58941151D01*
X115091131Y-58941153D01*
X115091130Y-58941155D01*
X115015110Y-59090354D01*
X115004185Y-59111795D01*
X114956211Y-59162591D01*
X114893700Y-59179500D01*
X112630097Y-59179500D01*
X112563058Y-59159815D01*
X112542416Y-59143181D01*
X109031417Y-55632182D01*
X109020809Y-55612755D01*
X109006310Y-55596027D01*
X109004390Y-55582686D01*
X108997932Y-55570859D01*
X108999510Y-55548780D01*
X108996358Y-55526870D01*
X109001954Y-55514610D01*
X109002916Y-55501167D01*
X109016181Y-55483446D01*
X109025374Y-55463311D01*
X109036711Y-55456022D01*
X109044788Y-55445234D01*
X109065524Y-55437499D01*
X109084147Y-55425528D01*
X109106078Y-55422373D01*
X109110252Y-55420817D01*
X109119082Y-55420501D01*
X109126654Y-55420500D01*
X121384281Y-55420500D01*
X121451320Y-55440185D01*
X121494765Y-55488205D01*
X121514947Y-55527814D01*
X121514948Y-55527815D01*
X121639890Y-55699786D01*
X121790213Y-55850109D01*
X121962179Y-55975048D01*
X121962181Y-55975049D01*
X121962184Y-55975051D01*
X122151588Y-56071557D01*
X122353757Y-56137246D01*
X122563713Y-56170500D01*
X122563714Y-56170500D01*
X124676286Y-56170500D01*
X124676287Y-56170500D01*
X124886243Y-56137246D01*
X125088412Y-56071557D01*
X125277816Y-55975051D01*
X125389501Y-55893908D01*
X125449786Y-55850109D01*
X125449788Y-55850106D01*
X125449792Y-55850104D01*
X125600104Y-55699792D01*
X125600106Y-55699788D01*
X125600109Y-55699786D01*
X125725048Y-55527820D01*
X125725047Y-55527820D01*
X125725051Y-55527816D01*
X125821557Y-55338412D01*
X125821559Y-55338403D01*
X125823327Y-55334138D01*
X125843923Y-55308577D01*
X125863580Y-55282320D01*
X125865726Y-55281519D01*
X125867166Y-55279733D01*
X125898311Y-55269365D01*
X125929044Y-55257903D01*
X125931284Y-55258390D01*
X125933460Y-55257666D01*
X125965260Y-55265781D01*
X125997317Y-55272755D01*
X125999763Y-55274586D01*
X126001160Y-55274943D01*
X126025571Y-55293906D01*
X126127039Y-55395374D01*
X126127049Y-55395385D01*
X126131379Y-55399715D01*
X126131380Y-55399716D01*
X126243184Y-55511520D01*
X126324931Y-55558716D01*
X126380115Y-55590577D01*
X126532843Y-55631501D01*
X126532846Y-55631501D01*
X126698553Y-55631501D01*
X126698569Y-55631500D01*
X165563803Y-55631500D01*
X165630842Y-55651185D01*
X165651484Y-55667819D01*
X166999039Y-57015374D01*
X166999049Y-57015385D01*
X167003379Y-57019715D01*
X167003380Y-57019716D01*
X167115184Y-57131520D01*
X167201995Y-57181639D01*
X167201997Y-57181641D01*
X167240051Y-57203611D01*
X167252115Y-57210577D01*
X167404843Y-57251501D01*
X167404846Y-57251501D01*
X167570553Y-57251501D01*
X167570569Y-57251500D01*
X174202331Y-57251500D01*
X174202347Y-57251501D01*
X174209943Y-57251501D01*
X174368054Y-57251501D01*
X174368057Y-57251501D01*
X174520785Y-57210577D01*
X174570904Y-57181639D01*
X174657716Y-57131520D01*
X174769520Y-57019716D01*
X174769520Y-57019714D01*
X174779728Y-57009507D01*
X174779730Y-57009504D01*
X176108506Y-55680728D01*
X176108511Y-55680724D01*
X176118714Y-55670520D01*
X176118716Y-55670520D01*
X176230520Y-55558716D01*
X176288794Y-55457782D01*
X176289811Y-55456022D01*
X176307616Y-55425182D01*
X176309577Y-55421785D01*
X176350501Y-55269057D01*
X176350501Y-55110943D01*
X176350501Y-55103348D01*
X176350500Y-55103330D01*
X176350500Y-52789060D01*
X176350501Y-52789047D01*
X176350501Y-52620944D01*
X176344659Y-52599142D01*
X176309577Y-52468216D01*
X176280793Y-52418360D01*
X176230524Y-52331290D01*
X176230518Y-52331282D01*
X173822590Y-49923355D01*
X173822588Y-49923352D01*
X173703717Y-49804481D01*
X173703716Y-49804480D01*
X173616904Y-49754360D01*
X173616904Y-49754359D01*
X173616900Y-49754358D01*
X173566785Y-49725423D01*
X173414057Y-49684499D01*
X173255943Y-49684499D01*
X173248347Y-49684499D01*
X173248331Y-49684500D01*
X164030719Y-49684500D01*
X164022122Y-49681975D01*
X164013256Y-49683264D01*
X163989120Y-49672285D01*
X163963680Y-49664815D01*
X163956133Y-49657280D01*
X163949657Y-49654334D01*
X163936966Y-49638142D01*
X163926504Y-49627696D01*
X163923090Y-49622402D01*
X163900051Y-49577184D01*
X163845702Y-49502380D01*
X163843842Y-49499494D01*
X163834887Y-49469165D01*
X163824259Y-49439378D01*
X163825066Y-49435904D01*
X163824057Y-49432484D01*
X163832921Y-49402126D01*
X163840084Y-49371324D01*
X163843058Y-49367408D01*
X163843641Y-49365415D01*
X163846387Y-49363028D01*
X163860372Y-49344621D01*
X164254506Y-48950488D01*
X164254511Y-48950484D01*
X164264714Y-48940280D01*
X164264716Y-48940280D01*
X164376520Y-48828476D01*
X164405488Y-48778300D01*
X164456054Y-48730084D01*
X164524661Y-48716860D01*
X164587185Y-48741032D01*
X164657665Y-48793793D01*
X164657668Y-48793795D01*
X164657671Y-48793797D01*
X164792517Y-48844091D01*
X164792516Y-48844091D01*
X164799444Y-48844835D01*
X164852127Y-48850500D01*
X166947872Y-48850499D01*
X167007483Y-48844091D01*
X167142331Y-48793796D01*
X167257546Y-48707546D01*
X167343796Y-48592331D01*
X167394091Y-48457483D01*
X167400500Y-48397873D01*
X167400499Y-45102135D01*
X175599500Y-45102135D01*
X175599500Y-48397870D01*
X175599501Y-48397876D01*
X175605908Y-48457483D01*
X175656202Y-48592328D01*
X175656206Y-48592335D01*
X175742452Y-48707544D01*
X175742455Y-48707547D01*
X175857664Y-48793793D01*
X175857671Y-48793797D01*
X175992517Y-48844091D01*
X175992516Y-48844091D01*
X175999444Y-48844835D01*
X176052127Y-48850500D01*
X178147872Y-48850499D01*
X178207483Y-48844091D01*
X178342331Y-48793796D01*
X178457546Y-48707546D01*
X178543796Y-48592331D01*
X178594091Y-48457483D01*
X178600500Y-48397873D01*
X178600499Y-45102128D01*
X178594091Y-45042517D01*
X178569372Y-44976243D01*
X178543797Y-44907671D01*
X178543793Y-44907664D01*
X178457547Y-44792455D01*
X178457544Y-44792452D01*
X178342335Y-44706206D01*
X178342328Y-44706202D01*
X178207482Y-44655908D01*
X178207483Y-44655908D01*
X178147883Y-44649501D01*
X178147881Y-44649500D01*
X178147873Y-44649500D01*
X178147864Y-44649500D01*
X176052129Y-44649500D01*
X176052123Y-44649501D01*
X175992516Y-44655908D01*
X175857671Y-44706202D01*
X175857664Y-44706206D01*
X175742455Y-44792452D01*
X175742452Y-44792455D01*
X175656206Y-44907664D01*
X175656202Y-44907671D01*
X175605908Y-45042517D01*
X175599501Y-45102116D01*
X175599501Y-45102123D01*
X175599500Y-45102135D01*
X167400499Y-45102135D01*
X167400499Y-45102128D01*
X167394091Y-45042517D01*
X167369372Y-44976243D01*
X167343797Y-44907671D01*
X167343793Y-44907664D01*
X167257547Y-44792455D01*
X167257544Y-44792452D01*
X167142335Y-44706206D01*
X167142328Y-44706202D01*
X167007482Y-44655908D01*
X167007483Y-44655908D01*
X166947883Y-44649501D01*
X166947881Y-44649500D01*
X166947873Y-44649500D01*
X166947864Y-44649500D01*
X164852129Y-44649500D01*
X164852123Y-44649501D01*
X164792515Y-44655909D01*
X164652836Y-44708005D01*
X164583145Y-44712989D01*
X164521822Y-44679503D01*
X164489730Y-44623918D01*
X164455577Y-44496456D01*
X164395743Y-44392819D01*
X164376524Y-44359530D01*
X164376521Y-44359526D01*
X164376520Y-44359524D01*
X164264716Y-44247720D01*
X164264715Y-44247719D01*
X164260385Y-44243389D01*
X164260374Y-44243379D01*
X164001192Y-43984197D01*
X163967707Y-43922874D01*
X163972691Y-43853182D01*
X163989607Y-43822204D01*
X164038352Y-43757089D01*
X164038354Y-43757086D01*
X164088596Y-43622379D01*
X164088598Y-43622372D01*
X164094999Y-43562844D01*
X164095000Y-43562827D01*
X164095000Y-42915000D01*
X163178012Y-42915000D01*
X163210925Y-42857993D01*
X163245000Y-42730826D01*
X163245000Y-42599174D01*
X163210925Y-42472007D01*
X163178012Y-42415000D01*
X164095000Y-42415000D01*
X164095000Y-41767172D01*
X164094999Y-41767155D01*
X164088598Y-41707627D01*
X164088596Y-41707620D01*
X164038354Y-41572913D01*
X164038350Y-41572906D01*
X163952190Y-41457812D01*
X163952187Y-41457809D01*
X163837093Y-41371649D01*
X163837086Y-41371645D01*
X163702379Y-41321403D01*
X163702372Y-41321401D01*
X163642844Y-41315000D01*
X162995000Y-41315000D01*
X162995000Y-42231988D01*
X162937993Y-42199075D01*
X162810826Y-42165000D01*
X162679174Y-42165000D01*
X162552007Y-42199075D01*
X162495000Y-42231988D01*
X162495000Y-41315000D01*
X161847155Y-41315000D01*
X161787627Y-41321401D01*
X161787620Y-41321403D01*
X161652913Y-41371645D01*
X161652906Y-41371649D01*
X161537812Y-41457809D01*
X161537809Y-41457812D01*
X161451649Y-41572906D01*
X161451645Y-41572913D01*
X161401403Y-41707620D01*
X161401401Y-41707627D01*
X161395000Y-41767155D01*
X161395000Y-42415000D01*
X162311988Y-42415000D01*
X162279075Y-42472007D01*
X162245000Y-42599174D01*
X162245000Y-42730826D01*
X162279075Y-42857993D01*
X162311988Y-42915000D01*
X161593598Y-42915000D01*
X161571300Y-42908452D01*
X161548155Y-42906373D01*
X161535124Y-42897830D01*
X161526559Y-42895315D01*
X161517491Y-42888897D01*
X161511389Y-42884153D01*
X161426716Y-42799480D01*
X161339904Y-42749360D01*
X161289785Y-42720423D01*
X161137057Y-42679499D01*
X160978943Y-42679499D01*
X160971347Y-42679499D01*
X160971331Y-42679500D01*
X126028353Y-42679500D01*
X125961314Y-42659815D01*
X125915559Y-42607011D01*
X125905615Y-42537853D01*
X125910422Y-42517182D01*
X125936757Y-42436129D01*
X125936757Y-42436126D01*
X125947231Y-42370000D01*
X123053012Y-42370000D01*
X123085925Y-42312993D01*
X123120000Y-42185826D01*
X123120000Y-42054174D01*
X123085925Y-41927007D01*
X123053012Y-41870000D01*
X125947231Y-41870000D01*
X125936757Y-41803873D01*
X125936757Y-41803872D01*
X125936206Y-41802175D01*
X125936205Y-41802174D01*
X125936204Y-41802169D01*
X125871095Y-41601782D01*
X125774620Y-41412442D01*
X125649727Y-41240540D01*
X125649723Y-41240535D01*
X125499464Y-41090276D01*
X125499459Y-41090272D01*
X125327555Y-40965377D01*
X125318500Y-40960763D01*
X125267706Y-40912788D01*
X125250912Y-40844966D01*
X125273451Y-40778832D01*
X125318508Y-40739793D01*
X125327816Y-40735051D01*
X125414147Y-40672328D01*
X125499786Y-40610109D01*
X125499788Y-40610106D01*
X125499792Y-40610104D01*
X125650104Y-40459792D01*
X125650106Y-40459788D01*
X125650109Y-40459786D01*
X125775048Y-40287820D01*
X125775047Y-40287820D01*
X125775051Y-40287816D01*
X125871557Y-40098412D01*
X125937246Y-39896243D01*
X125970500Y-39686287D01*
X125970500Y-39631902D01*
X167499500Y-39631902D01*
X167499500Y-39868097D01*
X167536446Y-40101368D01*
X167609433Y-40325996D01*
X167686824Y-40477883D01*
X167716657Y-40536433D01*
X167855483Y-40727510D01*
X168022490Y-40894517D01*
X168213567Y-41033343D01*
X168312991Y-41084002D01*
X168424003Y-41140566D01*
X168424005Y-41140566D01*
X168424008Y-41140568D01*
X168544412Y-41179689D01*
X168648631Y-41213553D01*
X168881903Y-41250500D01*
X168881908Y-41250500D01*
X169118097Y-41250500D01*
X169351368Y-41213553D01*
X169575992Y-41140568D01*
X169786433Y-41033343D01*
X169977510Y-40894517D01*
X170144517Y-40727510D01*
X170283343Y-40536433D01*
X170390568Y-40325992D01*
X170463553Y-40101368D01*
X170464021Y-40098412D01*
X170500500Y-39868097D01*
X170500500Y-39631902D01*
X172499500Y-39631902D01*
X172499500Y-39868097D01*
X172536446Y-40101368D01*
X172609433Y-40325996D01*
X172686824Y-40477883D01*
X172716657Y-40536433D01*
X172855483Y-40727510D01*
X173022490Y-40894517D01*
X173213567Y-41033343D01*
X173312991Y-41084002D01*
X173424003Y-41140566D01*
X173424005Y-41140566D01*
X173424008Y-41140568D01*
X173544412Y-41179689D01*
X173648631Y-41213553D01*
X173881903Y-41250500D01*
X173881908Y-41250500D01*
X174118097Y-41250500D01*
X174351368Y-41213553D01*
X174575992Y-41140568D01*
X174786433Y-41033343D01*
X174977510Y-40894517D01*
X175144517Y-40727510D01*
X175283343Y-40536433D01*
X175390568Y-40325992D01*
X175463553Y-40101368D01*
X175464021Y-40098412D01*
X175500500Y-39868097D01*
X175500500Y-39631902D01*
X175463553Y-39398631D01*
X175390566Y-39174003D01*
X175283342Y-38963566D01*
X175144517Y-38772490D01*
X174977510Y-38605483D01*
X174786433Y-38466657D01*
X174575996Y-38359433D01*
X174351368Y-38286446D01*
X174118097Y-38249500D01*
X174118092Y-38249500D01*
X173881908Y-38249500D01*
X173881903Y-38249500D01*
X173648631Y-38286446D01*
X173424003Y-38359433D01*
X173213566Y-38466657D01*
X173104550Y-38545862D01*
X173022490Y-38605483D01*
X173022488Y-38605485D01*
X173022487Y-38605485D01*
X172855485Y-38772487D01*
X172855485Y-38772488D01*
X172855483Y-38772490D01*
X172795862Y-38854550D01*
X172716657Y-38963566D01*
X172609433Y-39174003D01*
X172536446Y-39398631D01*
X172499500Y-39631902D01*
X170500500Y-39631902D01*
X170463553Y-39398631D01*
X170390566Y-39174003D01*
X170283342Y-38963566D01*
X170144517Y-38772490D01*
X169977510Y-38605483D01*
X169786433Y-38466657D01*
X169575996Y-38359433D01*
X169351368Y-38286446D01*
X169118097Y-38249500D01*
X169118092Y-38249500D01*
X168881908Y-38249500D01*
X168881903Y-38249500D01*
X168648631Y-38286446D01*
X168424003Y-38359433D01*
X168213566Y-38466657D01*
X168104550Y-38545862D01*
X168022490Y-38605483D01*
X168022488Y-38605485D01*
X168022487Y-38605485D01*
X167855485Y-38772487D01*
X167855485Y-38772488D01*
X167855483Y-38772490D01*
X167795862Y-38854550D01*
X167716657Y-38963566D01*
X167609433Y-39174003D01*
X167536446Y-39398631D01*
X167499500Y-39631902D01*
X125970500Y-39631902D01*
X125970500Y-39473713D01*
X125937246Y-39263757D01*
X125871557Y-39061588D01*
X125775051Y-38872184D01*
X125775049Y-38872181D01*
X125775048Y-38872179D01*
X125650109Y-38700213D01*
X125499786Y-38549890D01*
X125327820Y-38424951D01*
X125138414Y-38328444D01*
X125138413Y-38328443D01*
X125138412Y-38328443D01*
X124936243Y-38262754D01*
X124936241Y-38262753D01*
X124936240Y-38262753D01*
X124774957Y-38237208D01*
X124726287Y-38229500D01*
X122513713Y-38229500D01*
X122465042Y-38237208D01*
X122303760Y-38262753D01*
X122101585Y-38328444D01*
X121912179Y-38424951D01*
X121740213Y-38549890D01*
X121589890Y-38700213D01*
X121464951Y-38872179D01*
X121368444Y-39061585D01*
X121302753Y-39263760D01*
X121269500Y-39473713D01*
X121269500Y-39686286D01*
X121302753Y-39896239D01*
X121368444Y-40098414D01*
X121464951Y-40287820D01*
X121589890Y-40459786D01*
X121740213Y-40610109D01*
X121912179Y-40735048D01*
X121912181Y-40735049D01*
X121912184Y-40735051D01*
X121921493Y-40739794D01*
X121972290Y-40787766D01*
X121989087Y-40855587D01*
X121966552Y-40921722D01*
X121921502Y-40960762D01*
X121912443Y-40965378D01*
X121740540Y-41090272D01*
X121740535Y-41090276D01*
X121590276Y-41240535D01*
X121590272Y-41240540D01*
X121465379Y-41412442D01*
X121368904Y-41601782D01*
X121303242Y-41803870D01*
X121303242Y-41803873D01*
X121292769Y-41870000D01*
X122186988Y-41870000D01*
X122154075Y-41927007D01*
X122120000Y-42054174D01*
X122120000Y-42185826D01*
X122154075Y-42312993D01*
X122186988Y-42370000D01*
X121292769Y-42370000D01*
X121303242Y-42436126D01*
X121303242Y-42436129D01*
X121329578Y-42517182D01*
X121331573Y-42587024D01*
X121295492Y-42646856D01*
X121232791Y-42677684D01*
X121211647Y-42679500D01*
X108728878Y-42679500D01*
X108661839Y-42659815D01*
X108616084Y-42607011D01*
X108606140Y-42537853D01*
X108610947Y-42517182D01*
X108637246Y-42436243D01*
X108670500Y-42226287D01*
X108670500Y-42013713D01*
X108637246Y-41803757D01*
X108571557Y-41601588D01*
X108475051Y-41412184D01*
X108475049Y-41412181D01*
X108475048Y-41412179D01*
X108350109Y-41240213D01*
X108222986Y-41113090D01*
X108189501Y-41051767D01*
X108194485Y-40982075D01*
X108236357Y-40926142D01*
X108267335Y-40909227D01*
X108362326Y-40873798D01*
X108362326Y-40873797D01*
X108362331Y-40873796D01*
X108477546Y-40787546D01*
X108563796Y-40672331D01*
X108614091Y-40537483D01*
X108620500Y-40477873D01*
X108620499Y-38682128D01*
X108614091Y-38622517D01*
X108607738Y-38605485D01*
X108563797Y-38487671D01*
X108563793Y-38487664D01*
X108477547Y-38372455D01*
X108477544Y-38372452D01*
X108362335Y-38286206D01*
X108362328Y-38286202D01*
X108227482Y-38235908D01*
X108227483Y-38235908D01*
X108167883Y-38229501D01*
X108167881Y-38229500D01*
X108167873Y-38229500D01*
X108167864Y-38229500D01*
X104572129Y-38229500D01*
X104572123Y-38229501D01*
X104512516Y-38235908D01*
X104377671Y-38286202D01*
X104377664Y-38286206D01*
X104262455Y-38372452D01*
X104262452Y-38372455D01*
X104176206Y-38487664D01*
X104176202Y-38487671D01*
X104125908Y-38622517D01*
X104119501Y-38682116D01*
X104119501Y-38682123D01*
X104119500Y-38682135D01*
X104119500Y-40477870D01*
X104119501Y-40477876D01*
X104125908Y-40537483D01*
X104176202Y-40672328D01*
X104176206Y-40672335D01*
X104262452Y-40787544D01*
X104262455Y-40787547D01*
X104377664Y-40873793D01*
X104377673Y-40873798D01*
X104472664Y-40909227D01*
X104528598Y-40951098D01*
X104553016Y-41016562D01*
X104538165Y-41084835D01*
X104517014Y-41113090D01*
X104389889Y-41240215D01*
X104264951Y-41412179D01*
X104168444Y-41601585D01*
X104102753Y-41803760D01*
X104069500Y-42013713D01*
X104069500Y-42226286D01*
X104102753Y-42436239D01*
X104102753Y-42436241D01*
X104102754Y-42436243D01*
X104158240Y-42607011D01*
X104168445Y-42638417D01*
X104232148Y-42763443D01*
X104236706Y-42787717D01*
X104245345Y-42810859D01*
X104243042Y-42821455D01*
X104245044Y-42832112D01*
X104235755Y-42854996D01*
X104230511Y-42879136D01*
X104220560Y-42892433D01*
X104218767Y-42896852D01*
X104209367Y-42907396D01*
X104208312Y-42908452D01*
X104205499Y-42911264D01*
X104205498Y-42911265D01*
X104205491Y-42911273D01*
X104205488Y-42911270D01*
X104205478Y-42911286D01*
X102519481Y-44597282D01*
X102519479Y-44597284D01*
X102504104Y-44623916D01*
X102489333Y-44649501D01*
X102440423Y-44734215D01*
X102399499Y-44886943D01*
X102399499Y-44886945D01*
X102399499Y-45055046D01*
X102399500Y-45055059D01*
X102399500Y-96073330D01*
X102399499Y-96073348D01*
X102399499Y-96239054D01*
X102399498Y-96239054D01*
X102087019Y-96239054D01*
X101940507Y-82068151D01*
X101940500Y-82066869D01*
X101940500Y-37164500D01*
X101960185Y-37097461D01*
X102012989Y-37051706D01*
X102064500Y-37040500D01*
X180875500Y-37040500D01*
X180942539Y-37060185D01*
G37*
%TD.AperFunction*%
%TD*%
M02*
