%TF.GenerationSoftware,KiCad,Pcbnew,9.0.7*%
%TF.CreationDate,2026-02-22T16:46:49+05:30*%
%TF.ProjectId,Project,50726f6a-6563-4742-9e6b-696361645f70,rev?*%
%TF.SameCoordinates,Original*%
%TF.FileFunction,Soldermask,Top*%
%TF.FilePolarity,Negative*%
%FSLAX46Y46*%
G04 Gerber Fmt 4.6, Leading zero omitted, Abs format (unit mm)*
G04 Created by KiCad (PCBNEW 9.0.7) date 2026-02-22 16:46:49*
%MOMM*%
%LPD*%
G01*
G04 APERTURE LIST*
G04 Aperture macros list*
%AMRoundRect*
0 Rectangle with rounded corners*
0 $1 Rounding radius*
0 $2 $3 $4 $5 $6 $7 $8 $9 X,Y pos of 4 corners*
0 Add a 4 corners polygon primitive as box body*
4,1,4,$2,$3,$4,$5,$6,$7,$8,$9,$2,$3,0*
0 Add four circle primitives for the rounded corners*
1,1,$1+$1,$2,$3*
1,1,$1+$1,$4,$5*
1,1,$1+$1,$6,$7*
1,1,$1+$1,$8,$9*
0 Add four rect primitives between the rounded corners*
20,1,$1+$1,$2,$3,$4,$5,0*
20,1,$1+$1,$4,$5,$6,$7,0*
20,1,$1+$1,$6,$7,$8,$9,0*
20,1,$1+$1,$8,$9,$2,$3,0*%
G04 Aperture macros list end*
%ADD10C,1.700000*%
%ADD11C,4.000000*%
%ADD12C,2.200000*%
%ADD13RoundRect,0.150000X0.150000X0.200000X-0.150000X0.200000X-0.150000X-0.200000X0.150000X-0.200000X0*%
%ADD14R,1.700000X1.700000*%
%ADD15O,1.700000X1.700000*%
%ADD16R,3.500000X1.700000*%
%ADD17O,3.600000X1.700000*%
%ADD18O,3.700000X1.700000*%
%ADD19R,2.000000X2.000000*%
%ADD20C,2.000000*%
%ADD21R,2.000000X3.200000*%
G04 APERTURE END LIST*
D10*
%TO.C,SW5*%
X127840000Y-83940000D03*
D11*
X132920000Y-83940000D03*
D10*
X138000000Y-83940000D03*
D12*
X135460000Y-78860000D03*
X129110000Y-81400000D03*
%TD*%
D10*
%TO.C,SW2*%
X108821412Y-83903638D03*
D11*
X113901412Y-83903638D03*
D10*
X118981412Y-83903638D03*
D12*
X116441412Y-78823638D03*
X110091412Y-81363638D03*
%TD*%
D13*
%TO.C,D11*%
X162520000Y-81340000D03*
X163920000Y-81340000D03*
%TD*%
%TO.C,D6*%
X124360000Y-100390000D03*
X125760000Y-100390000D03*
%TD*%
D10*
%TO.C,SW9*%
X146878770Y-103001230D03*
D11*
X151958770Y-103001230D03*
D10*
X157038770Y-103001230D03*
D12*
X154498770Y-97921230D03*
X148148770Y-100461230D03*
%TD*%
D13*
%TO.C,D7*%
X143470397Y-62299999D03*
X144870397Y-62299999D03*
%TD*%
%TO.C,D9*%
X143410000Y-100470000D03*
X144810000Y-100470000D03*
%TD*%
D10*
%TO.C,SW10*%
X165982737Y-64838559D03*
D11*
X171062737Y-64838559D03*
D10*
X176142737Y-64838559D03*
D12*
X173602737Y-59758559D03*
X167252737Y-62298559D03*
%TD*%
D13*
%TO.C,D8*%
X143468068Y-81382911D03*
X144868068Y-81382911D03*
%TD*%
D10*
%TO.C,SW3*%
X108818861Y-102963487D03*
D11*
X113898861Y-102963487D03*
D10*
X118978861Y-102963487D03*
D12*
X116438861Y-97883487D03*
X110088861Y-100423487D03*
%TD*%
D14*
%TO.C,J1*%
X162745000Y-42665000D03*
D15*
X162745000Y-45205000D03*
X162745000Y-47745000D03*
X162745000Y-50285000D03*
%TD*%
D10*
%TO.C,SW8*%
X146934033Y-83912144D03*
D11*
X152014033Y-83912144D03*
D10*
X157094033Y-83912144D03*
D12*
X154554033Y-78832144D03*
X148204033Y-81372144D03*
%TD*%
D10*
%TO.C,SW4*%
X127901541Y-64858357D03*
D11*
X132981541Y-64858357D03*
D10*
X138061541Y-64858357D03*
D12*
X135521541Y-59778357D03*
X129171541Y-62318357D03*
%TD*%
D13*
%TO.C,D4*%
X124422019Y-62315231D03*
X125822019Y-62315231D03*
%TD*%
D10*
%TO.C,SW12*%
X165912616Y-102964537D03*
D11*
X170992616Y-102964537D03*
D10*
X176072616Y-102964537D03*
D12*
X173532616Y-97884537D03*
X167182616Y-100424537D03*
%TD*%
D13*
%TO.C,D3*%
X105350648Y-100423487D03*
X106750648Y-100423487D03*
%TD*%
%TO.C,D1*%
X105361350Y-62319840D03*
X106761350Y-62319840D03*
%TD*%
%TO.C,D10*%
X162517005Y-62357777D03*
X163917005Y-62357777D03*
%TD*%
D16*
%TO.C,U1*%
X106370000Y-39580000D03*
D17*
X106370000Y-42120000D03*
X106370000Y-44660000D03*
X106370000Y-47200000D03*
X106370000Y-49740000D03*
X106370000Y-52280000D03*
X106370000Y-54820000D03*
X123620000Y-54820000D03*
X123620000Y-52280000D03*
X123620000Y-49740000D03*
D18*
X123620000Y-47200000D03*
X123620000Y-44660000D03*
X123620000Y-42120000D03*
X123620000Y-39580000D03*
%TD*%
D13*
%TO.C,D2*%
X105335346Y-81486663D03*
X106735346Y-81486663D03*
%TD*%
D19*
%TO.C,SW13*%
X169000000Y-54250000D03*
D20*
X174000000Y-54250000D03*
X171500000Y-54250000D03*
D21*
X165900000Y-46750000D03*
X177100000Y-46750000D03*
D20*
X174000000Y-39750000D03*
X169000000Y-39750000D03*
%TD*%
D10*
%TO.C,SW11*%
X165997431Y-83874908D03*
D11*
X171077431Y-83874908D03*
D10*
X176157431Y-83874908D03*
D12*
X173617431Y-78794908D03*
X167267431Y-81334908D03*
%TD*%
D10*
%TO.C,SW7*%
X146940000Y-64840000D03*
D11*
X152020000Y-64840000D03*
D10*
X157100000Y-64840000D03*
D12*
X154560000Y-59760000D03*
X148210000Y-62300000D03*
%TD*%
D10*
%TO.C,SW6*%
X127830000Y-102930000D03*
D11*
X132910000Y-102930000D03*
D10*
X137990000Y-102930000D03*
D12*
X135450000Y-97850000D03*
X129100000Y-100390000D03*
%TD*%
D10*
%TO.C,SW1*%
X108840000Y-64860000D03*
D11*
X113920000Y-64860000D03*
D10*
X119000000Y-64860000D03*
D12*
X116460000Y-59780000D03*
X110110000Y-62320000D03*
%TD*%
D13*
%TO.C,D5*%
X124370000Y-81400000D03*
X125770000Y-81400000D03*
%TD*%
%TO.C,D12*%
X162432500Y-100440000D03*
X163832500Y-100440000D03*
%TD*%
M02*
