M48
; DRILL file {KiCad 9.0.7} date 2026-02-26T16:53:52+0530
; FORMAT={-:-/ absolute / metric / decimal}
; #@! TF.CreationDate,2026-02-26T16:53:52+05:30
; #@! TF.GenerationSoftware,Kicad,Pcbnew,9.0.7
; #@! TF.FileFunction,NonPlated,1,2,NPTH
FMAT,2
METRIC
; #@! TA.AperFunction,NonPlated,NPTH,ComponentDrill
T1C1.700
; #@! TA.AperFunction,NonPlated,NPTH,ComponentDrill
T2C4.000
%
G90
G05
T1
X108.819Y-102.963
X108.821Y-83.904
X108.84Y-64.86
X118.979Y-102.963
X118.981Y-83.904
X119.0Y-64.86
X127.83Y-102.93
X127.84Y-83.94
X127.902Y-64.858
X137.99Y-102.93
X138.0Y-83.94
X138.062Y-64.858
X146.879Y-103.001
X146.934Y-83.912
X146.94Y-64.84
X157.039Y-103.001
X157.094Y-83.912
X157.1Y-64.84
X165.913Y-102.965
X165.983Y-64.839
X165.997Y-83.875
X176.073Y-102.965
X176.143Y-64.839
X176.157Y-83.875
T2
X113.899Y-102.963
X113.901Y-83.904
X113.92Y-64.86
X132.91Y-102.93
X132.92Y-83.94
X132.982Y-64.858
X151.959Y-103.001
X152.014Y-83.912
X152.02Y-64.84
X170.993Y-102.965
X171.063Y-64.839
X171.077Y-83.875
M30
