%TF.GenerationSoftware,KiCad,Pcbnew,9.0.7*%
%TF.CreationDate,2026-02-26T16:53:45+05:30*%
%TF.ProjectId,Project,50726f6a-6563-4742-9e6b-696361645f70,rev?*%
%TF.SameCoordinates,Original*%
%TF.FileFunction,Copper,L1,Top*%
%TF.FilePolarity,Positive*%
%FSLAX46Y46*%
G04 Gerber Fmt 4.6, Leading zero omitted, Abs format (unit mm)*
G04 Created by KiCad (PCBNEW 9.0.7) date 2026-02-26 16:53:45*
%MOMM*%
%LPD*%
G01*
G04 APERTURE LIST*
G04 Aperture macros list*
%AMRoundRect*
0 Rectangle with rounded corners*
0 $1 Rounding radius*
0 $2 $3 $4 $5 $6 $7 $8 $9 X,Y pos of 4 corners*
0 Add a 4 corners polygon primitive as box body*
4,1,4,$2,$3,$4,$5,$6,$7,$8,$9,$2,$3,0*
0 Add four circle primitives for the rounded corners*
1,1,$1+$1,$2,$3*
1,1,$1+$1,$4,$5*
1,1,$1+$1,$6,$7*
1,1,$1+$1,$8,$9*
0 Add four rect primitives between the rounded corners*
20,1,$1+$1,$2,$3,$4,$5,0*
20,1,$1+$1,$4,$5,$6,$7,0*
20,1,$1+$1,$6,$7,$8,$9,0*
20,1,$1+$1,$8,$9,$2,$3,0*%
G04 Aperture macros list end*
%ADD10C,0.100000*%
%ADD11C,0.150000*%
%ADD12C,0.300000*%
%ADD13C,0.400000*%
%TA.AperFunction,ComponentPad*%
%ADD14C,1.600000*%
%TD*%
%TA.AperFunction,ComponentPad*%
%ADD15RoundRect,0.250000X0.550000X-0.550000X0.550000X0.550000X-0.550000X0.550000X-0.550000X-0.550000X0*%
%TD*%
%TA.AperFunction,ComponentPad*%
%ADD16C,2.200000*%
%TD*%
%TA.AperFunction,ComponentPad*%
%ADD17R,1.700000X1.700000*%
%TD*%
%TA.AperFunction,ComponentPad*%
%ADD18O,1.700000X1.700000*%
%TD*%
%TA.AperFunction,ComponentPad*%
%ADD19R,3.500000X1.700000*%
%TD*%
%TA.AperFunction,ComponentPad*%
%ADD20O,3.600000X1.700000*%
%TD*%
%TA.AperFunction,ComponentPad*%
%ADD21O,3.700000X1.700000*%
%TD*%
%TA.AperFunction,ComponentPad*%
%ADD22R,2.000000X2.000000*%
%TD*%
%TA.AperFunction,ComponentPad*%
%ADD23C,2.000000*%
%TD*%
%TA.AperFunction,ComponentPad*%
%ADD24R,2.000000X3.200000*%
%TD*%
%TA.AperFunction,ViaPad*%
%ADD25C,0.600000*%
%TD*%
%TA.AperFunction,Conductor*%
%ADD26C,0.200000*%
%TD*%
G04 APERTURE END LIST*
D10*
D11*
X177002200Y-166007200D02*
X285002200Y-166007200D01*
X285002200Y-198007200D01*
X177002200Y-198007200D01*
X177002200Y-166007200D01*
D10*
D11*
X10000000Y-10000000D02*
X287002200Y-10000000D01*
X287002200Y-200007200D01*
X10000000Y-200007200D01*
X10000000Y-10000000D01*
D10*
D11*
X12000000Y-12000000D02*
X285002200Y-12000000D01*
X285002200Y-198007200D01*
X12000000Y-198007200D01*
X12000000Y-12000000D01*
D10*
D11*
X60000000Y-12000000D02*
X60000000Y-10000000D01*
D10*
D11*
X110000000Y-12000000D02*
X110000000Y-10000000D01*
D10*
D11*
X160000000Y-12000000D02*
X160000000Y-10000000D01*
D10*
D11*
X210000000Y-12000000D02*
X210000000Y-10000000D01*
D10*
D11*
X260000000Y-12000000D02*
X260000000Y-10000000D01*
D10*
D11*
X36089160Y-11593604D02*
X35346303Y-11593604D01*
X35717731Y-11593604D02*
X35717731Y-10293604D01*
X35717731Y-10293604D02*
X35593922Y-10479319D01*
X35593922Y-10479319D02*
X35470112Y-10603128D01*
X35470112Y-10603128D02*
X35346303Y-10665033D01*
D10*
D11*
X85346303Y-10417414D02*
X85408207Y-10355509D01*
X85408207Y-10355509D02*
X85532017Y-10293604D01*
X85532017Y-10293604D02*
X85841541Y-10293604D01*
X85841541Y-10293604D02*
X85965350Y-10355509D01*
X85965350Y-10355509D02*
X86027255Y-10417414D01*
X86027255Y-10417414D02*
X86089160Y-10541223D01*
X86089160Y-10541223D02*
X86089160Y-10665033D01*
X86089160Y-10665033D02*
X86027255Y-10850747D01*
X86027255Y-10850747D02*
X85284398Y-11593604D01*
X85284398Y-11593604D02*
X86089160Y-11593604D01*
D10*
D11*
X135284398Y-10293604D02*
X136089160Y-10293604D01*
X136089160Y-10293604D02*
X135655826Y-10788842D01*
X135655826Y-10788842D02*
X135841541Y-10788842D01*
X135841541Y-10788842D02*
X135965350Y-10850747D01*
X135965350Y-10850747D02*
X136027255Y-10912652D01*
X136027255Y-10912652D02*
X136089160Y-11036461D01*
X136089160Y-11036461D02*
X136089160Y-11345985D01*
X136089160Y-11345985D02*
X136027255Y-11469795D01*
X136027255Y-11469795D02*
X135965350Y-11531700D01*
X135965350Y-11531700D02*
X135841541Y-11593604D01*
X135841541Y-11593604D02*
X135470112Y-11593604D01*
X135470112Y-11593604D02*
X135346303Y-11531700D01*
X135346303Y-11531700D02*
X135284398Y-11469795D01*
D10*
D11*
X185965350Y-10726938D02*
X185965350Y-11593604D01*
X185655826Y-10231700D02*
X185346303Y-11160271D01*
X185346303Y-11160271D02*
X186151064Y-11160271D01*
D10*
D11*
X236027255Y-10293604D02*
X235408207Y-10293604D01*
X235408207Y-10293604D02*
X235346303Y-10912652D01*
X235346303Y-10912652D02*
X235408207Y-10850747D01*
X235408207Y-10850747D02*
X235532017Y-10788842D01*
X235532017Y-10788842D02*
X235841541Y-10788842D01*
X235841541Y-10788842D02*
X235965350Y-10850747D01*
X235965350Y-10850747D02*
X236027255Y-10912652D01*
X236027255Y-10912652D02*
X236089160Y-11036461D01*
X236089160Y-11036461D02*
X236089160Y-11345985D01*
X236089160Y-11345985D02*
X236027255Y-11469795D01*
X236027255Y-11469795D02*
X235965350Y-11531700D01*
X235965350Y-11531700D02*
X235841541Y-11593604D01*
X235841541Y-11593604D02*
X235532017Y-11593604D01*
X235532017Y-11593604D02*
X235408207Y-11531700D01*
X235408207Y-11531700D02*
X235346303Y-11469795D01*
D10*
D11*
X285965350Y-10293604D02*
X285717731Y-10293604D01*
X285717731Y-10293604D02*
X285593922Y-10355509D01*
X285593922Y-10355509D02*
X285532017Y-10417414D01*
X285532017Y-10417414D02*
X285408207Y-10603128D01*
X285408207Y-10603128D02*
X285346303Y-10850747D01*
X285346303Y-10850747D02*
X285346303Y-11345985D01*
X285346303Y-11345985D02*
X285408207Y-11469795D01*
X285408207Y-11469795D02*
X285470112Y-11531700D01*
X285470112Y-11531700D02*
X285593922Y-11593604D01*
X285593922Y-11593604D02*
X285841541Y-11593604D01*
X285841541Y-11593604D02*
X285965350Y-11531700D01*
X285965350Y-11531700D02*
X286027255Y-11469795D01*
X286027255Y-11469795D02*
X286089160Y-11345985D01*
X286089160Y-11345985D02*
X286089160Y-11036461D01*
X286089160Y-11036461D02*
X286027255Y-10912652D01*
X286027255Y-10912652D02*
X285965350Y-10850747D01*
X285965350Y-10850747D02*
X285841541Y-10788842D01*
X285841541Y-10788842D02*
X285593922Y-10788842D01*
X285593922Y-10788842D02*
X285470112Y-10850747D01*
X285470112Y-10850747D02*
X285408207Y-10912652D01*
X285408207Y-10912652D02*
X285346303Y-11036461D01*
D10*
D11*
X60000000Y-198007200D02*
X60000000Y-200007200D01*
D10*
D11*
X110000000Y-198007200D02*
X110000000Y-200007200D01*
D10*
D11*
X160000000Y-198007200D02*
X160000000Y-200007200D01*
D10*
D11*
X210000000Y-198007200D02*
X210000000Y-200007200D01*
D10*
D11*
X260000000Y-198007200D02*
X260000000Y-200007200D01*
D10*
D11*
X36089160Y-199600804D02*
X35346303Y-199600804D01*
X35717731Y-199600804D02*
X35717731Y-198300804D01*
X35717731Y-198300804D02*
X35593922Y-198486519D01*
X35593922Y-198486519D02*
X35470112Y-198610328D01*
X35470112Y-198610328D02*
X35346303Y-198672233D01*
D10*
D11*
X85346303Y-198424614D02*
X85408207Y-198362709D01*
X85408207Y-198362709D02*
X85532017Y-198300804D01*
X85532017Y-198300804D02*
X85841541Y-198300804D01*
X85841541Y-198300804D02*
X85965350Y-198362709D01*
X85965350Y-198362709D02*
X86027255Y-198424614D01*
X86027255Y-198424614D02*
X86089160Y-198548423D01*
X86089160Y-198548423D02*
X86089160Y-198672233D01*
X86089160Y-198672233D02*
X86027255Y-198857947D01*
X86027255Y-198857947D02*
X85284398Y-199600804D01*
X85284398Y-199600804D02*
X86089160Y-199600804D01*
D10*
D11*
X135284398Y-198300804D02*
X136089160Y-198300804D01*
X136089160Y-198300804D02*
X135655826Y-198796042D01*
X135655826Y-198796042D02*
X135841541Y-198796042D01*
X135841541Y-198796042D02*
X135965350Y-198857947D01*
X135965350Y-198857947D02*
X136027255Y-198919852D01*
X136027255Y-198919852D02*
X136089160Y-199043661D01*
X136089160Y-199043661D02*
X136089160Y-199353185D01*
X136089160Y-199353185D02*
X136027255Y-199476995D01*
X136027255Y-199476995D02*
X135965350Y-199538900D01*
X135965350Y-199538900D02*
X135841541Y-199600804D01*
X135841541Y-199600804D02*
X135470112Y-199600804D01*
X135470112Y-199600804D02*
X135346303Y-199538900D01*
X135346303Y-199538900D02*
X135284398Y-199476995D01*
D10*
D11*
X185965350Y-198734138D02*
X185965350Y-199600804D01*
X185655826Y-198238900D02*
X185346303Y-199167471D01*
X185346303Y-199167471D02*
X186151064Y-199167471D01*
D10*
D11*
X236027255Y-198300804D02*
X235408207Y-198300804D01*
X235408207Y-198300804D02*
X235346303Y-198919852D01*
X235346303Y-198919852D02*
X235408207Y-198857947D01*
X235408207Y-198857947D02*
X235532017Y-198796042D01*
X235532017Y-198796042D02*
X235841541Y-198796042D01*
X235841541Y-198796042D02*
X235965350Y-198857947D01*
X235965350Y-198857947D02*
X236027255Y-198919852D01*
X236027255Y-198919852D02*
X236089160Y-199043661D01*
X236089160Y-199043661D02*
X236089160Y-199353185D01*
X236089160Y-199353185D02*
X236027255Y-199476995D01*
X236027255Y-199476995D02*
X235965350Y-199538900D01*
X235965350Y-199538900D02*
X235841541Y-199600804D01*
X235841541Y-199600804D02*
X235532017Y-199600804D01*
X235532017Y-199600804D02*
X235408207Y-199538900D01*
X235408207Y-199538900D02*
X235346303Y-199476995D01*
D10*
D11*
X285965350Y-198300804D02*
X285717731Y-198300804D01*
X285717731Y-198300804D02*
X285593922Y-198362709D01*
X285593922Y-198362709D02*
X285532017Y-198424614D01*
X285532017Y-198424614D02*
X285408207Y-198610328D01*
X285408207Y-198610328D02*
X285346303Y-198857947D01*
X285346303Y-198857947D02*
X285346303Y-199353185D01*
X285346303Y-199353185D02*
X285408207Y-199476995D01*
X285408207Y-199476995D02*
X285470112Y-199538900D01*
X285470112Y-199538900D02*
X285593922Y-199600804D01*
X285593922Y-199600804D02*
X285841541Y-199600804D01*
X285841541Y-199600804D02*
X285965350Y-199538900D01*
X285965350Y-199538900D02*
X286027255Y-199476995D01*
X286027255Y-199476995D02*
X286089160Y-199353185D01*
X286089160Y-199353185D02*
X286089160Y-199043661D01*
X286089160Y-199043661D02*
X286027255Y-198919852D01*
X286027255Y-198919852D02*
X285965350Y-198857947D01*
X285965350Y-198857947D02*
X285841541Y-198796042D01*
X285841541Y-198796042D02*
X285593922Y-198796042D01*
X285593922Y-198796042D02*
X285470112Y-198857947D01*
X285470112Y-198857947D02*
X285408207Y-198919852D01*
X285408207Y-198919852D02*
X285346303Y-199043661D01*
D10*
D11*
X10000000Y-60000000D02*
X12000000Y-60000000D01*
D10*
D11*
X10000000Y-110000000D02*
X12000000Y-110000000D01*
D10*
D11*
X10000000Y-160000000D02*
X12000000Y-160000000D01*
D10*
D11*
X10690476Y-35222176D02*
X11309523Y-35222176D01*
X10566666Y-35593604D02*
X10999999Y-34293604D01*
X10999999Y-34293604D02*
X11433333Y-35593604D01*
D10*
D11*
X11092857Y-84912652D02*
X11278571Y-84974557D01*
X11278571Y-84974557D02*
X11340476Y-85036461D01*
X11340476Y-85036461D02*
X11402380Y-85160271D01*
X11402380Y-85160271D02*
X11402380Y-85345985D01*
X11402380Y-85345985D02*
X11340476Y-85469795D01*
X11340476Y-85469795D02*
X11278571Y-85531700D01*
X11278571Y-85531700D02*
X11154761Y-85593604D01*
X11154761Y-85593604D02*
X10659523Y-85593604D01*
X10659523Y-85593604D02*
X10659523Y-84293604D01*
X10659523Y-84293604D02*
X11092857Y-84293604D01*
X11092857Y-84293604D02*
X11216666Y-84355509D01*
X11216666Y-84355509D02*
X11278571Y-84417414D01*
X11278571Y-84417414D02*
X11340476Y-84541223D01*
X11340476Y-84541223D02*
X11340476Y-84665033D01*
X11340476Y-84665033D02*
X11278571Y-84788842D01*
X11278571Y-84788842D02*
X11216666Y-84850747D01*
X11216666Y-84850747D02*
X11092857Y-84912652D01*
X11092857Y-84912652D02*
X10659523Y-84912652D01*
D10*
D11*
X11402380Y-135469795D02*
X11340476Y-135531700D01*
X11340476Y-135531700D02*
X11154761Y-135593604D01*
X11154761Y-135593604D02*
X11030952Y-135593604D01*
X11030952Y-135593604D02*
X10845238Y-135531700D01*
X10845238Y-135531700D02*
X10721428Y-135407890D01*
X10721428Y-135407890D02*
X10659523Y-135284080D01*
X10659523Y-135284080D02*
X10597619Y-135036461D01*
X10597619Y-135036461D02*
X10597619Y-134850747D01*
X10597619Y-134850747D02*
X10659523Y-134603128D01*
X10659523Y-134603128D02*
X10721428Y-134479319D01*
X10721428Y-134479319D02*
X10845238Y-134355509D01*
X10845238Y-134355509D02*
X11030952Y-134293604D01*
X11030952Y-134293604D02*
X11154761Y-134293604D01*
X11154761Y-134293604D02*
X11340476Y-134355509D01*
X11340476Y-134355509D02*
X11402380Y-134417414D01*
D10*
D11*
X10659523Y-185593604D02*
X10659523Y-184293604D01*
X10659523Y-184293604D02*
X10969047Y-184293604D01*
X10969047Y-184293604D02*
X11154761Y-184355509D01*
X11154761Y-184355509D02*
X11278571Y-184479319D01*
X11278571Y-184479319D02*
X11340476Y-184603128D01*
X11340476Y-184603128D02*
X11402380Y-184850747D01*
X11402380Y-184850747D02*
X11402380Y-185036461D01*
X11402380Y-185036461D02*
X11340476Y-185284080D01*
X11340476Y-185284080D02*
X11278571Y-185407890D01*
X11278571Y-185407890D02*
X11154761Y-185531700D01*
X11154761Y-185531700D02*
X10969047Y-185593604D01*
X10969047Y-185593604D02*
X10659523Y-185593604D01*
D10*
D11*
X287002200Y-60000000D02*
X285002200Y-60000000D01*
D10*
D11*
X287002200Y-110000000D02*
X285002200Y-110000000D01*
D10*
D11*
X287002200Y-160000000D02*
X285002200Y-160000000D01*
D10*
D11*
X285692676Y-35222176D02*
X286311723Y-35222176D01*
X285568866Y-35593604D02*
X286002199Y-34293604D01*
X286002199Y-34293604D02*
X286435533Y-35593604D01*
D10*
D11*
X286095057Y-84912652D02*
X286280771Y-84974557D01*
X286280771Y-84974557D02*
X286342676Y-85036461D01*
X286342676Y-85036461D02*
X286404580Y-85160271D01*
X286404580Y-85160271D02*
X286404580Y-85345985D01*
X286404580Y-85345985D02*
X286342676Y-85469795D01*
X286342676Y-85469795D02*
X286280771Y-85531700D01*
X286280771Y-85531700D02*
X286156961Y-85593604D01*
X286156961Y-85593604D02*
X285661723Y-85593604D01*
X285661723Y-85593604D02*
X285661723Y-84293604D01*
X285661723Y-84293604D02*
X286095057Y-84293604D01*
X286095057Y-84293604D02*
X286218866Y-84355509D01*
X286218866Y-84355509D02*
X286280771Y-84417414D01*
X286280771Y-84417414D02*
X286342676Y-84541223D01*
X286342676Y-84541223D02*
X286342676Y-84665033D01*
X286342676Y-84665033D02*
X286280771Y-84788842D01*
X286280771Y-84788842D02*
X286218866Y-84850747D01*
X286218866Y-84850747D02*
X286095057Y-84912652D01*
X286095057Y-84912652D02*
X285661723Y-84912652D01*
D10*
D11*
X286404580Y-135469795D02*
X286342676Y-135531700D01*
X286342676Y-135531700D02*
X286156961Y-135593604D01*
X286156961Y-135593604D02*
X286033152Y-135593604D01*
X286033152Y-135593604D02*
X285847438Y-135531700D01*
X285847438Y-135531700D02*
X285723628Y-135407890D01*
X285723628Y-135407890D02*
X285661723Y-135284080D01*
X285661723Y-135284080D02*
X285599819Y-135036461D01*
X285599819Y-135036461D02*
X285599819Y-134850747D01*
X285599819Y-134850747D02*
X285661723Y-134603128D01*
X285661723Y-134603128D02*
X285723628Y-134479319D01*
X285723628Y-134479319D02*
X285847438Y-134355509D01*
X285847438Y-134355509D02*
X286033152Y-134293604D01*
X286033152Y-134293604D02*
X286156961Y-134293604D01*
X286156961Y-134293604D02*
X286342676Y-134355509D01*
X286342676Y-134355509D02*
X286404580Y-134417414D01*
D10*
D11*
X285661723Y-185593604D02*
X285661723Y-184293604D01*
X285661723Y-184293604D02*
X285971247Y-184293604D01*
X285971247Y-184293604D02*
X286156961Y-184355509D01*
X286156961Y-184355509D02*
X286280771Y-184479319D01*
X286280771Y-184479319D02*
X286342676Y-184603128D01*
X286342676Y-184603128D02*
X286404580Y-184850747D01*
X286404580Y-184850747D02*
X286404580Y-185036461D01*
X286404580Y-185036461D02*
X286342676Y-185284080D01*
X286342676Y-185284080D02*
X286280771Y-185407890D01*
X286280771Y-185407890D02*
X286156961Y-185531700D01*
X286156961Y-185531700D02*
X285971247Y-185593604D01*
X285971247Y-185593604D02*
X285661723Y-185593604D01*
D10*
D11*
X200458026Y-193793328D02*
X200458026Y-192293328D01*
X200458026Y-192293328D02*
X200815169Y-192293328D01*
X200815169Y-192293328D02*
X201029455Y-192364757D01*
X201029455Y-192364757D02*
X201172312Y-192507614D01*
X201172312Y-192507614D02*
X201243741Y-192650471D01*
X201243741Y-192650471D02*
X201315169Y-192936185D01*
X201315169Y-192936185D02*
X201315169Y-193150471D01*
X201315169Y-193150471D02*
X201243741Y-193436185D01*
X201243741Y-193436185D02*
X201172312Y-193579042D01*
X201172312Y-193579042D02*
X201029455Y-193721900D01*
X201029455Y-193721900D02*
X200815169Y-193793328D01*
X200815169Y-193793328D02*
X200458026Y-193793328D01*
X202600884Y-193793328D02*
X202600884Y-193007614D01*
X202600884Y-193007614D02*
X202529455Y-192864757D01*
X202529455Y-192864757D02*
X202386598Y-192793328D01*
X202386598Y-192793328D02*
X202100884Y-192793328D01*
X202100884Y-192793328D02*
X201958026Y-192864757D01*
X202600884Y-193721900D02*
X202458026Y-193793328D01*
X202458026Y-193793328D02*
X202100884Y-193793328D01*
X202100884Y-193793328D02*
X201958026Y-193721900D01*
X201958026Y-193721900D02*
X201886598Y-193579042D01*
X201886598Y-193579042D02*
X201886598Y-193436185D01*
X201886598Y-193436185D02*
X201958026Y-193293328D01*
X201958026Y-193293328D02*
X202100884Y-193221900D01*
X202100884Y-193221900D02*
X202458026Y-193221900D01*
X202458026Y-193221900D02*
X202600884Y-193150471D01*
X203100884Y-192793328D02*
X203672312Y-192793328D01*
X203315169Y-192293328D02*
X203315169Y-193579042D01*
X203315169Y-193579042D02*
X203386598Y-193721900D01*
X203386598Y-193721900D02*
X203529455Y-193793328D01*
X203529455Y-193793328D02*
X203672312Y-193793328D01*
X204743741Y-193721900D02*
X204600884Y-193793328D01*
X204600884Y-193793328D02*
X204315170Y-193793328D01*
X204315170Y-193793328D02*
X204172312Y-193721900D01*
X204172312Y-193721900D02*
X204100884Y-193579042D01*
X204100884Y-193579042D02*
X204100884Y-193007614D01*
X204100884Y-193007614D02*
X204172312Y-192864757D01*
X204172312Y-192864757D02*
X204315170Y-192793328D01*
X204315170Y-192793328D02*
X204600884Y-192793328D01*
X204600884Y-192793328D02*
X204743741Y-192864757D01*
X204743741Y-192864757D02*
X204815170Y-193007614D01*
X204815170Y-193007614D02*
X204815170Y-193150471D01*
X204815170Y-193150471D02*
X204100884Y-193293328D01*
X205458026Y-193650471D02*
X205529455Y-193721900D01*
X205529455Y-193721900D02*
X205458026Y-193793328D01*
X205458026Y-193793328D02*
X205386598Y-193721900D01*
X205386598Y-193721900D02*
X205458026Y-193650471D01*
X205458026Y-193650471D02*
X205458026Y-193793328D01*
X205458026Y-192864757D02*
X205529455Y-192936185D01*
X205529455Y-192936185D02*
X205458026Y-193007614D01*
X205458026Y-193007614D02*
X205386598Y-192936185D01*
X205386598Y-192936185D02*
X205458026Y-192864757D01*
X205458026Y-192864757D02*
X205458026Y-193007614D01*
D10*
D11*
X177002200Y-194507200D02*
X285002200Y-194507200D01*
D10*
D11*
X178458026Y-196593328D02*
X178458026Y-195093328D01*
X179315169Y-196593328D02*
X178672312Y-195736185D01*
X179315169Y-195093328D02*
X178458026Y-195950471D01*
X179958026Y-196593328D02*
X179958026Y-195593328D01*
X179958026Y-195093328D02*
X179886598Y-195164757D01*
X179886598Y-195164757D02*
X179958026Y-195236185D01*
X179958026Y-195236185D02*
X180029455Y-195164757D01*
X180029455Y-195164757D02*
X179958026Y-195093328D01*
X179958026Y-195093328D02*
X179958026Y-195236185D01*
X181529455Y-196450471D02*
X181458027Y-196521900D01*
X181458027Y-196521900D02*
X181243741Y-196593328D01*
X181243741Y-196593328D02*
X181100884Y-196593328D01*
X181100884Y-196593328D02*
X180886598Y-196521900D01*
X180886598Y-196521900D02*
X180743741Y-196379042D01*
X180743741Y-196379042D02*
X180672312Y-196236185D01*
X180672312Y-196236185D02*
X180600884Y-195950471D01*
X180600884Y-195950471D02*
X180600884Y-195736185D01*
X180600884Y-195736185D02*
X180672312Y-195450471D01*
X180672312Y-195450471D02*
X180743741Y-195307614D01*
X180743741Y-195307614D02*
X180886598Y-195164757D01*
X180886598Y-195164757D02*
X181100884Y-195093328D01*
X181100884Y-195093328D02*
X181243741Y-195093328D01*
X181243741Y-195093328D02*
X181458027Y-195164757D01*
X181458027Y-195164757D02*
X181529455Y-195236185D01*
X182815170Y-196593328D02*
X182815170Y-195807614D01*
X182815170Y-195807614D02*
X182743741Y-195664757D01*
X182743741Y-195664757D02*
X182600884Y-195593328D01*
X182600884Y-195593328D02*
X182315170Y-195593328D01*
X182315170Y-195593328D02*
X182172312Y-195664757D01*
X182815170Y-196521900D02*
X182672312Y-196593328D01*
X182672312Y-196593328D02*
X182315170Y-196593328D01*
X182315170Y-196593328D02*
X182172312Y-196521900D01*
X182172312Y-196521900D02*
X182100884Y-196379042D01*
X182100884Y-196379042D02*
X182100884Y-196236185D01*
X182100884Y-196236185D02*
X182172312Y-196093328D01*
X182172312Y-196093328D02*
X182315170Y-196021900D01*
X182315170Y-196021900D02*
X182672312Y-196021900D01*
X182672312Y-196021900D02*
X182815170Y-195950471D01*
X184172313Y-196593328D02*
X184172313Y-195093328D01*
X184172313Y-196521900D02*
X184029455Y-196593328D01*
X184029455Y-196593328D02*
X183743741Y-196593328D01*
X183743741Y-196593328D02*
X183600884Y-196521900D01*
X183600884Y-196521900D02*
X183529455Y-196450471D01*
X183529455Y-196450471D02*
X183458027Y-196307614D01*
X183458027Y-196307614D02*
X183458027Y-195879042D01*
X183458027Y-195879042D02*
X183529455Y-195736185D01*
X183529455Y-195736185D02*
X183600884Y-195664757D01*
X183600884Y-195664757D02*
X183743741Y-195593328D01*
X183743741Y-195593328D02*
X184029455Y-195593328D01*
X184029455Y-195593328D02*
X184172313Y-195664757D01*
X186029455Y-195807614D02*
X186529455Y-195807614D01*
X186743741Y-196593328D02*
X186029455Y-196593328D01*
X186029455Y-196593328D02*
X186029455Y-195093328D01*
X186029455Y-195093328D02*
X186743741Y-195093328D01*
X187386598Y-196450471D02*
X187458027Y-196521900D01*
X187458027Y-196521900D02*
X187386598Y-196593328D01*
X187386598Y-196593328D02*
X187315170Y-196521900D01*
X187315170Y-196521900D02*
X187386598Y-196450471D01*
X187386598Y-196450471D02*
X187386598Y-196593328D01*
X188100884Y-196593328D02*
X188100884Y-195093328D01*
X188100884Y-195093328D02*
X188458027Y-195093328D01*
X188458027Y-195093328D02*
X188672313Y-195164757D01*
X188672313Y-195164757D02*
X188815170Y-195307614D01*
X188815170Y-195307614D02*
X188886599Y-195450471D01*
X188886599Y-195450471D02*
X188958027Y-195736185D01*
X188958027Y-195736185D02*
X188958027Y-195950471D01*
X188958027Y-195950471D02*
X188886599Y-196236185D01*
X188886599Y-196236185D02*
X188815170Y-196379042D01*
X188815170Y-196379042D02*
X188672313Y-196521900D01*
X188672313Y-196521900D02*
X188458027Y-196593328D01*
X188458027Y-196593328D02*
X188100884Y-196593328D01*
X189600884Y-196450471D02*
X189672313Y-196521900D01*
X189672313Y-196521900D02*
X189600884Y-196593328D01*
X189600884Y-196593328D02*
X189529456Y-196521900D01*
X189529456Y-196521900D02*
X189600884Y-196450471D01*
X189600884Y-196450471D02*
X189600884Y-196593328D01*
X190243742Y-196164757D02*
X190958028Y-196164757D01*
X190100885Y-196593328D02*
X190600885Y-195093328D01*
X190600885Y-195093328D02*
X191100885Y-196593328D01*
X191600884Y-196450471D02*
X191672313Y-196521900D01*
X191672313Y-196521900D02*
X191600884Y-196593328D01*
X191600884Y-196593328D02*
X191529456Y-196521900D01*
X191529456Y-196521900D02*
X191600884Y-196450471D01*
X191600884Y-196450471D02*
X191600884Y-196593328D01*
X193529456Y-196593328D02*
X193815170Y-196593328D01*
X193815170Y-196593328D02*
X193958027Y-196521900D01*
X193958027Y-196521900D02*
X194029456Y-196450471D01*
X194029456Y-196450471D02*
X194172313Y-196236185D01*
X194172313Y-196236185D02*
X194243742Y-195950471D01*
X194243742Y-195950471D02*
X194243742Y-195379042D01*
X194243742Y-195379042D02*
X194172313Y-195236185D01*
X194172313Y-195236185D02*
X194100885Y-195164757D01*
X194100885Y-195164757D02*
X193958027Y-195093328D01*
X193958027Y-195093328D02*
X193672313Y-195093328D01*
X193672313Y-195093328D02*
X193529456Y-195164757D01*
X193529456Y-195164757D02*
X193458027Y-195236185D01*
X193458027Y-195236185D02*
X193386599Y-195379042D01*
X193386599Y-195379042D02*
X193386599Y-195736185D01*
X193386599Y-195736185D02*
X193458027Y-195879042D01*
X193458027Y-195879042D02*
X193529456Y-195950471D01*
X193529456Y-195950471D02*
X193672313Y-196021900D01*
X193672313Y-196021900D02*
X193958027Y-196021900D01*
X193958027Y-196021900D02*
X194100885Y-195950471D01*
X194100885Y-195950471D02*
X194172313Y-195879042D01*
X194172313Y-195879042D02*
X194243742Y-195736185D01*
X194886598Y-196450471D02*
X194958027Y-196521900D01*
X194958027Y-196521900D02*
X194886598Y-196593328D01*
X194886598Y-196593328D02*
X194815170Y-196521900D01*
X194815170Y-196521900D02*
X194886598Y-196450471D01*
X194886598Y-196450471D02*
X194886598Y-196593328D01*
X195886599Y-195093328D02*
X196029456Y-195093328D01*
X196029456Y-195093328D02*
X196172313Y-195164757D01*
X196172313Y-195164757D02*
X196243742Y-195236185D01*
X196243742Y-195236185D02*
X196315170Y-195379042D01*
X196315170Y-195379042D02*
X196386599Y-195664757D01*
X196386599Y-195664757D02*
X196386599Y-196021900D01*
X196386599Y-196021900D02*
X196315170Y-196307614D01*
X196315170Y-196307614D02*
X196243742Y-196450471D01*
X196243742Y-196450471D02*
X196172313Y-196521900D01*
X196172313Y-196521900D02*
X196029456Y-196593328D01*
X196029456Y-196593328D02*
X195886599Y-196593328D01*
X195886599Y-196593328D02*
X195743742Y-196521900D01*
X195743742Y-196521900D02*
X195672313Y-196450471D01*
X195672313Y-196450471D02*
X195600884Y-196307614D01*
X195600884Y-196307614D02*
X195529456Y-196021900D01*
X195529456Y-196021900D02*
X195529456Y-195664757D01*
X195529456Y-195664757D02*
X195600884Y-195379042D01*
X195600884Y-195379042D02*
X195672313Y-195236185D01*
X195672313Y-195236185D02*
X195743742Y-195164757D01*
X195743742Y-195164757D02*
X195886599Y-195093328D01*
X197029455Y-196450471D02*
X197100884Y-196521900D01*
X197100884Y-196521900D02*
X197029455Y-196593328D01*
X197029455Y-196593328D02*
X196958027Y-196521900D01*
X196958027Y-196521900D02*
X197029455Y-196450471D01*
X197029455Y-196450471D02*
X197029455Y-196593328D01*
X197600884Y-195093328D02*
X198600884Y-195093328D01*
X198600884Y-195093328D02*
X197958027Y-196593328D01*
D10*
D11*
X177002200Y-191507200D02*
X285002200Y-191507200D01*
D10*
D12*
X264413853Y-193785528D02*
X263913853Y-193071242D01*
X263556710Y-193785528D02*
X263556710Y-192285528D01*
X263556710Y-192285528D02*
X264128139Y-192285528D01*
X264128139Y-192285528D02*
X264270996Y-192356957D01*
X264270996Y-192356957D02*
X264342425Y-192428385D01*
X264342425Y-192428385D02*
X264413853Y-192571242D01*
X264413853Y-192571242D02*
X264413853Y-192785528D01*
X264413853Y-192785528D02*
X264342425Y-192928385D01*
X264342425Y-192928385D02*
X264270996Y-192999814D01*
X264270996Y-192999814D02*
X264128139Y-193071242D01*
X264128139Y-193071242D02*
X263556710Y-193071242D01*
X265628139Y-193714100D02*
X265485282Y-193785528D01*
X265485282Y-193785528D02*
X265199568Y-193785528D01*
X265199568Y-193785528D02*
X265056710Y-193714100D01*
X265056710Y-193714100D02*
X264985282Y-193571242D01*
X264985282Y-193571242D02*
X264985282Y-192999814D01*
X264985282Y-192999814D02*
X265056710Y-192856957D01*
X265056710Y-192856957D02*
X265199568Y-192785528D01*
X265199568Y-192785528D02*
X265485282Y-192785528D01*
X265485282Y-192785528D02*
X265628139Y-192856957D01*
X265628139Y-192856957D02*
X265699568Y-192999814D01*
X265699568Y-192999814D02*
X265699568Y-193142671D01*
X265699568Y-193142671D02*
X264985282Y-193285528D01*
X266199567Y-192785528D02*
X266556710Y-193785528D01*
X266556710Y-193785528D02*
X266913853Y-192785528D01*
X267485281Y-193642671D02*
X267556710Y-193714100D01*
X267556710Y-193714100D02*
X267485281Y-193785528D01*
X267485281Y-193785528D02*
X267413853Y-193714100D01*
X267413853Y-193714100D02*
X267485281Y-193642671D01*
X267485281Y-193642671D02*
X267485281Y-193785528D01*
X267485281Y-192856957D02*
X267556710Y-192928385D01*
X267556710Y-192928385D02*
X267485281Y-192999814D01*
X267485281Y-192999814D02*
X267413853Y-192928385D01*
X267413853Y-192928385D02*
X267485281Y-192856957D01*
X267485281Y-192856957D02*
X267485281Y-192999814D01*
D10*
D11*
X178386598Y-193721900D02*
X178600884Y-193793328D01*
X178600884Y-193793328D02*
X178958026Y-193793328D01*
X178958026Y-193793328D02*
X179100884Y-193721900D01*
X179100884Y-193721900D02*
X179172312Y-193650471D01*
X179172312Y-193650471D02*
X179243741Y-193507614D01*
X179243741Y-193507614D02*
X179243741Y-193364757D01*
X179243741Y-193364757D02*
X179172312Y-193221900D01*
X179172312Y-193221900D02*
X179100884Y-193150471D01*
X179100884Y-193150471D02*
X178958026Y-193079042D01*
X178958026Y-193079042D02*
X178672312Y-193007614D01*
X178672312Y-193007614D02*
X178529455Y-192936185D01*
X178529455Y-192936185D02*
X178458026Y-192864757D01*
X178458026Y-192864757D02*
X178386598Y-192721900D01*
X178386598Y-192721900D02*
X178386598Y-192579042D01*
X178386598Y-192579042D02*
X178458026Y-192436185D01*
X178458026Y-192436185D02*
X178529455Y-192364757D01*
X178529455Y-192364757D02*
X178672312Y-192293328D01*
X178672312Y-192293328D02*
X179029455Y-192293328D01*
X179029455Y-192293328D02*
X179243741Y-192364757D01*
X179886597Y-193793328D02*
X179886597Y-192793328D01*
X179886597Y-192293328D02*
X179815169Y-192364757D01*
X179815169Y-192364757D02*
X179886597Y-192436185D01*
X179886597Y-192436185D02*
X179958026Y-192364757D01*
X179958026Y-192364757D02*
X179886597Y-192293328D01*
X179886597Y-192293328D02*
X179886597Y-192436185D01*
X180458026Y-192793328D02*
X181243741Y-192793328D01*
X181243741Y-192793328D02*
X180458026Y-193793328D01*
X180458026Y-193793328D02*
X181243741Y-193793328D01*
X182386598Y-193721900D02*
X182243741Y-193793328D01*
X182243741Y-193793328D02*
X181958027Y-193793328D01*
X181958027Y-193793328D02*
X181815169Y-193721900D01*
X181815169Y-193721900D02*
X181743741Y-193579042D01*
X181743741Y-193579042D02*
X181743741Y-193007614D01*
X181743741Y-193007614D02*
X181815169Y-192864757D01*
X181815169Y-192864757D02*
X181958027Y-192793328D01*
X181958027Y-192793328D02*
X182243741Y-192793328D01*
X182243741Y-192793328D02*
X182386598Y-192864757D01*
X182386598Y-192864757D02*
X182458027Y-193007614D01*
X182458027Y-193007614D02*
X182458027Y-193150471D01*
X182458027Y-193150471D02*
X181743741Y-193293328D01*
X183100883Y-193650471D02*
X183172312Y-193721900D01*
X183172312Y-193721900D02*
X183100883Y-193793328D01*
X183100883Y-193793328D02*
X183029455Y-193721900D01*
X183029455Y-193721900D02*
X183100883Y-193650471D01*
X183100883Y-193650471D02*
X183100883Y-193793328D01*
X183100883Y-192864757D02*
X183172312Y-192936185D01*
X183172312Y-192936185D02*
X183100883Y-193007614D01*
X183100883Y-193007614D02*
X183029455Y-192936185D01*
X183029455Y-192936185D02*
X183100883Y-192864757D01*
X183100883Y-192864757D02*
X183100883Y-193007614D01*
X184886598Y-193364757D02*
X185600884Y-193364757D01*
X184743741Y-193793328D02*
X185243741Y-192293328D01*
X185243741Y-192293328D02*
X185743741Y-193793328D01*
X186886598Y-192793328D02*
X186886598Y-193793328D01*
X186529455Y-192221900D02*
X186172312Y-193293328D01*
X186172312Y-193293328D02*
X187100883Y-193293328D01*
D10*
D11*
X263458026Y-196593328D02*
X263458026Y-195093328D01*
X264815170Y-196593328D02*
X264815170Y-195093328D01*
X264815170Y-196521900D02*
X264672312Y-196593328D01*
X264672312Y-196593328D02*
X264386598Y-196593328D01*
X264386598Y-196593328D02*
X264243741Y-196521900D01*
X264243741Y-196521900D02*
X264172312Y-196450471D01*
X264172312Y-196450471D02*
X264100884Y-196307614D01*
X264100884Y-196307614D02*
X264100884Y-195879042D01*
X264100884Y-195879042D02*
X264172312Y-195736185D01*
X264172312Y-195736185D02*
X264243741Y-195664757D01*
X264243741Y-195664757D02*
X264386598Y-195593328D01*
X264386598Y-195593328D02*
X264672312Y-195593328D01*
X264672312Y-195593328D02*
X264815170Y-195664757D01*
X265529455Y-196450471D02*
X265600884Y-196521900D01*
X265600884Y-196521900D02*
X265529455Y-196593328D01*
X265529455Y-196593328D02*
X265458027Y-196521900D01*
X265458027Y-196521900D02*
X265529455Y-196450471D01*
X265529455Y-196450471D02*
X265529455Y-196593328D01*
X265529455Y-195664757D02*
X265600884Y-195736185D01*
X265600884Y-195736185D02*
X265529455Y-195807614D01*
X265529455Y-195807614D02*
X265458027Y-195736185D01*
X265458027Y-195736185D02*
X265529455Y-195664757D01*
X265529455Y-195664757D02*
X265529455Y-195807614D01*
X268172313Y-196593328D02*
X267315170Y-196593328D01*
X267743741Y-196593328D02*
X267743741Y-195093328D01*
X267743741Y-195093328D02*
X267600884Y-195307614D01*
X267600884Y-195307614D02*
X267458027Y-195450471D01*
X267458027Y-195450471D02*
X267315170Y-195521900D01*
X269886598Y-195021900D02*
X268600884Y-196950471D01*
X270458027Y-196593328D02*
X270743741Y-196593328D01*
X270743741Y-196593328D02*
X270886598Y-196521900D01*
X270886598Y-196521900D02*
X270958027Y-196450471D01*
X270958027Y-196450471D02*
X271100884Y-196236185D01*
X271100884Y-196236185D02*
X271172313Y-195950471D01*
X271172313Y-195950471D02*
X271172313Y-195379042D01*
X271172313Y-195379042D02*
X271100884Y-195236185D01*
X271100884Y-195236185D02*
X271029456Y-195164757D01*
X271029456Y-195164757D02*
X270886598Y-195093328D01*
X270886598Y-195093328D02*
X270600884Y-195093328D01*
X270600884Y-195093328D02*
X270458027Y-195164757D01*
X270458027Y-195164757D02*
X270386598Y-195236185D01*
X270386598Y-195236185D02*
X270315170Y-195379042D01*
X270315170Y-195379042D02*
X270315170Y-195736185D01*
X270315170Y-195736185D02*
X270386598Y-195879042D01*
X270386598Y-195879042D02*
X270458027Y-195950471D01*
X270458027Y-195950471D02*
X270600884Y-196021900D01*
X270600884Y-196021900D02*
X270886598Y-196021900D01*
X270886598Y-196021900D02*
X271029456Y-195950471D01*
X271029456Y-195950471D02*
X271100884Y-195879042D01*
X271100884Y-195879042D02*
X271172313Y-195736185D01*
D10*
D11*
X177002200Y-187507200D02*
X285002200Y-187507200D01*
D10*
D13*
X178693928Y-188211638D02*
X179836785Y-188211638D01*
X179015357Y-190211638D02*
X179265357Y-188211638D01*
X180253452Y-190211638D02*
X180420119Y-188878304D01*
X180503452Y-188211638D02*
X180396309Y-188306876D01*
X180396309Y-188306876D02*
X180479643Y-188402114D01*
X180479643Y-188402114D02*
X180586786Y-188306876D01*
X180586786Y-188306876D02*
X180503452Y-188211638D01*
X180503452Y-188211638D02*
X180479643Y-188402114D01*
X181086786Y-188878304D02*
X181848690Y-188878304D01*
X181455833Y-188211638D02*
X181241548Y-189925923D01*
X181241548Y-189925923D02*
X181312976Y-190116400D01*
X181312976Y-190116400D02*
X181491548Y-190211638D01*
X181491548Y-190211638D02*
X181682024Y-190211638D01*
X182634405Y-190211638D02*
X182455833Y-190116400D01*
X182455833Y-190116400D02*
X182384405Y-189925923D01*
X182384405Y-189925923D02*
X182598690Y-188211638D01*
X184170119Y-190116400D02*
X183967738Y-190211638D01*
X183967738Y-190211638D02*
X183586785Y-190211638D01*
X183586785Y-190211638D02*
X183408214Y-190116400D01*
X183408214Y-190116400D02*
X183336785Y-189925923D01*
X183336785Y-189925923D02*
X183432024Y-189164019D01*
X183432024Y-189164019D02*
X183551071Y-188973542D01*
X183551071Y-188973542D02*
X183753452Y-188878304D01*
X183753452Y-188878304D02*
X184134404Y-188878304D01*
X184134404Y-188878304D02*
X184312976Y-188973542D01*
X184312976Y-188973542D02*
X184384404Y-189164019D01*
X184384404Y-189164019D02*
X184360595Y-189354495D01*
X184360595Y-189354495D02*
X183384404Y-189544971D01*
X185134405Y-190021161D02*
X185217738Y-190116400D01*
X185217738Y-190116400D02*
X185110595Y-190211638D01*
X185110595Y-190211638D02*
X185027262Y-190116400D01*
X185027262Y-190116400D02*
X185134405Y-190021161D01*
X185134405Y-190021161D02*
X185110595Y-190211638D01*
X185265357Y-188973542D02*
X185348690Y-189068780D01*
X185348690Y-189068780D02*
X185241548Y-189164019D01*
X185241548Y-189164019D02*
X185158214Y-189068780D01*
X185158214Y-189068780D02*
X185265357Y-188973542D01*
X185265357Y-188973542D02*
X185241548Y-189164019D01*
D10*
D11*
X178958026Y-185607614D02*
X178458026Y-185607614D01*
X178458026Y-186393328D02*
X178458026Y-184893328D01*
X178458026Y-184893328D02*
X179172312Y-184893328D01*
X179743740Y-186393328D02*
X179743740Y-185393328D01*
X179743740Y-184893328D02*
X179672312Y-184964757D01*
X179672312Y-184964757D02*
X179743740Y-185036185D01*
X179743740Y-185036185D02*
X179815169Y-184964757D01*
X179815169Y-184964757D02*
X179743740Y-184893328D01*
X179743740Y-184893328D02*
X179743740Y-185036185D01*
X180672312Y-186393328D02*
X180529455Y-186321900D01*
X180529455Y-186321900D02*
X180458026Y-186179042D01*
X180458026Y-186179042D02*
X180458026Y-184893328D01*
X181815169Y-186321900D02*
X181672312Y-186393328D01*
X181672312Y-186393328D02*
X181386598Y-186393328D01*
X181386598Y-186393328D02*
X181243740Y-186321900D01*
X181243740Y-186321900D02*
X181172312Y-186179042D01*
X181172312Y-186179042D02*
X181172312Y-185607614D01*
X181172312Y-185607614D02*
X181243740Y-185464757D01*
X181243740Y-185464757D02*
X181386598Y-185393328D01*
X181386598Y-185393328D02*
X181672312Y-185393328D01*
X181672312Y-185393328D02*
X181815169Y-185464757D01*
X181815169Y-185464757D02*
X181886598Y-185607614D01*
X181886598Y-185607614D02*
X181886598Y-185750471D01*
X181886598Y-185750471D02*
X181172312Y-185893328D01*
X182529454Y-186250471D02*
X182600883Y-186321900D01*
X182600883Y-186321900D02*
X182529454Y-186393328D01*
X182529454Y-186393328D02*
X182458026Y-186321900D01*
X182458026Y-186321900D02*
X182529454Y-186250471D01*
X182529454Y-186250471D02*
X182529454Y-186393328D01*
X182529454Y-185464757D02*
X182600883Y-185536185D01*
X182600883Y-185536185D02*
X182529454Y-185607614D01*
X182529454Y-185607614D02*
X182458026Y-185536185D01*
X182458026Y-185536185D02*
X182529454Y-185464757D01*
X182529454Y-185464757D02*
X182529454Y-185607614D01*
X184386597Y-186393328D02*
X184386597Y-184893328D01*
X184386597Y-184893328D02*
X184958026Y-184893328D01*
X184958026Y-184893328D02*
X185100883Y-184964757D01*
X185100883Y-184964757D02*
X185172312Y-185036185D01*
X185172312Y-185036185D02*
X185243740Y-185179042D01*
X185243740Y-185179042D02*
X185243740Y-185393328D01*
X185243740Y-185393328D02*
X185172312Y-185536185D01*
X185172312Y-185536185D02*
X185100883Y-185607614D01*
X185100883Y-185607614D02*
X184958026Y-185679042D01*
X184958026Y-185679042D02*
X184386597Y-185679042D01*
X185886597Y-186393328D02*
X185886597Y-185393328D01*
X185886597Y-185679042D02*
X185958026Y-185536185D01*
X185958026Y-185536185D02*
X186029455Y-185464757D01*
X186029455Y-185464757D02*
X186172312Y-185393328D01*
X186172312Y-185393328D02*
X186315169Y-185393328D01*
X187029454Y-186393328D02*
X186886597Y-186321900D01*
X186886597Y-186321900D02*
X186815168Y-186250471D01*
X186815168Y-186250471D02*
X186743740Y-186107614D01*
X186743740Y-186107614D02*
X186743740Y-185679042D01*
X186743740Y-185679042D02*
X186815168Y-185536185D01*
X186815168Y-185536185D02*
X186886597Y-185464757D01*
X186886597Y-185464757D02*
X187029454Y-185393328D01*
X187029454Y-185393328D02*
X187243740Y-185393328D01*
X187243740Y-185393328D02*
X187386597Y-185464757D01*
X187386597Y-185464757D02*
X187458026Y-185536185D01*
X187458026Y-185536185D02*
X187529454Y-185679042D01*
X187529454Y-185679042D02*
X187529454Y-186107614D01*
X187529454Y-186107614D02*
X187458026Y-186250471D01*
X187458026Y-186250471D02*
X187386597Y-186321900D01*
X187386597Y-186321900D02*
X187243740Y-186393328D01*
X187243740Y-186393328D02*
X187029454Y-186393328D01*
X188172311Y-185393328D02*
X188172311Y-186679042D01*
X188172311Y-186679042D02*
X188100883Y-186821900D01*
X188100883Y-186821900D02*
X187958026Y-186893328D01*
X187958026Y-186893328D02*
X187886597Y-186893328D01*
X188172311Y-184893328D02*
X188100883Y-184964757D01*
X188100883Y-184964757D02*
X188172311Y-185036185D01*
X188172311Y-185036185D02*
X188243740Y-184964757D01*
X188243740Y-184964757D02*
X188172311Y-184893328D01*
X188172311Y-184893328D02*
X188172311Y-185036185D01*
X189458026Y-186321900D02*
X189315169Y-186393328D01*
X189315169Y-186393328D02*
X189029455Y-186393328D01*
X189029455Y-186393328D02*
X188886597Y-186321900D01*
X188886597Y-186321900D02*
X188815169Y-186179042D01*
X188815169Y-186179042D02*
X188815169Y-185607614D01*
X188815169Y-185607614D02*
X188886597Y-185464757D01*
X188886597Y-185464757D02*
X189029455Y-185393328D01*
X189029455Y-185393328D02*
X189315169Y-185393328D01*
X189315169Y-185393328D02*
X189458026Y-185464757D01*
X189458026Y-185464757D02*
X189529455Y-185607614D01*
X189529455Y-185607614D02*
X189529455Y-185750471D01*
X189529455Y-185750471D02*
X188815169Y-185893328D01*
X190815169Y-186321900D02*
X190672311Y-186393328D01*
X190672311Y-186393328D02*
X190386597Y-186393328D01*
X190386597Y-186393328D02*
X190243740Y-186321900D01*
X190243740Y-186321900D02*
X190172311Y-186250471D01*
X190172311Y-186250471D02*
X190100883Y-186107614D01*
X190100883Y-186107614D02*
X190100883Y-185679042D01*
X190100883Y-185679042D02*
X190172311Y-185536185D01*
X190172311Y-185536185D02*
X190243740Y-185464757D01*
X190243740Y-185464757D02*
X190386597Y-185393328D01*
X190386597Y-185393328D02*
X190672311Y-185393328D01*
X190672311Y-185393328D02*
X190815169Y-185464757D01*
X191243740Y-185393328D02*
X191815168Y-185393328D01*
X191458025Y-184893328D02*
X191458025Y-186179042D01*
X191458025Y-186179042D02*
X191529454Y-186321900D01*
X191529454Y-186321900D02*
X191672311Y-186393328D01*
X191672311Y-186393328D02*
X191815168Y-186393328D01*
X192315168Y-186250471D02*
X192386597Y-186321900D01*
X192386597Y-186321900D02*
X192315168Y-186393328D01*
X192315168Y-186393328D02*
X192243740Y-186321900D01*
X192243740Y-186321900D02*
X192315168Y-186250471D01*
X192315168Y-186250471D02*
X192315168Y-186393328D01*
X193029454Y-186393328D02*
X193029454Y-184893328D01*
X193172312Y-185821900D02*
X193600883Y-186393328D01*
X193600883Y-185393328D02*
X193029454Y-185964757D01*
X194243740Y-186393328D02*
X194243740Y-185393328D01*
X194243740Y-184893328D02*
X194172312Y-184964757D01*
X194172312Y-184964757D02*
X194243740Y-185036185D01*
X194243740Y-185036185D02*
X194315169Y-184964757D01*
X194315169Y-184964757D02*
X194243740Y-184893328D01*
X194243740Y-184893328D02*
X194243740Y-185036185D01*
X195600884Y-186321900D02*
X195458026Y-186393328D01*
X195458026Y-186393328D02*
X195172312Y-186393328D01*
X195172312Y-186393328D02*
X195029455Y-186321900D01*
X195029455Y-186321900D02*
X194958026Y-186250471D01*
X194958026Y-186250471D02*
X194886598Y-186107614D01*
X194886598Y-186107614D02*
X194886598Y-185679042D01*
X194886598Y-185679042D02*
X194958026Y-185536185D01*
X194958026Y-185536185D02*
X195029455Y-185464757D01*
X195029455Y-185464757D02*
X195172312Y-185393328D01*
X195172312Y-185393328D02*
X195458026Y-185393328D01*
X195458026Y-185393328D02*
X195600884Y-185464757D01*
X196886598Y-186393328D02*
X196886598Y-185607614D01*
X196886598Y-185607614D02*
X196815169Y-185464757D01*
X196815169Y-185464757D02*
X196672312Y-185393328D01*
X196672312Y-185393328D02*
X196386598Y-185393328D01*
X196386598Y-185393328D02*
X196243740Y-185464757D01*
X196886598Y-186321900D02*
X196743740Y-186393328D01*
X196743740Y-186393328D02*
X196386598Y-186393328D01*
X196386598Y-186393328D02*
X196243740Y-186321900D01*
X196243740Y-186321900D02*
X196172312Y-186179042D01*
X196172312Y-186179042D02*
X196172312Y-186036185D01*
X196172312Y-186036185D02*
X196243740Y-185893328D01*
X196243740Y-185893328D02*
X196386598Y-185821900D01*
X196386598Y-185821900D02*
X196743740Y-185821900D01*
X196743740Y-185821900D02*
X196886598Y-185750471D01*
X198243741Y-186393328D02*
X198243741Y-184893328D01*
X198243741Y-186321900D02*
X198100883Y-186393328D01*
X198100883Y-186393328D02*
X197815169Y-186393328D01*
X197815169Y-186393328D02*
X197672312Y-186321900D01*
X197672312Y-186321900D02*
X197600883Y-186250471D01*
X197600883Y-186250471D02*
X197529455Y-186107614D01*
X197529455Y-186107614D02*
X197529455Y-185679042D01*
X197529455Y-185679042D02*
X197600883Y-185536185D01*
X197600883Y-185536185D02*
X197672312Y-185464757D01*
X197672312Y-185464757D02*
X197815169Y-185393328D01*
X197815169Y-185393328D02*
X198100883Y-185393328D01*
X198100883Y-185393328D02*
X198243741Y-185464757D01*
X198600884Y-186536185D02*
X199743741Y-186536185D01*
X200100883Y-185393328D02*
X200100883Y-186893328D01*
X200100883Y-185464757D02*
X200243741Y-185393328D01*
X200243741Y-185393328D02*
X200529455Y-185393328D01*
X200529455Y-185393328D02*
X200672312Y-185464757D01*
X200672312Y-185464757D02*
X200743741Y-185536185D01*
X200743741Y-185536185D02*
X200815169Y-185679042D01*
X200815169Y-185679042D02*
X200815169Y-186107614D01*
X200815169Y-186107614D02*
X200743741Y-186250471D01*
X200743741Y-186250471D02*
X200672312Y-186321900D01*
X200672312Y-186321900D02*
X200529455Y-186393328D01*
X200529455Y-186393328D02*
X200243741Y-186393328D01*
X200243741Y-186393328D02*
X200100883Y-186321900D01*
X202100884Y-186321900D02*
X201958026Y-186393328D01*
X201958026Y-186393328D02*
X201672312Y-186393328D01*
X201672312Y-186393328D02*
X201529455Y-186321900D01*
X201529455Y-186321900D02*
X201458026Y-186250471D01*
X201458026Y-186250471D02*
X201386598Y-186107614D01*
X201386598Y-186107614D02*
X201386598Y-185679042D01*
X201386598Y-185679042D02*
X201458026Y-185536185D01*
X201458026Y-185536185D02*
X201529455Y-185464757D01*
X201529455Y-185464757D02*
X201672312Y-185393328D01*
X201672312Y-185393328D02*
X201958026Y-185393328D01*
X201958026Y-185393328D02*
X202100884Y-185464757D01*
X202743740Y-186393328D02*
X202743740Y-184893328D01*
X202743740Y-185464757D02*
X202886598Y-185393328D01*
X202886598Y-185393328D02*
X203172312Y-185393328D01*
X203172312Y-185393328D02*
X203315169Y-185464757D01*
X203315169Y-185464757D02*
X203386598Y-185536185D01*
X203386598Y-185536185D02*
X203458026Y-185679042D01*
X203458026Y-185679042D02*
X203458026Y-186107614D01*
X203458026Y-186107614D02*
X203386598Y-186250471D01*
X203386598Y-186250471D02*
X203315169Y-186321900D01*
X203315169Y-186321900D02*
X203172312Y-186393328D01*
X203172312Y-186393328D02*
X202886598Y-186393328D01*
X202886598Y-186393328D02*
X202743740Y-186321900D01*
D10*
D11*
X177002200Y-181507200D02*
X285002200Y-181507200D01*
D10*
D11*
X178386598Y-183621900D02*
X178600884Y-183693328D01*
X178600884Y-183693328D02*
X178958026Y-183693328D01*
X178958026Y-183693328D02*
X179100884Y-183621900D01*
X179100884Y-183621900D02*
X179172312Y-183550471D01*
X179172312Y-183550471D02*
X179243741Y-183407614D01*
X179243741Y-183407614D02*
X179243741Y-183264757D01*
X179243741Y-183264757D02*
X179172312Y-183121900D01*
X179172312Y-183121900D02*
X179100884Y-183050471D01*
X179100884Y-183050471D02*
X178958026Y-182979042D01*
X178958026Y-182979042D02*
X178672312Y-182907614D01*
X178672312Y-182907614D02*
X178529455Y-182836185D01*
X178529455Y-182836185D02*
X178458026Y-182764757D01*
X178458026Y-182764757D02*
X178386598Y-182621900D01*
X178386598Y-182621900D02*
X178386598Y-182479042D01*
X178386598Y-182479042D02*
X178458026Y-182336185D01*
X178458026Y-182336185D02*
X178529455Y-182264757D01*
X178529455Y-182264757D02*
X178672312Y-182193328D01*
X178672312Y-182193328D02*
X179029455Y-182193328D01*
X179029455Y-182193328D02*
X179243741Y-182264757D01*
X179886597Y-183693328D02*
X179886597Y-182193328D01*
X180529455Y-183693328D02*
X180529455Y-182907614D01*
X180529455Y-182907614D02*
X180458026Y-182764757D01*
X180458026Y-182764757D02*
X180315169Y-182693328D01*
X180315169Y-182693328D02*
X180100883Y-182693328D01*
X180100883Y-182693328D02*
X179958026Y-182764757D01*
X179958026Y-182764757D02*
X179886597Y-182836185D01*
X181815169Y-183621900D02*
X181672312Y-183693328D01*
X181672312Y-183693328D02*
X181386598Y-183693328D01*
X181386598Y-183693328D02*
X181243740Y-183621900D01*
X181243740Y-183621900D02*
X181172312Y-183479042D01*
X181172312Y-183479042D02*
X181172312Y-182907614D01*
X181172312Y-182907614D02*
X181243740Y-182764757D01*
X181243740Y-182764757D02*
X181386598Y-182693328D01*
X181386598Y-182693328D02*
X181672312Y-182693328D01*
X181672312Y-182693328D02*
X181815169Y-182764757D01*
X181815169Y-182764757D02*
X181886598Y-182907614D01*
X181886598Y-182907614D02*
X181886598Y-183050471D01*
X181886598Y-183050471D02*
X181172312Y-183193328D01*
X183100883Y-183621900D02*
X182958026Y-183693328D01*
X182958026Y-183693328D02*
X182672312Y-183693328D01*
X182672312Y-183693328D02*
X182529454Y-183621900D01*
X182529454Y-183621900D02*
X182458026Y-183479042D01*
X182458026Y-183479042D02*
X182458026Y-182907614D01*
X182458026Y-182907614D02*
X182529454Y-182764757D01*
X182529454Y-182764757D02*
X182672312Y-182693328D01*
X182672312Y-182693328D02*
X182958026Y-182693328D01*
X182958026Y-182693328D02*
X183100883Y-182764757D01*
X183100883Y-182764757D02*
X183172312Y-182907614D01*
X183172312Y-182907614D02*
X183172312Y-183050471D01*
X183172312Y-183050471D02*
X182458026Y-183193328D01*
X183600883Y-182693328D02*
X184172311Y-182693328D01*
X183815168Y-182193328D02*
X183815168Y-183479042D01*
X183815168Y-183479042D02*
X183886597Y-183621900D01*
X183886597Y-183621900D02*
X184029454Y-183693328D01*
X184029454Y-183693328D02*
X184172311Y-183693328D01*
X184672311Y-183550471D02*
X184743740Y-183621900D01*
X184743740Y-183621900D02*
X184672311Y-183693328D01*
X184672311Y-183693328D02*
X184600883Y-183621900D01*
X184600883Y-183621900D02*
X184672311Y-183550471D01*
X184672311Y-183550471D02*
X184672311Y-183693328D01*
X184672311Y-182764757D02*
X184743740Y-182836185D01*
X184743740Y-182836185D02*
X184672311Y-182907614D01*
X184672311Y-182907614D02*
X184600883Y-182836185D01*
X184600883Y-182836185D02*
X184672311Y-182764757D01*
X184672311Y-182764757D02*
X184672311Y-182907614D01*
D10*
D11*
X197002200Y-191507200D02*
X197002200Y-194507200D01*
D10*
D11*
X261002200Y-191507200D02*
X261002200Y-198007200D01*
D14*
%TO.P,D2,2,A*%
%TO.N,Net-(D2-A)*%
X105305346Y-81506663D03*
D15*
%TO.P,D2,1,K*%
%TO.N,/ROW0*%
X105305346Y-89126663D03*
%TD*%
%TO.P,D3,1,K*%
%TO.N,/ROW0*%
X105320648Y-108063487D03*
D14*
%TO.P,D3,2,A*%
%TO.N,Net-(D3-A)*%
X105320648Y-100443487D03*
%TD*%
%TO.P,D9,2,A*%
%TO.N,Net-(D9-A)*%
X143380000Y-100490000D03*
D15*
%TO.P,D9,1,K*%
%TO.N,/ROW2*%
X143380000Y-108110000D03*
%TD*%
D14*
%TO.P,D5,2,A*%
%TO.N,Net-(D5-A)*%
X124340000Y-81420000D03*
D15*
%TO.P,D5,1,K*%
%TO.N,/ROW1*%
X124340000Y-89040000D03*
%TD*%
D14*
%TO.P,D7,2,A*%
%TO.N,Net-(D7-A)*%
X143440397Y-62319999D03*
D15*
%TO.P,D7,1,K*%
%TO.N,/ROW2*%
X143440397Y-69939999D03*
%TD*%
D14*
%TO.P,D4,2,A*%
%TO.N,Net-(D4-A)*%
X124392019Y-62335231D03*
D15*
%TO.P,D4,1,K*%
%TO.N,/ROW1*%
X124392019Y-69955231D03*
%TD*%
D14*
%TO.P,D6,2,A*%
%TO.N,Net-(D6-A)*%
X124330000Y-100410000D03*
D15*
%TO.P,D6,1,K*%
%TO.N,/ROW1*%
X124330000Y-108030000D03*
%TD*%
D14*
%TO.P,D8,2,A*%
%TO.N,Net-(D8-A)*%
X143438068Y-81402911D03*
D15*
%TO.P,D8,1,K*%
%TO.N,/ROW2*%
X143438068Y-89022911D03*
%TD*%
D14*
%TO.P,D11,2,A*%
%TO.N,Net-(D11-A)*%
X162490000Y-81360000D03*
D15*
%TO.P,D11,1,K*%
%TO.N,/ROW3*%
X162490000Y-88980000D03*
%TD*%
D14*
%TO.P,D12,2,A*%
%TO.N,Net-(D12-A)*%
X162402500Y-100460000D03*
D15*
%TO.P,D12,1,K*%
%TO.N,/ROW3*%
X162402500Y-108080000D03*
%TD*%
D14*
%TO.P,D10,2,A*%
%TO.N,Net-(D10-A)*%
X162487005Y-62377777D03*
D15*
%TO.P,D10,1,K*%
%TO.N,/ROW3*%
X162487005Y-69997777D03*
%TD*%
%TO.P,D1,1,K*%
%TO.N,/ROW0*%
X105331350Y-69959840D03*
D14*
%TO.P,D1,2,A*%
%TO.N,Net-(D1-A)*%
X105331350Y-62339840D03*
%TD*%
D16*
%TO.P,SW3,2,2*%
%TO.N,Net-(D3-A)*%
X110088861Y-100423487D03*
%TO.P,SW3,1,1*%
%TO.N,/COL2*%
X116438861Y-97883487D03*
%TD*%
%TO.P,SW5,1,1*%
%TO.N,/COL1*%
X135460000Y-78860000D03*
%TO.P,SW5,2,2*%
%TO.N,Net-(D5-A)*%
X129110000Y-81400000D03*
%TD*%
%TO.P,SW2,1,1*%
%TO.N,/COL1*%
X116441412Y-78823638D03*
%TO.P,SW2,2,2*%
%TO.N,Net-(D2-A)*%
X110091412Y-81363638D03*
%TD*%
%TO.P,SW9,1,1*%
%TO.N,/COL2*%
X154498770Y-97921230D03*
%TO.P,SW9,2,2*%
%TO.N,Net-(D9-A)*%
X148148770Y-100461230D03*
%TD*%
%TO.P,SW10,1,1*%
%TO.N,/COL0*%
X173602737Y-59758559D03*
%TO.P,SW10,2,2*%
%TO.N,Net-(D10-A)*%
X167252737Y-62298559D03*
%TD*%
D17*
%TO.P,J1,1,GND*%
%TO.N,/GND*%
X162745000Y-42665000D03*
D18*
%TO.P,J1,2,VCC*%
%TO.N,Net-(J1-VCC)*%
X162745000Y-45205000D03*
%TO.P,J1,3,SCL*%
%TO.N,/D5 (SCL)*%
X162745000Y-47745000D03*
%TO.P,J1,4,SDA*%
%TO.N,/D4 (SDA)*%
X162745000Y-50285000D03*
%TD*%
D16*
%TO.P,SW8,1,1*%
%TO.N,/COL1*%
X154554033Y-78832144D03*
%TO.P,SW8,2,2*%
%TO.N,Net-(D8-A)*%
X148204033Y-81372144D03*
%TD*%
%TO.P,SW4,1,1*%
%TO.N,/COL0*%
X135521541Y-59778357D03*
%TO.P,SW4,2,2*%
%TO.N,Net-(D4-A)*%
X129171541Y-62318357D03*
%TD*%
%TO.P,SW12,1,1*%
%TO.N,/COL2*%
X173532616Y-97884537D03*
%TO.P,SW12,2,2*%
%TO.N,Net-(D12-A)*%
X167182616Y-100424537D03*
%TD*%
D19*
%TO.P,U1,1,PA02_A0_D0*%
%TO.N,/ROW3*%
X106370000Y-39580000D03*
D20*
%TO.P,U1,2,PA4_A1_D1*%
%TO.N,/ROW2*%
X106370000Y-42120000D03*
%TO.P,U1,3,PA10_A2_D2*%
%TO.N,/ROW1*%
X106370000Y-44660000D03*
%TO.P,U1,4,PA11_A3_D3*%
%TO.N,/ROW0*%
X106370000Y-47200000D03*
%TO.P,U1,5,PA8_A4_D4_SDA*%
%TO.N,/D4 (SDA)*%
X106370000Y-49740000D03*
%TO.P,U1,6,PA9_A5_D5_SCL*%
%TO.N,/D5 (SCL)*%
X106370000Y-52280000D03*
%TO.P,U1,7,PB08_A6_D6_TX*%
%TO.N,/COL0*%
X106370000Y-54820000D03*
%TO.P,U1,8,PB09_A7_D7_RX*%
%TO.N,/COL1*%
X123620000Y-54820000D03*
%TO.P,U1,9,PA7_A8_D8_SCK*%
%TO.N,/COL2*%
X123620000Y-52280000D03*
%TO.P,U1,10,PA5_A9_D9_MISO*%
%TO.N,Net-(U1-PA5_A9_D9_MISO)*%
X123620000Y-49740000D03*
D21*
%TO.P,U1,11,PA6_A10_D10_MOSI*%
%TO.N,Net-(U1-PA6_A10_D10_MOSI)*%
X123620000Y-47200000D03*
%TO.P,U1,12,3V3*%
%TO.N,Net-(J1-VCC)*%
X123620000Y-44660000D03*
%TO.P,U1,13,GND*%
%TO.N,/GND*%
X123620000Y-42120000D03*
%TO.P,U1,14,5V*%
%TO.N,unconnected-(U1-5V-Pad14)*%
X123620000Y-39580000D03*
%TD*%
D22*
%TO.P,SW13,A,A*%
%TO.N,Net-(U1-PA6_A10_D10_MOSI)*%
X169000000Y-54250000D03*
D23*
%TO.P,SW13,B,B*%
%TO.N,Net-(U1-PA5_A9_D9_MISO)*%
X174000000Y-54250000D03*
%TO.P,SW13,C,C*%
%TO.N,/GND*%
X171500000Y-54250000D03*
D24*
%TO.P,SW13,MP*%
%TO.N,N/C*%
X165900000Y-46750000D03*
X177100000Y-46750000D03*
D23*
%TO.P,SW13,S1*%
X174000000Y-39750000D03*
%TO.P,SW13,S2*%
X169000000Y-39750000D03*
%TD*%
D16*
%TO.P,SW11,1,1*%
%TO.N,/COL1*%
X173617431Y-78794908D03*
%TO.P,SW11,2,2*%
%TO.N,Net-(D11-A)*%
X167267431Y-81334908D03*
%TD*%
%TO.P,SW7,1,1*%
%TO.N,/COL0*%
X154560000Y-59760000D03*
%TO.P,SW7,2,2*%
%TO.N,Net-(D7-A)*%
X148210000Y-62300000D03*
%TD*%
%TO.P,SW6,1,1*%
%TO.N,/COL2*%
X135450000Y-97850000D03*
%TO.P,SW6,2,2*%
%TO.N,Net-(D6-A)*%
X129100000Y-100390000D03*
%TD*%
%TO.P,SW1,1,1*%
%TO.N,/COL0*%
X116460000Y-59780000D03*
%TO.P,SW1,2,2*%
%TO.N,Net-(D1-A)*%
X110110000Y-62320000D03*
%TD*%
D25*
%TO.N,/GND*%
X172495000Y-55245000D03*
X178610000Y-54270000D03*
%TD*%
D26*
%TO.N,/GND*%
X172495000Y-55245000D02*
X171500000Y-54250000D01*
X172801000Y-55551000D02*
X172495000Y-55245000D01*
X172801000Y-55551000D02*
X177329000Y-55551000D01*
X177329000Y-55551000D02*
X178610000Y-54270000D01*
%TO.N,Net-(D10-A)*%
X162487005Y-62377777D02*
X167173519Y-62377777D01*
X167173519Y-62377777D02*
X167252737Y-62298559D01*
%TO.N,Net-(D11-A)*%
X167242339Y-81360000D02*
X167267431Y-81334908D01*
X162490000Y-81360000D02*
X167242339Y-81360000D01*
%TO.N,Net-(D12-A)*%
X167147153Y-100460000D02*
X167182616Y-100424537D01*
X162402500Y-100460000D02*
X167147153Y-100460000D01*
%TO.N,/ROW3*%
X159917777Y-69997777D02*
X159850000Y-69930000D01*
X162487005Y-69997777D02*
X159917777Y-69997777D01*
X159850000Y-69930000D02*
X159850000Y-88970000D01*
X159850000Y-58230000D02*
X159850000Y-69930000D01*
X159860000Y-88980000D02*
X159850000Y-88970000D01*
X162490000Y-88980000D02*
X159860000Y-88980000D01*
X159850000Y-105527500D02*
X162402500Y-108080000D01*
X159850000Y-88970000D02*
X159850000Y-105527500D01*
X158570000Y-56950000D02*
X159850000Y-58230000D01*
X156520000Y-56950000D02*
X158570000Y-56950000D01*
X156519000Y-56949000D02*
X156520000Y-56950000D01*
X121230000Y-56949000D02*
X121230000Y-56934240D01*
X121244760Y-56949000D02*
X156519000Y-56949000D01*
X121116100Y-56949000D02*
X121230000Y-56949000D01*
X121230000Y-56934240D02*
X121244760Y-56949000D01*
X108872000Y-44704900D02*
X121116100Y-56949000D01*
X108872000Y-41082000D02*
X108872000Y-44704900D01*
X107370000Y-39580000D02*
X108872000Y-41082000D01*
%TO.N,Net-(D10-A)*%
X162517005Y-62357777D02*
X162377777Y-62357777D01*
X162520000Y-62360772D02*
X162517005Y-62357777D01*
%TO.N,Net-(D11-A)*%
X162432500Y-81427500D02*
X162520000Y-81340000D01*
%TO.N,Net-(D7-A)*%
X148190001Y-62319999D02*
X148210000Y-62300000D01*
X143440397Y-62319999D02*
X148190001Y-62319999D01*
%TO.N,Net-(D8-A)*%
X148173266Y-81402911D02*
X148204033Y-81372144D01*
X143438068Y-81402911D02*
X148173266Y-81402911D01*
%TO.N,Net-(D9-A)*%
X148120000Y-100490000D02*
X148148770Y-100461230D01*
X143380000Y-100490000D02*
X148120000Y-100490000D01*
%TO.N,/ROW2*%
X140420000Y-69870000D02*
X140420000Y-88990000D01*
X140489999Y-69939999D02*
X140420000Y-69870000D01*
X143440397Y-69939999D02*
X140489999Y-69939999D01*
X143438068Y-89022911D02*
X140452911Y-89022911D01*
X140420000Y-88990000D02*
X140420000Y-105150000D01*
X140452911Y-89022911D02*
X140420000Y-88990000D01*
X140420000Y-57560000D02*
X140420000Y-69870000D01*
X140210000Y-57350000D02*
X140420000Y-57560000D01*
X140420000Y-105150000D02*
X143380000Y-108110000D01*
X120950000Y-57350000D02*
X140210000Y-57350000D01*
X107370000Y-42130000D02*
X108471000Y-43231000D01*
X108471000Y-44871000D02*
X120950000Y-57350000D01*
X107370000Y-42120000D02*
X107370000Y-42130000D01*
X108471000Y-43231000D02*
X108471000Y-44871000D01*
%TO.N,Net-(D6-A)*%
X129080000Y-100410000D02*
X129100000Y-100390000D01*
X124330000Y-100410000D02*
X129080000Y-100410000D01*
%TO.N,Net-(D5-A)*%
X129090000Y-81420000D02*
X129110000Y-81400000D01*
X124340000Y-81420000D02*
X129090000Y-81420000D01*
%TO.N,Net-(D4-A)*%
X129154667Y-62335231D02*
X129171541Y-62318357D01*
X124392019Y-62335231D02*
X129154667Y-62335231D01*
%TO.N,/ROW1*%
X121644769Y-69955231D02*
X121620000Y-69980000D01*
X124392019Y-69955231D02*
X121644769Y-69955231D01*
X121620000Y-69980000D02*
X121620000Y-89090000D01*
X121620000Y-89090000D02*
X121620000Y-105320000D01*
X121670000Y-89040000D02*
X121620000Y-89090000D01*
X124340000Y-89040000D02*
X121670000Y-89040000D01*
X121620000Y-105320000D02*
X124330000Y-108030000D01*
X121620000Y-58710000D02*
X121620000Y-69980000D01*
X107570000Y-44660000D02*
X121620000Y-58710000D01*
X107370000Y-44660000D02*
X107570000Y-44660000D01*
%TO.N,Net-(D1-A)*%
X110090160Y-62339840D02*
X110110000Y-62320000D01*
X105331350Y-62339840D02*
X110090160Y-62339840D01*
%TO.N,Net-(D2-A)*%
X109948387Y-81506663D02*
X110091412Y-81363638D01*
X105305346Y-81506663D02*
X109948387Y-81506663D01*
%TO.N,Net-(D3-A)*%
X105340648Y-100423487D02*
X105320648Y-100443487D01*
X110088861Y-100423487D02*
X105340648Y-100423487D01*
%TO.N,/ROW0*%
X102153337Y-89126663D02*
X102040000Y-89240000D01*
X105305346Y-89126663D02*
X102153337Y-89126663D01*
X102040000Y-89240000D02*
X102040000Y-69950000D01*
X102049840Y-69959840D02*
X102040000Y-69950000D01*
X105331350Y-69959840D02*
X102049840Y-69959840D01*
X102040000Y-69950000D02*
X102040000Y-62440000D01*
X108471000Y-56009000D02*
X108471000Y-48301000D01*
X102040000Y-62440000D02*
X108471000Y-56009000D01*
X108471000Y-48301000D02*
X107370000Y-47200000D01*
X102040000Y-104782839D02*
X102040000Y-89240000D01*
X105320648Y-108063487D02*
X102040000Y-104782839D01*
%TO.N,Net-(D5-A)*%
X124370000Y-81280000D02*
X124422019Y-81227981D01*
X124360000Y-81410000D02*
X124370000Y-81400000D01*
X124370000Y-81400000D02*
X124370000Y-81280000D01*
%TO.N,Net-(D4-A)*%
X129168415Y-62315231D02*
X129171541Y-62318357D01*
%TO.N,Net-(D7-A)*%
X143470397Y-62299999D02*
X143470397Y-62450000D01*
%TO.N,Net-(D8-A)*%
X143468068Y-81431932D02*
X143410000Y-81490000D01*
X143468068Y-81382911D02*
X143468068Y-81431932D01*
%TO.N,Net-(D7-A)*%
X143470397Y-62450000D02*
X143468068Y-62452329D01*
%TD*%
M02*
