M48
; DRILL file {KiCad 9.0.7} date 2026-02-26T16:53:52+0530
; FORMAT={-:-/ absolute / metric / decimal}
; #@! TF.CreationDate,2026-02-26T16:53:52+05:30
; #@! TF.GenerationSoftware,Kicad,Pcbnew,9.0.7
; #@! TF.FileFunction,Plated,1,2,PTH
FMAT,2
METRIC
; #@! TA.AperFunction,Plated,PTH,ViaDrill
T1C0.300
; #@! TA.AperFunction,Plated,PTH,ComponentDrill
T2C0.800
; #@! TA.AperFunction,Plated,PTH,ComponentDrill
T3C1.000
; #@! TA.AperFunction,Plated,PTH,ComponentDrill
T4C1.500
%
G90
G05
T1
X172.495Y-55.245
X178.61Y-54.27
T2
X105.305Y-81.507
X105.305Y-89.127
X105.321Y-100.443
X105.321Y-108.063
X105.331Y-62.34
X105.331Y-69.96
X124.33Y-100.41
X124.33Y-108.03
X124.34Y-81.42
X124.34Y-89.04
X124.392Y-62.335
X124.392Y-69.955
X143.38Y-100.49
X143.38Y-108.11
X143.438Y-81.403
X143.438Y-89.023
X143.44Y-62.32
X143.44Y-69.94
X162.403Y-100.46
X162.403Y-108.08
X162.487Y-62.378
X162.487Y-69.998
X162.49Y-81.36
X162.49Y-88.98
T3
X107.37Y-39.58
X107.37Y-42.12
X107.37Y-44.66
X107.37Y-47.2
X107.37Y-49.74
X107.37Y-52.28
X107.37Y-54.82
X122.62Y-39.58
X122.62Y-42.12
X122.62Y-44.66
X122.62Y-47.2
X122.62Y-49.74
X122.62Y-52.28
X122.62Y-54.82
X162.745Y-42.665
X162.745Y-45.205
X162.745Y-47.745
X162.745Y-50.285
X169.0Y-39.75
X169.0Y-54.25
X171.5Y-54.25
X174.0Y-39.75
X174.0Y-54.25
T4
X110.089Y-100.423
X110.091Y-81.364
X110.11Y-62.32
X116.439Y-97.883
X116.441Y-78.824
X116.46Y-59.78
X129.1Y-100.39
X129.11Y-81.4
X129.172Y-62.318
X135.45Y-97.85
X135.46Y-78.86
X135.522Y-59.778
X148.149Y-100.461
X148.204Y-81.372
X148.21Y-62.3
X154.499Y-97.921
X154.554Y-78.832
X154.56Y-59.76
X167.183Y-100.425
X167.253Y-62.299
X167.267Y-81.335
X173.533Y-97.885
X173.603Y-59.759
X173.617Y-78.795
T4
G00X165.9Y-47.4
M15
G01X165.9Y-46.1
M16
G05
G00X177.1Y-47.4
M15
G01X177.1Y-46.1
M16
G05
M30
